<svg id="Calque_1" data-name="Calque 1" xmlns="http://www.w3.org/2000/svg" xmlns:xlink="http://www.w3.org/1999/xlink" viewBox="0 0 613 371"><defs><style>.cls-1{fill:none;}.cls-2,.cls-5{fill:#fff;}.cls-2{opacity:0.01;}.cls-3{fill:#c4c4c6;}.cls-4{fill:#9a9b9d;}.cls-6{fill:#1f1e21;}.cls-7{fill:#d1d4e8;}.cls-8{fill:#c10021;}.cls-9{fill:#f3decc;}.cls-10{fill:#fff06d;}.cls-11{fill:#704e2c;}.cls-12{fill:#020206;}.cls-13{fill:#30277f;}.cls-14{fill:#c10618;}.cls-15{fill:#9c9c9b;}.cls-16{fill:#dfa18f;}.cls-17{fill:#995b3f;}.cls-18{fill:#ffec00;}.cls-19{fill:#ebc6b0;}.cls-20{fill:#5d3d1e;}.cls-21{clip-path:url(#clip-path);}.cls-22{fill:#fae837;}.cls-23{fill:#222221;}.cls-24{fill:#c0121b;}</style><clipPath id="clip-path" transform="translate(0 0)"><rect class="cls-1" x="180.72" y="124.47" width="122.12" height="29.91"/></clipPath></defs><rect class="cls-2" width="613" height="371"/><polygon class="cls-3" points="227.5 290.56 183.41 290.07 187.77 256.38 223.89 256.78 227.5 290.56"/><path class="cls-3" d="M89.54,99.66V262.6a3.11,3.11,0,0,0,3.11,3.11h226a3.12,3.12,0,0,0,3.12-3.11V99.66a3,3,0,0,0-3-3H92.52A3,3,0,0,0,89.54,99.66Z" transform="translate(0 0)"/><path class="cls-4" d="M89.54,99.19V244.8H321.75V99.19A2.77,2.77,0,0,0,319,96.42H92.31A2.77,2.77,0,0,0,89.54,99.19Z" transform="translate(0 0)"/><rect class="cls-5" x="95.66" y="103.21" width="219.96" height="133.7"/><rect class="cls-6" x="95.48" y="103.21" width="219.95" height="11.36"/><rect class="cls-5" x="241.15" y="106.1" width="69.12" height="5.56"/><polygon class="cls-7" points="304.61 108.34 308.09 108.34 306.35 109.81 304.61 108.34"/><rect class="cls-7" x="301.95" y="106.51" width="0.33" height="4.65"/><path class="cls-5" d="M108.92,109.07a3.72,3.72,0,1,1-3.72-3.71A3.72,3.72,0,0,1,108.92,109.07Z" transform="translate(0 0)"/><polygon class="cls-8" points="93.13 284.76 95.66 286.98 93.44 295.47 90.77 295.47 89.19 289.25 91.28 284.35 93.13 284.76"/><polygon class="cls-6" points="61.55 208.26 79.97 211.71 69.4 248.75 91.74 284.71 89.19 289.25 57.12 255.17 54.22 246.72 56.23 212.54 61.55 208.26"/><polygon class="cls-6" points="93.93 208.26 89.07 242.53 83.08 294.33 76.88 293.83 73.81 241.51 75.71 208.45 93.93 208.26"/><path class="cls-6" d="M49,217.68c-.39,1.52-.81,3-1.26,4.54a1.51,1.51,0,0,0-.06,1,1.4,1.4,0,0,0,.61.57,12.47,12.47,0,0,0,10.22,1.09c1.65-.56,3.17-1.47,4.84-2,2.81-.81,5.75-.38,8.61-.22s5.31-.56,8-.78c6.68-.55,8.47-.89,14.82,1.11,0-12,2.46-21.28.63-32.6S91.83,168.07,90,156.9a20.45,20.45,0,0,0-1.4-5.47c-3.52-7.51-11.8-8.94-19.15-6.79-3.75,1.09-6.73,5.31-8.57,8.59a45.86,45.86,0,0,0-4.57,13.6c-2.91,14.67-3,29.78-5.9,44.46Q49.8,214.5,49,217.68Z" transform="translate(0 0)"/><path class="cls-9" d="M73.91,146.21a1.54,1.54,0,0,0,.27.43,3.46,3.46,0,0,0,1.89,1.05,8.79,8.79,0,0,0,2.85,0c1.28-.15,1.29-.89,1.56-2a34.14,34.14,0,0,0,.58-3.76c1.84-.15,4-.55,4.81-2.43a6.35,6.35,0,0,0,.38-1.9c.27-2.67.53-5.34.8-8A7.75,7.75,0,0,0,87,126.8a5.47,5.47,0,0,0-3-3.27,11.64,11.64,0,0,0-10.75-.32,6,6,0,0,0-2.35,2,9.59,9.59,0,0,0-1,4.93c0,1.57-.07,3.15-.1,4.72,0,1.81,0,3.91,1.31,5,.68.57,1.62.75,2.18,1.46.71.89.57,2.14.53,3.2A3.8,3.8,0,0,0,73.91,146.21Z" transform="translate(0 0)"/><path class="cls-8" d="M84.18,126.41a2.07,2.07,0,0,1,.18.47c.23.85,0,1.78.19,2.63.35,1.36,1.84,2.26,2,3.66.11,1.14-.74,2.15-.88,3.29s.55,2.47.33,3.69a8.19,8.19,0,0,1-1.66,3.32c.21-.25,2,0,2.48-.27a1.88,1.88,0,0,0,1.1-1.38,16.13,16.13,0,0,1,.54-2.18c.47-.9,1.34-1.52,1.7-2.48.49-1.32-.12-2.79,0-4.18.24-2.12,2.22-4,1.7-6-.31-1.21-1.4-2-2-3.16a16.63,16.63,0,0,1-.82-2.71,3.11,3.11,0,0,0-1.68-2.16,13.26,13.26,0,0,0-1.55-.3,19.69,19.69,0,0,1-2.41-1.25c-1.2-.51-3.46.58-4.25,1.57s-.49,1.89.17,2.85C80.45,123.39,83.31,124.6,84.18,126.41Z" transform="translate(0 0)"/><path class="cls-8" d="M67.09,119a25.49,25.49,0,0,0-2.43,1.4c-1.4,1.14-1.79,3.09-2,4.88-.15,1.6-1,3-.9,4.65a4.1,4.1,0,0,0,1.29,3c1.08.9,2.85,1.17,3.26,2.51S65.19,138.65,66,140c.45.71,1.41.88,2.08,1.39a6.22,6.22,0,0,1,1.51,2.35,2.87,2.87,0,0,0,2,1.79,7.79,7.79,0,0,0-.25-3.9c-.3-.79-1.24-2.26-.38-3,.56-.65,1.77-.78,1.86-1.63a2,2,0,0,0-.41-1.11,4.89,4.89,0,0,1,0-4.47,6.35,6.35,0,0,1,3.4-3c1.69-.67,1.45-1.09,2-2.62s1.38-1.68,2.71-2.12a2.73,2.73,0,0,0,2.1-1.7,3.19,3.19,0,0,0,.43-2.62,5.19,5.19,0,0,0-1.52-1.81c-1.24-1.1-2.65-2.27-4.31-2.27-.92,0-1.82.37-2.74.36-.61,0-1.21-.19-1.82-.26a4.94,4.94,0,0,0-3.07.69c-.89.57-.92,1.23-1.46,2.09A3.08,3.08,0,0,1,67.09,119Z" transform="translate(0 0)"/><path class="cls-8" d="M71.22,113.44c.23-1,.22-2.29-.71-2.69-.5-.22-1.1-.07-1.63-.21-1.14-.32-1.43-1.75-2-2.8a.93.93,0,0,0-.33-.4,1.35,1.35,0,0,0-.75,0c-1.15,0-1.94-1.14-3-1.63a2.73,2.73,0,0,0-3.55,1.45c-.2.56-.22,1.16-.41,1.72-.8,2.25-4.23,3-4.49,5.35-.17,1.61,1.29,3.26.57,4.7-.46.93-1.73,1.49-1.66,2.52a1.41,1.41,0,0,0,1.37,1.19,2.86,2.86,0,0,0,1.83-.68c.84-.63,1.5-1.47,2.3-2.15a3.58,3.58,0,0,1,2.89-1c1,.2,1.86,1,2.87.95.81-.07,1.46-.75,2.26-.89a7.34,7.34,0,0,1,2.26.31c.75.1,1.72-.23,1.79-1a2,2,0,0,1,.05-.55c.2-.48,1-.39,1.23-.87-.35-.64-.93-.46-1.15-1.28A4.26,4.26,0,0,1,71.22,113.44Z" transform="translate(0 0)"/><path class="cls-8" d="M72.6,196.45a5.11,5.11,0,0,0,1,.25A25.89,25.89,0,0,0,77,197c.82,0,1.65.06,2.47.06,3.82,0,6.93-.37,7.16-.84v-.09a.38.38,0,0,0,0-.1V179.83a.87.87,0,0,0,0-.43.25.25,0,0,0-.13-.14,1.28,1.28,0,0,0-.24-.11,10.71,10.71,0,0,0-2.58-.43c-1.39-.12-2.79-.16-4.19-.16s-2.8,0-4.19.16a10.71,10.71,0,0,0-2.58.43c-.24.09-.5.2-.49.48a1.34,1.34,0,0,1,0,.2v15.94c0,.23,0,.39.16.55A.75.75,0,0,0,72.6,196.45Z" transform="translate(0 0)"/><polygon class="cls-8" points="77.13 296.57 71.35 306.02 80.32 306.3 82.84 297.26 83.08 294.33 76.4 292.84 77.13 296.57"/><path class="cls-5" d="M79.18,179c-3.32,0-6,.36-6.25.89a28.6,28.6,0,0,0,6.44.52,28.89,28.89,0,0,0,6-.41s.29,0,.29-.06C85.71,179.38,82.63,179,79.18,179Z" transform="translate(0 0)"/><path class="cls-8" d="M74.43,183.71c-1.52-1.42-3.51-2.37-5.48-1.59a4.92,4.92,0,0,0-2.9,3.94c-.46,3.62,3.83,6.59,6.75,5.22.84-.39.24-1.74-.61-1.33-2.15,1-5-1.64-4.33-4,.83-2.72,3.52-2.82,5.46-1.05A.83.83,0,0,0,74.43,183.71Z" transform="translate(0 0)"/><path class="cls-5" d="M78.66,167.65c.64,0,.64-1,0-1a2.8,2.8,0,0,0-3.12,2.45,3,3,0,0,0,.6,2.09c.81,1.16,2.88,2.49.88,3.9-.52.37,0,1.23.51.86a2.71,2.71,0,0,0,1.23-2.87,3.18,3.18,0,0,0-.87-1.46c-.37-.41-1-.8-1.15-1.34A1.87,1.87,0,0,1,78.66,167.65Z" transform="translate(0 0)"/><path class="cls-5" d="M83.39,168.65c.64,0,.64-1,0-1a2.8,2.8,0,0,0-3.12,2.44,3,3,0,0,0,.6,2.1c.81,1.16,2.88,2.49.88,3.9-.52.36,0,1.23.51.86a2.74,2.74,0,0,0,1.23-2.88,3.18,3.18,0,0,0-.87-1.46c-.37-.41-1-.79-1.15-1.34A1.87,1.87,0,0,1,83.39,168.65Z" transform="translate(0 0)"/><path class="cls-9" d="M71.16,186.18a1.71,1.71,0,0,0-.09-.3c-.34-.88-1.3-.92-1.81-1.57-.23-.3-.17-1.46-.78-1.24-.22.09-1,.3-1.76.57a18.43,18.43,0,0,1-2-.1c-1.63-.21-4.69-2.65-6.11-.71A4,4,0,0,0,58,184a3.47,3.47,0,0,0-.11,1.11c0,.28-.05.74.15.92s.93.2,1.22.25l2.45.51c.8.17,1.72.44,2,1.23a4.11,4.11,0,0,0,.13.53,1.3,1.3,0,0,0,.4.44A8.35,8.35,0,0,0,66,190.2c1.2.55,3.06-.62,4.14-1.19a1.76,1.76,0,0,0,1.07-2A4.91,4.91,0,0,0,71.16,186.18Z" transform="translate(0 0)"/><path class="cls-6" d="M42.09,171a10.47,10.47,0,0,0-.73,4.39,6.64,6.64,0,0,0,2.2,4.28,16.8,16.8,0,0,0,4.13,2.67,86,86,0,0,0,13.63,5.5c.78-1.6,1.57-3.19,2.35-4.78a1.67,1.67,0,0,0,.24-1.23A1.63,1.63,0,0,0,63,181l-5.1-2.78c-1.59-.86-3.29-1.83-4.08-3.47-1.52-3.13,2-4.48,3.7-6.25,2.36-2.42,4.81-4.78,7.1-7.26,2.17-2.22,4.4-4.53,5.35-7.42,1.88-5.75-.06-9.76-5.48-7.38-3.43,1.51-6,4.16-9.61,7.47C50,158.39,44.46,164.7,42.09,171Z" transform="translate(0 0)"/><path class="cls-10" d="M131.78,94.73a7.89,7.89,0,0,1,3.54-1.13q9.3-1.38,18.65-2c9.54-.68,19.4-.76,28.29,3.39a6.17,6.17,0,0,1,2.09,1.52l-54.1-.27A6,6,0,0,1,131.78,94.73Z" transform="translate(0 0)"/><path class="cls-11" d="M158.44,94.24a1.82,1.82,0,0,0,.71-.55.49.49,0,0,0,.11-.2.61.61,0,0,0,0-.26c-.08-.32-1-2.81-.8-2.94a9.55,9.55,0,0,0,3.7-3.87c1.45-2.85,1.53-6.1,1.25-9.15-.41-4.4-1.93-9.21-6-10.82-3.12-1.24-7,.11-9.56,2.45-3.23,3-2.74,8-2.05,11.77a14.66,14.66,0,0,0,3.58,7.47,9.52,9.52,0,0,0,3.44,2.37c.63.26,1.23.2,1.42.84a15.84,15.84,0,0,1,.19,2.78.45.45,0,0,0,.15.37.54.54,0,0,0,.28.08c.68,0,1.37,0,2.05,0A4.45,4.45,0,0,0,158.44,94.24Z" transform="translate(0 0)"/><path class="cls-6" d="M159.28,72.47c1.59.93,3.15,2.52,2.86,4.34.83-.42,1.87.4,2,1.32a3.45,3.45,0,0,1-1,2.52,2.29,2.29,0,0,0,2.27-1.35,6.51,6.51,0,0,0,.48-2.77,20.41,20.41,0,0,0-1.15-8.26c-1.08-2.58-3.29-4.85-6.05-5.29a9.69,9.69,0,0,0-2.58,0,5.19,5.19,0,0,0-2,.55C149.15,66.38,157.22,71.26,159.28,72.47Z" transform="translate(0 0)"/><path class="cls-6" d="M147.86,78c-.82,2.18,1.14,4.58.63,6.85-.31,1.41-1.55,2.56-1.55,4,0,1.87,2.08,3.24,2.1,5.11-1.18-1.49-3.45-1.85-4.48-3.45a12.13,12.13,0,0,1-.88-2.18c-1.22-3-4.51-4.44-7.28-6.09a2.32,2.32,0,0,1-.85-.73c-.42-.72,0-1.61.38-2.35A12.8,12.8,0,0,0,137,71.79c-.37-2.37-1.4-4.73-.93-7.08a5.82,5.82,0,0,1,4.19-4.39c1.86-.46,3.86,0,5.73-.41a18.67,18.67,0,0,0,3.5-1.53c2.67-1.25,6.19-1.5,8.27.59,1.84,1.85,1.85,5,.64,7.28-.74,1.43-1.8,2.66-2.55,4.08a10.31,10.31,0,0,1-1.94,3.15C152.1,75.12,148.82,75.44,147.86,78Z" transform="translate(0 0)"/><path class="cls-11" d="M164.06,107.3a1.26,1.26,0,0,1,.48.18c.4.3.28.91.39,1.4a2.73,2.73,0,0,0,.41.86l.87,1.4a.61.61,0,0,0,.18.21.65.65,0,0,0,.24.06,3.34,3.34,0,0,0,2.46-.72,3.39,3.39,0,0,0,1-2.31,6,6,0,0,0-.08-1.64,1.06,1.06,0,0,0-.17-.47,1,1,0,0,0-.32-.27,6.37,6.37,0,0,0-2.48-.85,4.88,4.88,0,0,1-1.47-.25,4.08,4.08,0,0,1-.87-.57,12.67,12.67,0,0,0-1.78-1.12,17.69,17.69,0,0,0-.67,3C162.16,107.37,163.11,107.11,164.06,107.3Z" transform="translate(0 0)"/><path class="cls-10" d="M135,90.79c-.7-.07-1.4-.13-2.08-.16a6.44,6.44,0,0,0-2.24.17,5.32,5.32,0,0,0-1.82,1.1c-2.36,2-4.91,6-2.17,8.57a7,7,0,0,0,3,1.47c3,.87,6.1,1.44,9.18,2l24.71,4.56,1.59-5.16c.43-1.4-11.21-6.86-12.54-7.44A64.41,64.41,0,0,0,135,90.79Z" transform="translate(0 0)"/><path class="cls-12" d="M112.2,127.88h.86l.81,1.38.81-1.38h.86v3.36h-.68v-2.39l-.75,1.24h-.48l-.75-1.24v2.39h-.68Z" transform="translate(0 0)"/><path class="cls-12" d="M116.48,127.88h.68v3.36h-.68Z" transform="translate(0 0)"/><path class="cls-12" d="M118.1,127.88H119l1.5,2.41v-2.41h.69v3.36h-.88l-1.5-2.42v2.42h-.69Z" transform="translate(0 0)"/><path class="cls-12" d="M122.11,127.88h.68v3.36h-.68Z" transform="translate(0 0)"/><path class="cls-12" d="M123.92,130.32a1,1,0,0,0,.75.41c.27,0,.43-.14.43-.39,0-.6-1.54-.46-1.54-1.58a1,1,0,0,1,1.08-1,1.5,1.5,0,0,1,1.18.57l-.5.45a.88.88,0,0,0-.67-.42.35.35,0,0,0-.39.35c0,.6,1.53.46,1.53,1.6a1,1,0,0,1-1.11,1,1.53,1.53,0,0,1-1.25-.56Z" transform="translate(0 0)"/><path class="cls-12" d="M126.14,127.88h2.76v.62h-1v2.74h-.68V128.5h-1Z" transform="translate(0 0)"/><path class="cls-12" d="M129.5,127.88h2v.58h-1.28v.78h1.09v.58h-1.09v.84h1.28v.58h-2Zm.06-.94h.7l.54.65h-.62Z" transform="translate(0 0)"/><path class="cls-12" d="M132.25,127.88h1c.74,0,1.2.38,1.2,1a.91.91,0,0,1-.54.87l1.06,1.49h-.82l-.89-1.36h-.35v1.36h-.69Zm.69.58v.84h.38a.42.42,0,1,0,0-.84Z" transform="translate(0 0)"/><path class="cls-12" d="M135.42,127.88h2v.58H136.1v.78h1.09v.58H136.1v.84h1.28v.58h-2Z" transform="translate(0 0)"/><path class="cls-12" d="M112.2,132.73h1.32a1.68,1.68,0,1,1,0,3.36H112.2Zm.68.62v2.12h.65a1.06,1.06,0,1,0,0-2.12Z" transform="translate(0 0)"/><path class="cls-12" d="M116,132.73h2v.58h-1.28v.78h1.08v.58h-1.08v.84h1.28v.58h-2Z" transform="translate(0 0)"/><path class="cls-12" d="M120,132.73h.68v2.74h1.28v.62h-2Z" transform="translate(0 0)"/><path class="cls-12" d="M121.79,134.11l.43-1.38h.69l-.56,1.38Z" transform="translate(0 0)"/><path class="cls-12" d="M123.44,132.73h2v.58h-1.28v.78h1.09v.58h-1.09v.84h1.28v.58h-2Z" transform="translate(0 0)"/><path class="cls-12" d="M126.19,132.73h.88l1.5,2.41v-2.41h.68v3.36h-.87l-1.5-2.41v2.41h-.69Z" transform="translate(0 0)"/><path class="cls-12" d="M130.39,135.17a1,1,0,0,0,.74.41c.27,0,.44-.14.44-.39,0-.6-1.54-.46-1.54-1.58a1,1,0,0,1,1.08-1,1.48,1.48,0,0,1,1.17.57l-.5.45a.87.87,0,0,0-.67-.42.35.35,0,0,0-.39.35c0,.6,1.54.46,1.54,1.6a1,1,0,0,1-1.12,1,1.55,1.55,0,0,1-1.25-.56Z" transform="translate(0 0)"/><path class="cls-12" d="M133,132.73h2v.58h-1.28v.78h1.08v.58h-1.08v.84h1.28v.58h-2Z" transform="translate(0 0)"/><path class="cls-12" d="M135.73,132.73h.68v3.36h-.68Z" transform="translate(0 0)"/><path class="cls-12" d="M139.68,135.26v-.57h-.85v-.62h1.54v1.43a1.81,1.81,0,0,1-1.47.69,1.78,1.78,0,0,1-1.84-1.78,1.8,1.8,0,0,1,3.21-1.09l-.54.41a1.05,1.05,0,0,0-.88-.46,1.08,1.08,0,0,0-1.08,1.14,1.1,1.1,0,0,0,1.13,1.14A1.12,1.12,0,0,0,139.68,135.26Z" transform="translate(0 0)"/><path class="cls-12" d="M141.13,132.73H142l1.51,2.41v-2.41h.68v3.36h-.88l-1.5-2.41v2.41h-.68Z" transform="translate(0 0)"/><path class="cls-12" d="M145.13,132.73h2v.58h-1.28v.78h1.09v.58h-1.09v.84h1.28v.58h-2Z" transform="translate(0 0)"/><path class="cls-12" d="M147.88,132.73h.86l.82,1.38.81-1.38h.86v3.36h-.68V133.7l-.75,1.24h-.48l-.75-1.24v2.39h-.69Z" transform="translate(0 0)"/><path class="cls-12" d="M152.17,132.73h2v.58h-1.28v.78h1.08v.58h-1.08v.84h1.28v.58h-2Z" transform="translate(0 0)"/><path class="cls-12" d="M154.92,132.73h.87l1.51,2.41v-2.41H158v3.36h-.87l-1.51-2.41v2.41h-.68Z" transform="translate(0 0)"/><path class="cls-12" d="M158.58,132.73h2.76v.62h-1v2.74h-.68v-2.74h-1Z" transform="translate(0 0)"/><path class="cls-12" d="M112.39,140a1,1,0,0,0,.74.41c.27,0,.44-.14.44-.38,0-.61-1.54-.47-1.54-1.59a1,1,0,0,1,1.08-1,1.48,1.48,0,0,1,1.17.57l-.5.45a.87.87,0,0,0-.67-.42.35.35,0,0,0-.39.35c0,.6,1.54.46,1.54,1.6a1,1,0,0,1-1.12,1,1.55,1.55,0,0,1-1.25-.56Z" transform="translate(0 0)"/><path class="cls-12" d="M116.92,137.58h.68v2a1.36,1.36,0,1,1-2.72,0v-2h.68v2.11a.68.68,0,1,0,1.36,0Z" transform="translate(0 0)"/><path class="cls-12" d="M118.45,137.58h1.11c.74,0,1.19.38,1.19,1s-.45,1-1.19,1h-.43v1.36h-.68Zm.68.58V139h.46a.42.42,0,1,0,0-.84Z" transform="translate(0 0)"/><path class="cls-12" d="M121.31,137.58h2v.58H122v.78h1.08v.58H122v.84h1.28v.58h-2Zm.67-.29.54-.65h.7l-.62.65Z" transform="translate(0 0)"/><path class="cls-12" d="M124.07,137.58h1c.74,0,1.19.38,1.19,1a.9.9,0,0,1-.53.87l1,1.49H126l-.9-1.36h-.35v1.36h-.68Zm.68.58V139h.39a.42.42,0,1,0,0-.84Z" transform="translate(0 0)"/><path class="cls-12" d="M127.24,137.58h.68v3.36h-.68Z" transform="translate(0 0)"/><path class="cls-12" d="M128.86,137.58h2v.58h-1.28v.78h1.09v.58h-1.09v.84h1.28v.58h-2Z" transform="translate(0 0)"/><path class="cls-12" d="M133.58,137.58h.68v2a1.36,1.36,0,1,1-2.72,0v-2h.68v2.11a.68.68,0,1,0,1.36,0Z" transform="translate(0 0)"/><path class="cls-12" d="M135.11,137.58h1c.74,0,1.19.38,1.19,1a.9.9,0,0,1-.53.87l1,1.49H137l-.9-1.36h-.35v1.36h-.68Zm.68.58V139h.39a.42.42,0,1,0,0-.84Z" transform="translate(0 0)"/><path class="cls-12" d="M138.08,141.71l.44-1.43h.69l-.56,1.43Z" transform="translate(0 0)"/><path class="cls-12" d="M112.2,142.43h1.32a1.69,1.69,0,1,1,0,3.37H112.2Zm.68.62v2.13h.65a1.07,1.07,0,1,0,0-2.13Z" transform="translate(0 0)"/><path class="cls-12" d="M116,142.43h2V143h-1.28v.78h1.08v.58h-1.08v.84h1.28v.59h-2Z" transform="translate(0 0)"/><path class="cls-12" d="M120,142.43h.68v2.75h1.28v.62h-2Z" transform="translate(0 0)"/><path class="cls-12" d="M123.53,142.43h.89l1.27,3.37H125l-.32-.88H123.3l-.32.88h-.73Zm.9,1.91-.46-1.26-.46,1.26Z" transform="translate(0 0)"/><path class="cls-12" d="M127.46,142.43h1c.74,0,1.2.38,1.2,1a.93.93,0,0,1-.54.87l1.06,1.49h-.82l-.89-1.36h-.36v1.36h-.68Zm.68.58v.84h.39c.29,0,.46-.15.46-.42a.41.41,0,0,0-.46-.42Z" transform="translate(0 0)"/><path class="cls-12" d="M130.63,142.43h2V143h-1.28v.78h1.09v.58h-1.09v.84h1.28v.59h-2Z" transform="translate(0 0)"/><path class="cls-12" d="M135.69,144.79l.53.41a1.69,1.69,0,0,1-1.41.69,1.78,1.78,0,1,1,0-3.55,1.71,1.71,0,0,1,1.41.68l-.53.42a1.06,1.06,0,0,0-.88-.47,1.14,1.14,0,0,0,0,2.28A1.05,1.05,0,0,0,135.69,144.79Z" transform="translate(0 0)"/><path class="cls-12" d="M136.81,142.43h.69v1.34h1.69v-1.34h.69v3.37h-.69v-1.41H137.5v1.41h-.69Z" transform="translate(0 0)"/><path class="cls-12" d="M140.82,142.43h2V143H141.5v.78h1.09v.58H141.5v.84h1.28v.59h-2Z" transform="translate(0 0)"/><path class="cls-12" d="M143.57,142.43h1c.74,0,1.2.38,1.2,1a.93.93,0,0,1-.54.87l1.06,1.49h-.82l-.89-1.36h-.36v1.36h-.68Zm.68.58v.84h.39c.29,0,.46-.15.46-.42a.41.41,0,0,0-.46-.42Z" transform="translate(0 0)"/><path class="cls-12" d="M149.09,144.79l.53.41a1.69,1.69,0,0,1-1.41.69,1.78,1.78,0,1,1,0-3.55,1.71,1.71,0,0,1,1.41.68l-.53.42a1.06,1.06,0,0,0-.88-.47,1.14,1.14,0,0,0,0,2.28A1.05,1.05,0,0,0,149.09,144.79Z" transform="translate(0 0)"/><path class="cls-12" d="M150.21,142.43h.69v1.34h1.69v-1.34h.69v3.37h-.69v-1.41H150.9v1.41h-.69Z" transform="translate(0 0)"/><path class="cls-12" d="M154.22,142.43h2V143H154.9v.78H156v.58H154.9v.84h1.28v.59h-2Z" transform="translate(0 0)"/><path class="cls-12" d="M112.2,147.28h2v.58h-1.28v.78H114v.58h-1.09v.85h1.28v.58h-2Z" transform="translate(0 0)"/><path class="cls-12" d="M114.68,147.28h2.76v.62h-1v2.75h-.68V147.9h-1Z" transform="translate(0 0)"/><path class="cls-12" d="M119.29,147.28h1.32a1.69,1.69,0,1,1,0,3.37h-1.32Zm.68.62V150h.65a1.07,1.07,0,1,0,0-2.13Z" transform="translate(0 0)"/><path class="cls-12" d="M123.05,147.28h2v.58h-1.28v.78h1.08v.58h-1.08v.85H125v.58h-2Z" transform="translate(0 0)"/><path class="cls-12" d="M127.06,147.28h.68V150H129v.62h-2Z" transform="translate(0 0)"/><path class="cls-12" d="M128.87,148.67l.44-1.39H130l-.56,1.39Z" transform="translate(0 0)"/><path class="cls-12" d="M130.53,147.28h.68v3.37h-.68Z" transform="translate(0 0)"/><path class="cls-12" d="M132.15,147.28H133l1.5,2.41v-2.41h.68v3.37h-.87l-1.5-2.42v2.42h-.69Z" transform="translate(0 0)"/><path class="cls-12" d="M136.16,147.28H137l1.51,2.41v-2.41h.68v3.37h-.88l-1.5-2.42v2.42h-.68Z" transform="translate(0 0)"/><path class="cls-12" d="M143.44,149a1.79,1.79,0,1,1-1.78-1.77A1.74,1.74,0,0,1,143.44,149Zm-.7,0a1.09,1.09,0,1,0-1.08,1.14A1.08,1.08,0,0,0,142.74,149Z" transform="translate(0 0)"/><path class="cls-12" d="M144.32,147.28l1,2.63,1-2.63H147l-1.28,3.37h-.89l-1.27-3.37Z" transform="translate(0 0)"/><path class="cls-12" d="M148.11,147.28H149l1.28,3.37h-.73l-.32-.88h-1.35l-.32.88h-.72Zm.91,1.91-.46-1.26-.46,1.26Z" transform="translate(0 0)"/><path class="cls-12" d="M150.11,147.28h2.76v.62h-1v2.75h-.68V147.9h-1Z" transform="translate(0 0)"/><path class="cls-12" d="M153.47,147.28h.69v3.37h-.69Z" transform="translate(0 0)"/><path class="cls-12" d="M158.38,149a1.79,1.79,0,1,1-1.78-1.77A1.75,1.75,0,0,1,158.38,149Zm-.7,0a1.09,1.09,0,1,0-1.08,1.14A1.08,1.08,0,0,0,157.68,149Z" transform="translate(0 0)"/><path class="cls-12" d="M159,147.28h.88l1.5,2.41v-2.41h.69v3.37h-.88l-1.5-2.42v2.42H159Z" transform="translate(0 0)"/><path class="cls-12" d="M123.14,160c.1,0,.17.07.13.25l-.42.09c.07-.19.2-.34.29-.34m.24.68h-.08c-.11.13-.22.23-.34.23s-.17-.07-.17-.23a.55.55,0,0,1,0-.18l.68-.23c.13-.31,0-.45-.21-.45-.33,0-.7.54-.7,1,0,.22.11.33.26.33s.38-.18.54-.48m-.14-1,.48-.45v-.05h-.25l-.3.5Zm-1.47.32H122l-.36,1a.11.11,0,0,0,.09.17.81.81,0,0,0,.65-.48h-.06a.82.82,0,0,1-.42.25l.33-.92h.34l0-.14h-.32l.12-.36h-.13l-.23.36-.28,0Zm-.31-.05a.1.1,0,0,0-.08-.14.62.62,0,0,0-.52.43h.06a.42.42,0,0,1,.27-.21l-.37,1a.09.09,0,0,0,.08.14.62.62,0,0,0,.5-.43h-.07a.42.42,0,0,1-.27.21Zm.07-.49a.16.16,0,0,0,.16-.16.16.16,0,1,0-.32,0,.16.16,0,0,0,.16.16m-2.17,1.51c0,.11,0,.18.11.18a.1.1,0,0,0,.12-.09l.26-.69a1,1,0,0,1,.47-.31c.07,0,.06.06,0,.15l-.4.77a.11.11,0,0,0,.09.17.64.64,0,0,0,.53-.43h-.06a.47.47,0,0,1-.28.21l.35-.69a.64.64,0,0,0,.06-.24.17.17,0,0,0-.18-.19c-.17,0-.34.19-.55.43V160c0-.13,0-.25-.16-.25s-.14.06-.21.15v0c.13,0,.19.18.09.39Zm0-.86c.05-.16,0-.3-.1-.3s-.18.11-.33.43V160c0-.13,0-.25-.16-.25s-.26.21-.36.43h.07c.06-.1.12-.16.17-.16s.09.09,0,.3l-.26.59c0,.11,0,.18.11.18s.09,0,.12-.09l.26-.69c.08-.09.14-.17.23-.26Zm-1.51-.12c.09,0,.17.07.13.25l-.43.09c.08-.19.2-.34.3-.34m.23.68H118c-.11.13-.22.23-.33.23s-.18-.07-.18-.23a1.1,1.1,0,0,1,0-.18l.68-.23c.14-.31,0-.45-.21-.45s-.69.54-.69,1c0,.22.1.33.26.33s.38-.18.53-.48m-1.61-.67h.23l-.36,1c0,.09,0,.17.1.17a.84.84,0,0,0,.65-.48H117a.86.86,0,0,1-.42.25l.33-.92h.34l0-.14H117l.13-.36H117l-.24.36-.28,0Zm-1.24.77c0-.31.33-.72.52-.72l.12,0-.2.52c-.11.14-.29.31-.37.31s-.07,0-.07-.13m1-1h-.11l-.11.11h0a1.19,1.19,0,0,0-1.05,1.09.19.19,0,0,0,.21.2c.14,0,.28-.21.44-.43v.08c0,.23,0,.35.16.35s.27-.21.36-.43h-.06c-.07.1-.13.16-.18.16s-.09-.1,0-.3Zm-1.2.36c0-.16,0-.3-.1-.3s-.19.11-.34.43V160c0-.13,0-.25-.16-.25s-.26.21-.36.43h.07c.07-.1.13-.16.18-.16s.09.09,0,.3l-.27.59c0,.11,0,.18.11.18a.1.1,0,0,0,.12-.09l.27-.69.22-.26Zm-1.89,1,0-.07c-.33-.07-.37-.07-.24-.42l.14-.37h.36c.16,0,.16.06.14.24h.09l.22-.59h-.09c-.09.14-.15.24-.33.24h-.35l.19-.52c.05-.16.09-.2.31-.2h.16c.23,0,.26.06.26.3h.09l.07-.41h-1.36l0,.08c.26,0,.29.08.16.42l-.29.81c-.13.33-.18.36-.48.42l0,.07Z" transform="translate(0 0)"/><path class="cls-12" d="M119.84,156.87c.09,0,.17.07.13.24l-.42.1c.07-.2.19-.34.29-.34m.24.68H120a.49.49,0,0,1-.33.23c-.12,0-.18-.07-.18-.23a1.23,1.23,0,0,1,0-.19l.69-.22c.13-.32,0-.45-.22-.45s-.69.54-.69,1c0,.21.1.33.26.33s.38-.18.54-.48m-.14-1,.48-.45v-.05h-.26l-.29.5Zm-1.47.32h.22l-.36,1a.12.12,0,0,0,.1.17.81.81,0,0,0,.65-.48H119a.89.89,0,0,1-.42.25l.33-.92h.34l0-.14H119l.13-.36H119l-.24.36-.27,0Zm-.31,0a.1.1,0,0,0-.08-.14.64.64,0,0,0-.53.42h.07a.5.5,0,0,1,.27-.21l-.38,1a.11.11,0,0,0,.08.15.64.64,0,0,0,.51-.43H118a.5.5,0,0,1-.27.21Zm.07-.49a.17.17,0,0,0,.16-.17.16.16,0,1,0-.32,0,.17.17,0,0,0,.16.17m-1.31,1.47.68-1.8,0,0-.43.05v.05l.08.07c.08,0,.06.11,0,.29l-.54,1.42a.11.11,0,0,0,.1.17.6.6,0,0,0,.5-.43h-.07a.55.55,0,0,1-.29.21m-1.31-.17c0-.3.34-.71.53-.71h.11l-.19.53c-.12.14-.29.3-.37.3s-.08,0-.08-.13m1-1h-.11l-.11.12h0a1.18,1.18,0,0,0-1,1.09.18.18,0,0,0,.2.2c.14,0,.29-.21.45-.43v.08c0,.22,0,.35.17.35s.26-.22.36-.43h-.07c-.06.1-.13.15-.18.15s-.08-.09,0-.29Zm-2.51,1.64c0-.13.12-.22.3-.29l.27.1c.19.07.26.09.26.15s-.21.21-.49.21-.34-.05-.34-.17m.51-.8c-.08,0-.12-.07-.12-.15s.12-.54.31-.54.11.07.11.15-.12.54-.3.54m.53.68c0-.16-.14-.22-.37-.29s-.28-.07-.28-.14a.21.21,0,0,1,.12-.16.56.56,0,0,0,.53-.55.51.51,0,0,0,0-.13h.27l0-.14H115a.27.27,0,0,0-.18-.05.57.57,0,0,0-.56.54.32.32,0,0,0,.26.33c-.16.07-.25.15-.25.25a.16.16,0,0,0,.07.14c-.37.1-.52.23-.52.4s.23.25.49.25c.45,0,.83-.25.83-.45m-1.72-1.06c.16,0,.16.07.14.24h.09l.22-.59h-.09c-.09.14-.15.24-.33.24h-.35l.18-.49c.05-.17.09-.2.31-.2h.16c.23,0,.26.06.26.29h.09l.07-.4h-1.36l0,.07c.26.06.29.08.16.42l-.29.81c-.13.34-.18.37-.48.42l0,.08h1.51l.27-.43h-.1a1,1,0,0,1-.7.32c-.4,0-.36,0-.23-.39l.15-.39Zm.2-1,.48-.33v-.06h-.29l-.27.39Z" transform="translate(0 0)"/><path class="cls-12" d="M119.68,153.78c.09,0,.17.07.13.25l-.42.1c.07-.2.19-.35.29-.35m.24.69h-.09a.51.51,0,0,1-.33.22c-.12,0-.18-.07-.18-.22a1.11,1.11,0,0,1,0-.19l.69-.22c.13-.32,0-.46-.22-.46s-.69.54-.69,1c0,.21.1.32.26.32s.38-.18.54-.47m-.14-1,.48-.45V153H120l-.29.5Zm-1.41.31h.18l-.36,1a.11.11,0,0,0,.1.16.85.85,0,0,0,.65-.47h-.07a1,1,0,0,1-.41.25l.33-.93h.33l0-.14h-.33l.12-.35h-.13l-.23.35-.23,0Zm-.18.11c0-.16,0-.3-.1-.3s-.18.11-.33.43v-.18c0-.13,0-.25-.16-.25s-.27.22-.36.43h.06q.11-.15.18-.15c.06,0,.09.09,0,.29l-.27.59c0,.11,0,.18.11.18s.1,0,.13-.08l.26-.7.22-.26Zm-1.52-.12c.1,0,.17.07.13.25l-.42.1c.07-.2.2-.35.29-.35m.24.69h-.08a.53.53,0,0,1-.34.22c-.11,0-.17-.07-.17-.22a.58.58,0,0,1,0-.19l.68-.22c.13-.32,0-.46-.21-.46-.33,0-.7.54-.7,1,0,.21.11.32.26.32s.38-.18.54-.47m-1.68.27c-.06,0-.16-.06-.16-.11a.94.94,0,0,1,.07-.19l.11-.29c.12-.15.3-.3.4-.3s.11,0,.11.13c0,.27-.25.76-.53.76m.78-.86c0-.2-.07-.28-.21-.28s-.34.18-.5.41l.41-1.09,0,0-.43,0V153l.08.06c.08.06,0,.12,0,.3l-.45,1.15a1.67,1.67,0,0,0-.07.2c0,.12.16.23.31.23a1.26,1.26,0,0,0,.89-1.06m-1.34-.13a.11.11,0,0,0-.08-.15.65.65,0,0,0-.53.43h.07a.5.5,0,0,1,.27-.21l-.38,1a.1.1,0,0,0,.08.14.64.64,0,0,0,.51-.42h-.07a.5.5,0,0,1-.27.21Zm.07-.5a.16.16,0,1,0-.16-.16.16.16,0,0,0,.16.16m-1-.16h-.89l0,.08c.27.06.29.08.17.42l-.29.81c-.13.34-.18.36-.48.42l0,.07h1.36l.3-.52h-.11a.93.93,0,0,1-.66.41c-.23,0-.26,0-.14-.38l.29-.81c.12-.34.18-.36.48-.42Z" transform="translate(0 0)"/><path class="cls-13" d="M117.26,125.12l.15-.15h0a2.57,2.57,0,0,1,.28-.29l.09-.07s0,0,0,0l-.11.07s0,0,0,0l.09-.07h0a.34.34,0,0,0-.27.12s0,0,0,0-.22.15-.34.2v0l-.15.06a.83.83,0,0,1-.22,0l-.3,0h0a.44.44,0,0,0-.16.06h0l0,0a.12.12,0,0,1,0,0,.38.38,0,0,0-.14.11h0a1.59,1.59,0,0,1-.13.13h0l0,0,0,0,0-.05h0a.71.71,0,0,1,.14-.1h0s0,0,0,0v0h0l0,0s0,.06-.07.05h0v0s0,0,0,0a.12.12,0,0,1,0,0h0l.1-.06h0L116,125h0a0,0,0,0,1,0,0h0a.1.1,0,0,1,0,0s0,0,0,0c.27-.21.64-.16,1-.27l.08,0s.07-.06.12-.09a.4.4,0,0,0,.15-.19,0,0,0,0,0,0,0,1.39,1.39,0,0,1-.37.28,1.78,1.78,0,0,1-.56.1,0,0,0,0,1,0,0s0,0,0,0h.07s-.07,0-.12,0,0,0,0,0h0a.07.07,0,0,1,0,0l.36-.2s0,0-.06,0,0,0,0,0a1.19,1.19,0,0,0,.26-.11s0,0-.09,0l0,0v0h0s0,0,.05,0,0,0,0,0a.16.16,0,0,1,.11,0s0,0,0,0h0a.06.06,0,0,1,0,0,.39.39,0,0,0,.08-.2h0a.67.67,0,0,1-.34.16h0a.16.16,0,0,1-.15,0s0,0-.08-.06a1.06,1.06,0,0,0-.21-.11,2,2,0,0,0-.65-.09,1.38,1.38,0,0,1,.29-.08,1.32,1.32,0,0,1,.43-.09s-.06,0-.08,0a1.49,1.49,0,0,0-.36,0l-.25.07s-.08.07-.13.06v0a.47.47,0,0,1,.32-.21,1.63,1.63,0,0,1,.44,0,1.8,1.8,0,0,1,.32.06s.06.07.09.08a.4.4,0,0,1,.15,0s0,0,0,0,.08,0,.11,0-.06-.12-.09-.18a0,0,0,0,1,0,0,.85.85,0,0,0,.2.17s.14,0,.13,0a1.64,1.64,0,0,0-.2-.26v0s0,0,0,0v0s0-.05,0-.08,0-.1,0-.15a.74.74,0,0,1,0-.14c0-.15,0-.27-.07-.41s.09-.28.17-.43a.74.74,0,0,1,.23-.27,1.07,1.07,0,0,1,.16-.27.83.83,0,0,1,.26-.17l.23-.08h-5.79v4.46h4.1a4.45,4.45,0,0,1,.54-.28A2,2,0,0,0,117.26,125.12Zm-1.29-.61s0,0,0,0,.07,0,.11,0,0,0,0,0,0,0,.06,0S116,124.49,116,124.51Zm-1.3-.18v0a2.8,2.8,0,0,0,.27-.43,1.08,1.08,0,0,0,.28-.24,1.87,1.87,0,0,1,.48-.37.34.34,0,0,1,.22,0s-.07,0-.11,0h0s0,0,0,0-.21.13-.27.24-.09.2-.2.22,0,0,0,0A3,3,0,0,0,114.67,124.33Zm.71-.56s0,0,0,0l0,0s0,0,0,0a.11.11,0,0,1,.07-.08S115.38,123.76,115.38,123.77Zm.39,1.26s0,0,0,0h0a.18.18,0,0,1-.07.05h0l0,0s-.06,0,0,0l.06-.06,0,0,0,0S115.77,125,115.77,125Zm-.15-.07h0l-.09.06-.11.06h0l-.08.06,0,0h0l0,0a0,0,0,0,1,0,0h-.06l0,0,0,.05h0l0,0h0l0,0h0l0,0h0v0h0v0h0l0,0h0l0,0s0,0,0,0,0,0,0,0h0l0,0,0,0h0l0,0h0c.08-.08.21-.07.32-.12s.09,0,.14,0h.07Zm.17-.58s0,0,0,0h-.06s0,0,0,0l-.14,0c-.06,0-.11.06-.18.07s-.16.11-.27.15v0s0,0,0-.06v0a1.7,1.7,0,0,1,.24-.22v0s.07-.05.09-.09,0-.06.08-.08,0,0,0,0a.18.18,0,0,1-.1,0l.06,0,0,0s0,0,0,0,.08,0,.1,0-.13,0-.19,0a.45.45,0,0,1,.22-.25s0,0,0,0a.08.08,0,0,1-.07.08,1.6,1.6,0,0,1,.21,0s0,0,0,0,.1,0,.14,0,0,0-.08,0a2.3,2.3,0,0,1,.76.31,2.28,2.28,0,0,1-.58.17H116s0,0,0,0a.11.11,0,0,0-.08,0S115.81,124.4,115.79,124.38Z" transform="translate(0 0)"/><path class="cls-14" d="M124.47,121.18h-4.8l0,0,.12.06a.54.54,0,0,1,.16.14.11.11,0,0,1,0,.11s0,.11-.07.12a.28.28,0,0,1-.18,0l-.1,0a.64.64,0,0,1,.33.23s0,0,.08,0,0,0,0,0,0,0,0,0h0s0-.1.09-.07a.08.08,0,0,1,0,.12.81.81,0,0,1-.1.09.06.06,0,0,0,0,.06.18.18,0,0,1,0,.1,1.89,1.89,0,0,1,.06.18,1,1,0,0,1,.06.38.67.67,0,0,0,0,.2.64.64,0,0,0,.1.18l.09.13c0,.09.14.17.1.27s-.12.05-.18.09,0,.11,0,.15,0,.12-.11.15,0,0,.06,0,0,.07,0,.11-.13.08-.08.15a.25.25,0,0,1,0,.19.2.2,0,0,1-.15.13H120l0,0a3.41,3.41,0,0,0-.43-.06l-.12,0-.1.09h0l0,0h0l-.07.09h0a1,1,0,0,0-.06.16.5.5,0,0,0,0,.4s.28.09.46.17l.2.1h4.72Z" transform="translate(0 0)"/><path class="cls-15" d="M120,122.81s.09,0,.09,0-.12.09-.17.15h0s0,.06,0,.06a.11.11,0,0,0-.08,0,.14.14,0,0,0,.13,0s0,0,0,0h0s0,0,0,0v0s-.07,0-.1,0H120s0-.11,0-.15,0,0,0,0,0,0,0,0a.05.05,0,0,0,.05,0s0,0,0,0,.1-.09.08-.14-.08,0-.12,0-.09,0-.14,0l-.13,0a.51.51,0,0,0-.16.09.59.59,0,0,1,.19,0S119.9,122.79,120,122.81Z" transform="translate(0 0)"/><rect class="cls-10" x="95.88" y="170.5" width="219.73" height="30.36"/><path class="cls-6" d="M117.47,182.54l.92.7a2.94,2.94,0,0,1-2.43,1.18,3,3,0,1,1,2.43-4.92l-.92.72a1.81,1.81,0,0,0-1.51-.79,2,2,0,0,0,0,3.9A1.83,1.83,0,0,0,117.47,182.54Z" transform="translate(0 0)"/><path class="cls-6" d="M123.34,182.18a2.27,2.27,0,1,1-2.27-2.23A2.19,2.19,0,0,1,123.34,182.18Zm-1.09,0a1.19,1.19,0,1,0-1.17,1.25A1.18,1.18,0,0,0,122.25,182.18Z" transform="translate(0 0)"/><path class="cls-6" d="M124.21,180.11h1v.33a1.7,1.7,0,0,1,1.23-.49,1.61,1.61,0,0,1,1.61,1.84v2.46h-1v-2.42a.81.81,0,0,0-.83-.9,1.12,1.12,0,0,0-1,.62v2.7h-1Z" transform="translate(0 0)"/><path class="cls-6" d="M129.52,183a1.22,1.22,0,0,0,.95.55.45.45,0,0,0,.51-.44c0-.73-2-.46-2-1.91a1.35,1.35,0,0,1,1.48-1.28,1.93,1.93,0,0,1,1.51.7l-.69.61a1.13,1.13,0,0,0-.81-.48c-.33,0-.49.19-.49.4,0,.71,2,.46,2,1.89a1.39,1.39,0,0,1-1.5,1.35,2,2,0,0,1-1.66-.77Z" transform="translate(0 0)"/><path class="cls-6" d="M135.59,180.11h1.06v2.3a1.94,1.94,0,1,1-3.88,0v-2.3h1.06v2.35a.85.85,0,0,0,.89,1c.56,0,.87-.37.87-1Z" transform="translate(0 0)"/><path class="cls-6" d="M137.72,178.09h1.05v6.16h-1.05Z" transform="translate(0 0)"/><path class="cls-6" d="M140.2,181.05h-.77v-.94h.77v-1h1.05v1h1.27v.94h-1.27v1.69c0,.46.25.64.66.64a1.59,1.59,0,0,0,.62-.09v.92a2,2,0,0,1-.8.13,1.4,1.4,0,0,1-1.53-1.6Z" transform="translate(0 0)"/><path class="cls-6" d="M145.3,184.42a2.17,2.17,0,0,1-2.31-2.24,2.08,2.08,0,0,1,2.13-2.23A1.79,1.79,0,0,1,147,181.8a2.41,2.41,0,0,1-.07.6h-2.9a1.12,1.12,0,0,0,1.23,1.08,1.36,1.36,0,0,0,1.07-.49l.74.59A2.17,2.17,0,0,1,145.3,184.42Zm-1.2-2.78H146a.86.86,0,0,0-.9-.84A1,1,0,0,0,144.1,181.64Z" transform="translate(0 0)"/><path class="cls-6" d="M148,180.11h1v.41a1.49,1.49,0,0,1,1.1-.49,1,1,0,0,1,.36.06v1a2,2,0,0,0-.46-.05,1.15,1.15,0,0,0-1,.54v2.65h-1Z" transform="translate(0 0)"/><path class="cls-6" d="M113.16,189.6h1v2.3a1.94,1.94,0,1,1-3.87,0v-2.3h1V192a.89.89,0,1,0,1.77,0Z" transform="translate(0 0)"/><path class="cls-6" d="M115.28,189.6h1v.33a1.68,1.68,0,0,1,1.22-.5,1.61,1.61,0,0,1,1.61,1.84v2.47h-1v-2.42a.8.8,0,0,0-.82-.9,1.08,1.08,0,0,0-1,.62v2.7h-1Z" transform="translate(0 0)"/><path class="cls-6" d="M122.4,189.6h1v.31a1.57,1.57,0,0,1,1.14-.48,1.41,1.41,0,0,1,1.26.68,1.64,1.64,0,0,1,1.39-.68,1.54,1.54,0,0,1,1.53,1.76v2.55h-1.06v-2.51a.71.71,0,0,0-.74-.81,1,1,0,0,0-.86.59,1.09,1.09,0,0,1,0,.18v2.55h-1.05v-2.51a.71.71,0,0,0-.74-.81,1,1,0,0,0-.88.62v2.7h-1Z" transform="translate(0 0)"/><path class="cls-6" d="M131.88,193.9a2.16,2.16,0,0,1-2.3-2.23,2.08,2.08,0,0,1,2.13-2.24,1.79,1.79,0,0,1,1.91,1.86,2.89,2.89,0,0,1-.07.59h-2.9a1.12,1.12,0,0,0,1.22,1.09,1.31,1.31,0,0,0,1.07-.5l.75.6A2.21,2.21,0,0,1,131.88,193.9Zm-1.2-2.77h1.91a.87.87,0,0,0-.9-.84A1,1,0,0,0,130.68,191.13Zm.6-2.19.86-1.37h1.13l-1,1.37Z" transform="translate(0 0)"/><path class="cls-6" d="M136.33,189.43a1.7,1.7,0,0,1,1.28.5v-2.36h1.06v6.17h-1.06v-.33a1.69,1.69,0,0,1-1.28.49,2.24,2.24,0,0,1,0-4.47Zm.15,3.49a1.35,1.35,0,0,0,1.13-.58V191a1.36,1.36,0,0,0-1.13-.57,1.25,1.25,0,0,0,0,2.5Z" transform="translate(0 0)"/><path class="cls-6" d="M141.84,193.9a2.16,2.16,0,0,1-2.3-2.23,2.08,2.08,0,0,1,2.13-2.24,1.78,1.78,0,0,1,1.9,1.86,3,3,0,0,1-.06.59h-2.9a1.11,1.11,0,0,0,1.22,1.09,1.33,1.33,0,0,0,1.07-.5l.75.6A2.22,2.22,0,0,1,141.84,193.9Zm-1.2-2.77h1.91a.87.87,0,0,0-.91-.84A1,1,0,0,0,140.64,191.13Z" transform="translate(0 0)"/><path class="cls-6" d="M147.4,192.44l.82.63a2.15,2.15,0,0,1-1.75.83,2.24,2.24,0,1,1,1.75-3.63l-.82.63a1.09,1.09,0,0,0-1-.48,1.25,1.25,0,0,0,0,2.5A1.08,1.08,0,0,0,147.4,192.44Z" transform="translate(0 0)"/><path class="cls-6" d="M148.76,188.19a.68.68,0,1,1,.68.68A.69.69,0,0,1,148.76,188.19Zm.16,1.41h1v4.14h-1Z" transform="translate(0 0)"/><path class="cls-6" d="M151.13,189.6h1v.33a1.7,1.7,0,0,1,1.23-.5,1.62,1.62,0,0,1,1.61,1.84v2.47h-1v-2.42a.8.8,0,0,0-.83-.9,1.1,1.1,0,0,0-1,.62v2.7h-1Z" transform="translate(0 0)"/><path class="cls-6" d="M191.85,182.54l.92.7a2.92,2.92,0,0,1-2.42,1.18,3,3,0,1,1,2.42-4.92l-.92.72a1.8,1.8,0,0,0-1.5-.79,2,2,0,0,0,0,3.9A1.83,1.83,0,0,0,191.85,182.54Z" transform="translate(0 0)"/><path class="cls-6" d="M193.56,178.09h1v2.35a1.7,1.7,0,0,1,1.23-.49c.9,0,1.61.61,1.61,1.84v2.46h-1.05v-2.42a.8.8,0,0,0-.82-.9,1.12,1.12,0,0,0-1,.62v2.7h-1Z" transform="translate(0 0)"/><path class="cls-6" d="M202.78,182.18a2.27,2.27,0,1,1-2.26-2.23A2.19,2.19,0,0,1,202.78,182.18Zm-1.08,0a1.19,1.19,0,1,0-1.17,1.25A1.18,1.18,0,0,0,201.7,182.18Z" transform="translate(0 0)"/><path class="cls-6" d="M203.5,178.7a.68.68,0,1,1,1.36,0,.68.68,0,1,1-1.36,0Zm.16,1.41h1v4.14h-1Z" transform="translate(0 0)"/><path class="cls-6" d="M206.14,183a1.22,1.22,0,0,0,1,.55.45.45,0,0,0,.51-.44c0-.73-2-.46-2-1.91A1.35,1.35,0,0,1,207.1,180a1.89,1.89,0,0,1,1.5.7l-.69.61a1.09,1.09,0,0,0-.8-.48c-.33,0-.49.19-.49.4,0,.71,2,.46,2,1.89a1.38,1.38,0,0,1-1.49,1.35,2,2,0,0,1-1.66-.77Z" transform="translate(0 0)"/><path class="cls-6" d="M209.33,178.7A.69.69,0,0,1,210,178a.68.68,0,0,1,.67.68.69.69,0,0,1-.67.69A.7.7,0,0,1,209.33,178.7Zm.15,1.41h1.05v4.14h-1.05Z" transform="translate(0 0)"/><path class="cls-6" d="M212,183a1.22,1.22,0,0,0,.95.55.45.45,0,0,0,.51-.44c0-.73-2-.46-2-1.91a1.35,1.35,0,0,1,1.48-1.28,1.89,1.89,0,0,1,1.5.7l-.69.61a1.09,1.09,0,0,0-.8-.48c-.33,0-.49.19-.49.4,0,.71,2,.46,2,1.89a1.38,1.38,0,0,1-1.49,1.35,2,2,0,0,1-1.66-.77Z" transform="translate(0 0)"/><path class="cls-6" d="M215.58,183a1.24,1.24,0,0,0,1,.55.45.45,0,0,0,.51-.44c0-.73-2-.46-2-1.91a1.34,1.34,0,0,1,1.48-1.28,1.89,1.89,0,0,1,1.5.7l-.69.61a1.09,1.09,0,0,0-.81-.48c-.32,0-.48.19-.48.4,0,.71,2,.46,2,1.89a1.39,1.39,0,0,1-1.5,1.35,2.06,2.06,0,0,1-1.66-.77Z" transform="translate(0 0)"/><path class="cls-6" d="M220.92,184.42a2.17,2.17,0,0,1-2.3-2.24,2.08,2.08,0,0,1,2.13-2.23,1.78,1.78,0,0,1,1.9,1.85,3.09,3.09,0,0,1-.06.6h-2.9a1.12,1.12,0,0,0,1.22,1.08A1.35,1.35,0,0,0,222,183l.75.59A2.2,2.2,0,0,1,220.92,184.42Zm-1.2-2.78h1.91a.87.87,0,0,0-.91-.84A1,1,0,0,0,219.72,181.64Z" transform="translate(0 0)"/><path class="cls-6" d="M223.37,183.32l2.1-2.27h-2v-.94h3.34v.94l-2.1,2.27h2.16v.93h-3.47Z" transform="translate(0 0)"/><path class="cls-6" d="M179.91,189.6H181v2.3a1.94,1.94,0,1,1-3.88,0v-2.3h1.06V192c0,.6.31,1,.88,1s.88-.37.88-1Z" transform="translate(0 0)"/><path class="cls-6" d="M182,189.6h1.05v.33a1.66,1.66,0,0,1,1.22-.5,1.61,1.61,0,0,1,1.61,1.84v2.47h-1v-2.42a.8.8,0,0,0-.82-.9,1.08,1.08,0,0,0-1,.62v2.7H182Z" transform="translate(0 0)"/><path class="cls-6" d="M189.16,189.6h1.05v.33a1.71,1.71,0,0,1,1.29-.5,2.24,2.24,0,0,1,0,4.47,1.71,1.71,0,0,1-1.29-.5v2.36h-1.05Zm1.05,1.42v1.3a1.34,1.34,0,0,0,1.14.6,1.25,1.25,0,0,0,0-2.5A1.31,1.31,0,0,0,190.21,191Z" transform="translate(0 0)"/><path class="cls-6" d="M194.66,192.52a1.24,1.24,0,0,0,1,.55.45.45,0,0,0,.51-.45c0-.72-2-.45-2-1.9a1.35,1.35,0,0,1,1.48-1.29,1.92,1.92,0,0,1,1.51.71l-.69.61a1.09,1.09,0,0,0-.81-.48c-.33,0-.48.18-.48.4,0,.7,2,.46,2,1.89a1.38,1.38,0,0,1-1.5,1.34,2.06,2.06,0,0,1-1.66-.76Z" transform="translate(0 0)"/><path class="cls-6" d="M198.28,195.8a1.71,1.71,0,0,1-.74-.14v-.92a1.32,1.32,0,0,0,.51.1.8.8,0,0,0,.84-.56l.23-.55-1.75-4.13h1.16l1.14,2.78,1.14-2.78h1.1l-2.09,5.09A1.57,1.57,0,0,1,198.28,195.8Z" transform="translate(0 0)"/><path class="cls-6" d="M205.3,192.44l.81.63a2.12,2.12,0,0,1-1.75.83,2.24,2.24,0,1,1,0-4.47,2.13,2.13,0,0,1,1.75.84l-.81.63a1.12,1.12,0,0,0-1-.48,1.25,1.25,0,0,0,0,2.5A1.11,1.11,0,0,0,205.3,192.44Z" transform="translate(0 0)"/><path class="cls-6" d="M206.81,187.57h1.05v2.36a1.66,1.66,0,0,1,1.22-.5,1.61,1.61,0,0,1,1.61,1.84v2.47h-1.05v-2.42a.79.79,0,0,0-.82-.9,1.08,1.08,0,0,0-1,.62v2.7h-1.05Z" transform="translate(0 0)"/><path class="cls-6" d="M216,191.67a2.27,2.27,0,1,1-2.27-2.24A2.19,2.19,0,0,1,216,191.67Zm-1.09,0a1.19,1.19,0,1,0-1.17,1.25A1.18,1.18,0,0,0,215,191.67Z" transform="translate(0 0)"/><path class="cls-6" d="M216.91,187.57h1v6.17h-1Z" transform="translate(0 0)"/><path class="cls-6" d="M223.36,191.67a2.27,2.27,0,1,1-2.27-2.24A2.19,2.19,0,0,1,223.36,191.67Zm-1.08,0a1.19,1.19,0,1,0-1.17,1.25A1.18,1.18,0,0,0,222.28,191.67Z" transform="translate(0 0)"/><path class="cls-6" d="M224.34,193.45a.86.86,0,0,1-.25-.6,1,1,0,0,1,.45-.82,1.4,1.4,0,0,1-.56-1.14,1.49,1.49,0,0,1,1.66-1.46,2,2,0,0,1,.84.17H228v.88h-.73a1.45,1.45,0,0,1,.06.41,1.5,1.5,0,0,1-1.68,1.47,2.6,2.6,0,0,1-.4,0,.36.36,0,0,0-.14.26c0,.16.1.25.28.25h1.05c1,0,1.61.56,1.61,1.33,0,.92-.88,1.63-2.17,1.63s-2.11-.46-2.11-1.34A1.23,1.23,0,0,1,224.34,193.45Zm1.52,1.51c.76,0,1.14-.28,1.14-.69s-.19-.54-.69-.54h-1.19a.65.65,0,0,0-.37.59C224.75,194.71,225.13,195,225.86,195Zm.51-4.07a.72.72,0,1,0-.71.68A.65.65,0,0,0,226.37,190.89Z" transform="translate(0 0)"/><path class="cls-6" d="M231.41,189.6h1.05v2.3a1.94,1.94,0,1,1-3.87,0v-2.3h1V192a.85.85,0,0,0,.89,1c.57,0,.88-.37.88-1Z" transform="translate(0 0)"/><path class="cls-6" d="M235.55,193.9a2.16,2.16,0,0,1-2.31-2.23,2.09,2.09,0,0,1,2.13-2.24,1.79,1.79,0,0,1,1.91,1.86,2.32,2.32,0,0,1-.07.59h-2.9a1.13,1.13,0,0,0,1.23,1.09,1.34,1.34,0,0,0,1.07-.5l.74.6A2.19,2.19,0,0,1,235.55,193.9Zm-1.2-2.77h1.9a.86.86,0,0,0-.9-.84A1,1,0,0,0,234.35,191.13Z" transform="translate(0 0)"/><path class="cls-6" d="M255.27,178.5H257c1.2,0,1.93.59,1.93,1.56a1.33,1.33,0,0,1-.61,1.14,1.46,1.46,0,0,1,.94,1.36c0,1.05-.81,1.69-2.14,1.69h-1.81Zm1.16,1v1.3H257a.62.62,0,0,0,.71-.66c0-.4-.26-.64-.71-.64Zm0,2.27v1.54h.72c.54,0,.87-.28.87-.77s-.33-.77-.87-.77Z" transform="translate(0 0)"/><path class="cls-6" d="M262.24,184.42a2.17,2.17,0,0,1-2.3-2.24,2.08,2.08,0,0,1,2.13-2.23,1.78,1.78,0,0,1,1.9,1.85,3.09,3.09,0,0,1-.06.6H261a1.12,1.12,0,0,0,1.23,1.08,1.35,1.35,0,0,0,1.07-.49l.75.59A2.2,2.2,0,0,1,262.24,184.42Zm-1.2-2.78h1.9a.85.85,0,0,0-.9-.84A1,1,0,0,0,261,181.64Zm.6-2.19.85-1.36h1.14l-1,1.36Z" transform="translate(0 0)"/><path class="cls-6" d="M264.91,180.11h1v.33a1.7,1.7,0,0,1,1.23-.49c.9,0,1.61.61,1.61,1.84v2.46h-1.05v-2.42a.8.8,0,0,0-.82-.9,1.12,1.12,0,0,0-1,.62v2.7h-1Z" transform="translate(0 0)"/><path class="cls-6" d="M271.9,184.42a2.17,2.17,0,0,1-2.3-2.24,2.08,2.08,0,0,1,2.13-2.23,1.78,1.78,0,0,1,1.9,1.85,3.09,3.09,0,0,1-.06.6h-2.91a1.12,1.12,0,0,0,1.23,1.08A1.35,1.35,0,0,0,273,183l.75.59A2.2,2.2,0,0,1,271.9,184.42Zm-1.2-2.78h1.9a.85.85,0,0,0-.9-.84A1,1,0,0,0,270.7,181.64Zm.6-2.19.85-1.36h1.14l-1,1.36Z" transform="translate(0 0)"/><path class="cls-6" d="M274.83,180.11v-.43a1.52,1.52,0,0,1,1.62-1.59,2,2,0,0,1,1,.23l-.44.87a.83.83,0,0,0-.5-.16.56.56,0,0,0-.58.62v.46h1.26v.94h-1.26v3.2h-1.06v-3.2h-.77v-.94Z" transform="translate(0 0)"/><path class="cls-6" d="M277.69,178.7a.7.7,0,0,1,.69-.68.68.68,0,0,1,.67.68.69.69,0,0,1-.67.69A.7.7,0,0,1,277.69,178.7Zm.16,1.41h1v4.14h-1Z" transform="translate(0 0)"/><path class="cls-6" d="M283,183l.81.62a2.13,2.13,0,0,1-1.75.84,2.24,2.24,0,1,1,0-4.47,2.15,2.15,0,0,1,1.75.83l-.81.63a1.13,1.13,0,0,0-1-.48,1.25,1.25,0,0,0,0,2.5A1.13,1.13,0,0,0,283,183Z" transform="translate(0 0)"/><path class="cls-6" d="M284.34,178.7A.7.7,0,0,1,285,178a.68.68,0,0,1,.67.68.69.69,0,0,1-.67.69A.7.7,0,0,1,284.34,178.7Zm.16,1.41h1v4.14h-1Z" transform="translate(0 0)"/><path class="cls-6" d="M288.72,184.42a2.17,2.17,0,0,1-2.3-2.24,2.08,2.08,0,0,1,2.13-2.23,1.78,1.78,0,0,1,1.9,1.85,3.09,3.09,0,0,1-.06.6h-2.91a1.12,1.12,0,0,0,1.23,1.08,1.35,1.35,0,0,0,1.07-.49l.75.59A2.2,2.2,0,0,1,288.72,184.42Zm-1.2-2.78h1.91a.87.87,0,0,0-.91-.84A1,1,0,0,0,287.52,181.64Z" transform="translate(0 0)"/><path class="cls-6" d="M291.17,183.32l2.1-2.27h-2v-.94h3.35v.94l-2.1,2.27h2.16v.93h-3.47Z" transform="translate(0 0)"/><path class="cls-6" d="M258.82,189.43a1.7,1.7,0,0,1,1.28.5v-2.36h1.06v6.17H260.1v-.33a1.69,1.69,0,0,1-1.28.49,2.24,2.24,0,0,1,0-4.47Zm.15,3.49a1.33,1.33,0,0,0,1.13-.58V191a1.35,1.35,0,0,0-1.13-.57,1.25,1.25,0,0,0,0,2.5Z" transform="translate(0 0)"/><path class="cls-6" d="M261.91,190.35l.74-2.36h1.19l-1,2.36Z" transform="translate(0 0)"/><path class="cls-6" d="M267.09,189.6h1.06v2.3a1.94,1.94,0,1,1-3.88,0v-2.3h1.05V192a.85.85,0,0,0,.89,1c.57,0,.88-.37.88-1Z" transform="translate(0 0)"/><path class="cls-6" d="M269.22,189.6h1v.33a1.66,1.66,0,0,1,1.22-.5,1.61,1.61,0,0,1,1.61,1.84v2.47h-1.05v-2.42a.8.8,0,0,0-.82-.9,1.08,1.08,0,0,0-1,.62v2.7h-1Z" transform="translate(0 0)"/><path class="cls-6" d="M276.67,192.52a1.22,1.22,0,0,0,.95.55.45.45,0,0,0,.51-.45c0-.72-2-.45-2-1.9a1.35,1.35,0,0,1,1.48-1.29,1.94,1.94,0,0,1,1.51.71l-.69.61a1.09,1.09,0,0,0-.81-.48c-.33,0-.48.18-.48.4,0,.7,2,.46,2,1.89a1.38,1.38,0,0,1-1.5,1.34,2,2,0,0,1-1.66-.76Z" transform="translate(0 0)"/><path class="cls-6" d="M282.75,189.6h1.05v2.3a1.94,1.94,0,1,1-3.87,0v-2.3H281V192a.89.89,0,1,0,1.77,0Z" transform="translate(0 0)"/><path class="cls-6" d="M284.72,188.19a.68.68,0,1,1,.68.68A.69.69,0,0,1,284.72,188.19Zm.15,1.41h1.05v4.14h-1.05Z" transform="translate(0 0)"/><path class="cls-6" d="M287.61,189.6l1.08,3,1.07-3h1.12l-1.51,4.14H288l-1.51-4.14Z" transform="translate(0 0)"/><path class="cls-6" d="M291.3,188.19a.7.7,0,0,1,.69-.68.68.68,0,0,1,0,1.36A.7.7,0,0,1,291.3,188.19Zm.16,1.41h1v4.14h-1Z" transform="translate(0 0)"/><path class="cls-8" d="M343.16,32.35l4.31-1.14-2.92,38.94-5.17.17L342,33.76A1.57,1.57,0,0,1,343.16,32.35Z" transform="translate(0 0)"/><path class="cls-6" d="M344.93,71.26a1.43,1.43,0,0,1-.29,0,1.73,1.73,0,0,1-1.42-1.9l2.87-36.61a1.57,1.57,0,0,1,1.68-1.53,1.73,1.73,0,0,1,1.42,1.9l-2.87,36.61A1.6,1.6,0,0,1,344.93,71.26Z" transform="translate(0 0)"/><path class="cls-6" d="M305.3,73.21v.08h0a2.56,2.56,0,0,0,2.58,2.49l36.37-3.26a2.55,2.55,0,0,0,2.09-2.91,1.1,1.1,0,0,1,0-.18Z" transform="translate(0 0)"/><path class="cls-16" d="M330.62,112.53c-2.38,1.32-9.66-1-9.66-1.21-.1,2-8.15,21.47-8.15,21.47v6s16.58.79,16.34-.68-1.13-.51-4.44-3.28c-.29-.24-4.94-1.32-3.68-4.07C323.57,125.22,329,116,330.62,112.53Z" transform="translate(0 0)"/><path class="cls-6" d="M312.27,139h18.15c.66-.07.81-.6.58-.92-.48-.67-4-2.25-6.3-3.29-4.07.48-11.23-1.09-11.88-2C311.09,135.08,311.9,138.92,312.27,139Z" transform="translate(0 0)"/><path class="cls-10" d="M308.29,98.55c-.25-.74,15.63-7.47,16.34-6.71,1.25,1.37-8.59,26.92-8.59,26.92l11.31,3.46s11.76-29.53,11.27-34.93-6.38-11.53-19.15-7.61S308.29,98.55,308.29,98.55Z" transform="translate(0 0)"/><path class="cls-16" d="M341.15,115.89a60,60,0,0,0-8.93-.68c.33,2.48,1.92,15.17,1.63,16a9.54,9.54,0,0,1-3.79,4.64s12.32,11.12,13.07,9.84-.55-1.12-1.36-5.35c-.07-.38-1.85-6.29-2-9.48C339.6,124.72,341.06,119.27,341.15,115.89Z" transform="translate(0 0)"/><path class="cls-10" d="M337.2,74.36c-1.72-.92-6.18-1-11.09-.63A112.39,112.39,0,0,0,298,79.25l-6.09,2,0-6.25s-19.38-3.24-20.05,1.56c-1,7.23.24,21.92,6.7,25.19C298.62,112,326.72,85.56,326.83,89c.13,4.64,4,21.9,5,29.46,2.78,0,7.56,0,9.63-.43C341.9,103.23,342.09,77,337.2,74.36Z" transform="translate(0 0)"/><path class="cls-6" d="M329.68,136.06l13.86,11.07c.55.36,1,.05,1-.35.05-.82-1.64-4.24-2.79-6.53-3.45-2.21-8-8-7.92-9.12C332.4,132.36,329.45,135.77,329.68,136.06Z" transform="translate(0 0)"/><path class="cls-6" d="M298.32,14c-.46-4.26-.95-8.53-4.48-11.65A9.54,9.54,0,0,0,283.77.75c-10.17,3.83-4.93,12.86-17.89,22-4,2.83-8.47,4.77-11.51,8.57-4.24,5.34-2.64,11.75,1.23,16,18.51,20.49,39.18-7.18,40.66-13.82C297.37,28.55,298.62,16.74,298.32,14Z" transform="translate(0 0)"/><path class="cls-6" d="M294.56,37.92a55.48,55.48,0,0,0-3.07-5c-1.57-2.79-5.62-4.2-5.62-4.2s-1.35,0-2.91.11a1.38,1.38,0,0,1-.29.51c-.59.44-3.94-.12-6.11,1.35-7.25,6.22-5.25,36.37-4.68,45.89l22.11.21S291.2,56.3,295.69,51C298.82,47.37,296.8,42.06,294.56,37.92Z" transform="translate(0 0)"/><path class="cls-16" d="M284.6,18.52s-1.22,8.68-2.06,10.79,4.66,6.61,9.25,8-1.4-4.65-1.21-6.91,1-12.92,1-12.92Z" transform="translate(0 0)"/><path class="cls-16" d="M286.79,2.67a8,8,0,0,0-4.46,3.23c-1.7,2.6-2.87,10.25,2.74,13.83s10-1.48,10.05-6.42S294.14,1.8,286.79,2.67Z" transform="translate(0 0)"/><path class="cls-16" d="M296.41,11.77c-.48,1.19-1.43,1.93-2.13,1.65s-.86-1.47-.38-2.66,1.42-1.93,2.12-1.65S296.88,10.58,296.41,11.77Z" transform="translate(0 0)"/><path class="cls-6" d="M287.62,2.51s-3.52,7.89-6.61,8.6-3,4.68-3,4.68.07-9.18,3-11.28A12.23,12.23,0,0,1,287.62,2.51Z" transform="translate(0 0)"/><path class="cls-16" d="M282.24,12.75c.41,1.28,0,2.54-.83,2.82s-1.9-.54-2.31-1.82,0-2.55.84-2.82S281.83,11.47,282.24,12.75Z" transform="translate(0 0)"/><path class="cls-16" d="M321.77,69.73c-1.32-.48-3.3-.54-3.26-.72.13-.7,6,1.57,5.2.53-.44-.57-4.83-2.61-5.89-2.27S310,69.5,310,69.5l-18.55-4.35s-4.69-10.64-5.14-19.79a25.59,25.59,0,0,0-9.88,3.35c1.63,8.74,5.57,22.92,9.93,25.58,1.83,1.12,23.73-1.34,23.73-1.34a50.54,50.54,0,0,0,5.62-.64c.6-.23,2.14-1.1,3-1.34,1.91-.54,5.3.82,5.31.44A3.65,3.65,0,0,0,321.77,69.73Z" transform="translate(0 0)"/><path class="cls-8" d="M286.41,35.59c-.18-2.81-1.24-5.53-4.24-6.4a6,6,0,0,0-5.42,1.18c-1.76,1.45-2.26,3.76-2.25,5.94a84.81,84.81,0,0,0,1.27,15,31.93,31.93,0,0,1,11.16-3.51S286.65,39.31,286.41,35.59Z" transform="translate(0 0)"/><polygon class="cls-6" points="192.07 371 188.73 371 195.84 309.21 199.18 309.21 192.07 371"/><polygon class="cls-6" points="229.72 371 233.06 371 225.95 309.21 222.61 309.21 229.72 371"/><polygon class="cls-6" points="250.44 371 247.11 371 254.22 309.21 257.55 309.21 250.44 371"/><polygon class="cls-6" points="288.1 371 291.43 371 284.32 309.21 280.99 309.21 288.1 371"/><path class="cls-8" d="M247.92,315.92h-45.5a11,11,0,0,1-10.64-9.65l-7.52-73.44a8.57,8.57,0,0,1,8.67-9.66h45.49a11,11,0,0,1,10.65,9.66l7.52,73.44A8.56,8.56,0,0,1,247.92,315.92Z" transform="translate(0 0)"/><path class="cls-8" d="M260.55,315.92H215.06a11,11,0,0,1-10.65-9.65l-7.52-73.44a8.57,8.57,0,0,1,8.67-9.66h45.5a11,11,0,0,1,10.64,9.66l7.52,73.44A8.55,8.55,0,0,1,260.55,315.92Z" transform="translate(0 0)"/><path class="cls-8" d="M266.65,319.31H202.16a10.26,10.26,0,0,1-10-9.05h0a8,8,0,0,1,8.12-9.05H264.8a10.26,10.26,0,0,1,10,9.05h0A8,8,0,0,1,266.65,319.31Z" transform="translate(0 0)"/><path class="cls-8" d="M282.75,319.31H218.26a10.25,10.25,0,0,1-10-9.05h0a8,8,0,0,1,8.12-9.05H280.9a10.26,10.26,0,0,1,10,9.05h0A8,8,0,0,1,282.75,319.31Z" transform="translate(0 0)"/><path class="cls-17" d="M258.73,248.87,263,260.63s-10.51,2.65-10.78,2.73-2.56-11.57-2.56-11.57Z" transform="translate(0 0)"/><path class="cls-17" d="M271.68,346.22s-7.75,9.3-7.8,10.11.31,9.64,1.23,10.45,3.63,1.38,2.76,2.29c-.66.69-5.72.54-9.08.35-1-.05-2.21-7.87-2.6-9-.56-1.66-1.93-5.42-1.42-6.59A9.84,9.84,0,0,1,257.9,351c1.77-1.15,8.54-10.57,8.54-10.57Z" transform="translate(0 0)"/><path class="cls-6" d="M258,350.94s5.2,14.66,7.24,15.37c.54.19,3.14.66,3.63,1.81a4.88,4.88,0,0,1,0,1.5H258s-1.37-6.46-1.92-9.29c0,0-2.87-6.94-2.55-7.57S258,350.94,258,350.94Z" transform="translate(0 0)"/><path class="cls-17" d="M318.07,350.54s6.33,8.91,5.77,11.74c-.29,1.51-1.62,3.48-.86,4.9a3.85,3.85,0,0,0,1.63,1.78l19.76.32c1.07,0,.36-.68-.51-1.31-1.42-1.05-2.56-1.73-7.1-3.92-.29-.15-1.37-.83-1.76-1.07a13.64,13.64,0,0,1-2.83-2.49c-1.41-1.57-7.65-14.42-7.65-14.42Z" transform="translate(0 0)"/><path class="cls-6" d="M295.16,295.54s-7.84,8.95-9.84,10.37-21.19,36.76-21.19,36.76l6.84,5s17.15-21.39,25.21-32.83c6.81-9.67,4.3-9.06,8.3-14.94a7.86,7.86,0,0,0-1.2-10.26c-.36-.33-.75-.67-1.18-1-5.93-4.95-46.57-10.51-46.57-10.51l-26,2.55s21.23,14.89,22,15.29,29.33,4.56,29.92,4.56S295.16,295.54,295.16,295.54Z" transform="translate(0 0)"/><path class="cls-6" d="M226.9,280.88s-4.46,13.37,2.22,19.62,46.43,5.54,59.5,5.54c0,0,5.36,14.67,5.95,17s26.55,33.09,26.55,33.09l7.14-4.56S300.32,297.33,298.14,295s-33.3-11.89-41-14.07S226.9,280.88,226.9,280.88Z" transform="translate(0 0)"/><path class="cls-6" d="M256.66,202.27c-.1-9.83-7.81-18-17.58-14.63a22,22,0,0,0-7,4.1c-4.52,4.36-6.37,10.28-11,14.48a39.18,39.18,0,0,0,4.81,4.12l2.93-2.93-1.43,4c5.69,3.8,14,7.45,25.79,9.07A51.57,51.57,0,0,0,256.66,202.27Z" transform="translate(0 0)"/><path class="cls-5" d="M256.57,237.4c-4.87-14.78-10.32-14.15-10.32-14.15l4.22,31.07c3-.82,6.92-2.65,9.93-3.5A136.42,136.42,0,0,0,256.57,237.4Z" transform="translate(0 0)"/><path class="cls-5" d="M233.79,220.6s-9-.57-12.53,3.31,7.88,34.56,8.52,39.49-3.29,18.07-3.29,18.07,21.09,4.25,27.11.25c0,0,.65-35.5,0-39s-6-17.87-7.31-19.28S233.79,220.6,233.79,220.6Z" transform="translate(0 0)"/><path class="cls-5" d="M236.4,273.72c-2.17-1.23-7.4-2.28-7.4-2.28-7.1,16.9-4.75,31.53,3.91,33.62s17,3,47,1.78c8-18.5,16.62-20.74,16.62-20.74C282.49,278.85,236.4,273.72,236.4,273.72Z" transform="translate(0 0)"/><path class="cls-17" d="M236.78,208.58s-.05.26-.13.72c-.4,2.16-2,9.33-3,11.3-1.25,2.39,4.31,10,9.67,9.06,1.59-.27-1.35-7-1.21-7.69.27-1.36.64-3.22,1-5.12.22-1.08.43-2.16.63-3.19l1-5.28Z" transform="translate(0 0)"/><path class="cls-17" d="M245.14,191.85a7.23,7.23,0,0,0-6.47,1.74c-2.78,2.71-6.66,11.75-1.56,17.7s11.69,1,13.42-5S253.67,192.85,245.14,191.85Z" transform="translate(0 0)"/><path class="cls-17" d="M252.27,206.42c-.89,1.26-2.16,1.84-2.85,1.3s-.51-2,.38-3.24,2.16-1.84,2.85-1.31S253.16,205.16,252.27,206.42Z" transform="translate(0 0)"/><path class="cls-6" d="M245.7,190.91s-6.28,8.23-9.92,8.13-4.79,4.59-4.79,4.59,2.85-10.78,6.7-12.38A13.19,13.19,0,0,1,245.7,190.91Z" transform="translate(0 0)"/><path class="cls-6" d="M290.48,239.39H261.62a2,2,0,0,0-1.74,1.32l-12.17,38.36a.94.94,0,0,0,.91,1.32h28.86a2,2,0,0,0,1.74-1.32l12.17-38.36A.94.94,0,0,0,290.48,239.39Z" transform="translate(0 0)"/><path class="cls-17" d="M236.4,201.42c.06,1.63-.73,3-1.78,3.07s-1.94-1.21-2-2.84.73-3,1.77-3.07S236.33,199.79,236.4,201.42Z" transform="translate(0 0)"/><path class="cls-17" d="M259.08,267.43c-.19-.17-.16-.29-.16-.29a1.87,1.87,0,0,0-.06-1.91,26.32,26.32,0,0,0-2.75-.81,2.37,2.37,0,0,0-.82-.5c-.32-.05-2.5-1.19-2.94-1.27s-2,.51-2.87.62a10.8,10.8,0,0,0-2.74,1.12c-.31.14-6.24-.81-7.78-1s-2.93-.54-2.93-.54-9.66-2.51-19.81-4.38L219,250.2,209.44,248c-1.18,4.71-3.7,11.94-4,14.18-.63,4.42,14.55,5.62,28,6.47h0l4.15.24c1.73.16,4.6.66,5.93.88h0a20.59,20.59,0,0,1,2.09.6,12.86,12.86,0,0,0,1.84.62,6.11,6.11,0,0,1,.85.53c.21.14,3.27.58,3.76.67a7.86,7.86,0,0,0,1.63-.09l2.05.2c1.51.15,1.17-1.43,1.17-1.43.71.07,1.1-.17,1.25-.56a3.61,3.61,0,0,0,.09-.95c0-.07.25-.1.25-.1.46.06.83-.43.9-.76A1.5,1.5,0,0,0,259.08,267.43Z" transform="translate(0 0)"/><path class="cls-5" d="M208.5,248s4.57-18.06,8.16-22.63,12.22-5.73,15.31-1.61-11.33,27.09-11.33,27.09Z" transform="translate(0 0)"/><path class="cls-5" d="M271.76,251.7a1.78,1.78,0,1,0,2.23-1.63A2,2,0,0,0,271.76,251.7Z" transform="translate(0 0)"/><path class="cls-6" d="M336.32,363.49A20.62,20.62,0,0,1,323.4,363c-.64,1.81-1.49,4.08-1,5.39.55,1.6,1.34,2,2,2,5.48.14,20.08.33,24.26.39a.68.68,0,0,0,.53-1.12C348.14,368.39,336.77,363.76,336.32,363.49Z" transform="translate(0 0)"/><path class="cls-17" d="M244.4,209.65,239.85,208a2.11,2.11,0,0,0,1.48,2.53C243.74,211.5,244.4,209.65,244.4,209.65Z" transform="translate(0 0)"/><path class="cls-17" d="M282.64,272.05a25.27,25.27,0,0,0,.83-3.17c.1-.31.22-.74.31-1.13a1.05,1.05,0,0,0-.64-1.2,7.58,7.58,0,0,0-1.88-.62c-.48,0-1.15,1.05-1.1,1.47,0,0,0,.11-.28.14a1.45,1.45,0,0,0-.84.7.91.91,0,0,0,.29,1.09s.16.14.15.22a2.81,2.81,0,0,0-.45.79c-.1.4.07.79.67,1.13,0,0-1.14,1.06.13,1.77l.58.33a1.25,1.25,0,0,0,1.7-.5Z" transform="translate(0 0)"/><path class="cls-10" d="M506.71,211.36s15.77,8.74,17.07,23.52.11,76.16-31.51,91.26-73.48,11.62-89.5,10-24.91-12.54-26.89-20-5.19-35.42,11.66-44.43,34.56-22.81,52.25-36.25S487.79,200,506.71,211.36Z" transform="translate(0 0)"/><path class="cls-18" d="M392.51,276.74s4.26.22,4.78,9c0,0-9.87,8.84-23.2,10.95-1,.16,1.4-6.83,1.76-7.78C377.56,284.39,383,281.48,392.51,276.74Z" transform="translate(0 0)"/><path class="cls-6" d="M440.45,266.44h-9S403.9,236,385.82,232.92c0,0-12.59,16.07.67,46.09a4.38,4.38,0,0,0,6.27,2.06,3.51,3.51,0,0,0,1.43-1.71l-1.06-25.63s23.51,20.57,27.6,24.54S445.59,279.82,440.45,266.44Z" transform="translate(0 0)"/><path class="cls-18" d="M353.61,330.36A33.73,33.73,0,0,1,372,322.3l2.93,1.79a31.93,31.93,0,0,1-5.28,5.67c-3.14,1.82-8,4.28-12,4.82S353.21,332.74,353.61,330.36Z" transform="translate(0 0)"/><path class="cls-6" d="M375.85,288.89c2.32.75,3.34,4,9.22,1.86a52.26,52.26,0,0,0,12.1-6.37c.05.42.09.87.12,1.34,0,0-10.41,9.9-23.74,12a1.33,1.33,0,0,1-1.43-1.79A33.46,33.46,0,0,1,375.85,288.89Z" transform="translate(0 0)"/><path class="cls-6" d="M350.78,333.18a31.33,31.33,0,0,1,2.83-2.82c-.4,2.38.18,4.74,4.08,4.22s8.85-3,12-4.82c-3.93,3.35-9.91,6.9-17.45,6.69A2,2,0,0,1,350.78,333.18Z" transform="translate(0 0)"/><path class="cls-6" d="M440.12,272.94l-42.06.45s-24,19.88-28.38,50.18c0,0-.72,2.23,3.62,2.61a83.34,83.34,0,0,0,24-26.25c11.61-20.57,34.61-11.31,34.61-11.31,7.56-5.45,18.24-6.56,26.29-8.37Z" transform="translate(0 0)"/><path class="cls-19" d="M439.12,239.06s-4.52,22.69-26.71,31.67l-7.89-.93-1.86,3,18.51.59A50.62,50.62,0,0,0,445.38,250C445.65,249.44,450.27,239.91,439.12,239.06Z" transform="translate(0 0)"/><path class="cls-5" d="M436.7,272.57s5.15-14,6.25-27.6a57.92,57.92,0,0,0-6.12-4.63,1.7,1.7,0,0,1-.66-2.21c1.73-3.59,12.2-17.67,13-17.86,4.26-1.07,21.74-9.38,34.05,7.46,5.29,7.23-1,29.48-25,52.52l-4.95.94Z" transform="translate(0 0)"/><path class="cls-19" d="M456.54,248s-14.31,16.94-32.6,19.41c0,0-4.72-4.31-8.24-2.77s-8.33,8.33-8.33,8.33h23.48s22.21-.78,33.3-14.25C463.26,254.05,460.59,251.24,456.54,248Z" transform="translate(0 0)"/><path class="cls-19" d="M464.88,208.39,468,218.83a1.13,1.13,0,0,1-.44,1.27,11.63,11.63,0,0,1-10.85,1.09,1.7,1.7,0,0,1-1.1-1.46l-.74-9.09Z" transform="translate(0 0)"/><path class="cls-19" d="M451.7,191s-5.64,9.37-4.51,14.57,9,8.37,16.26,3.77L468,195.05Z" transform="translate(0 0)"/><path class="cls-8" d="M462.8,202.44a.54.54,0,0,1-.27-.77,14.14,14.14,0,0,0,1.74-4.17s1.2-.85-3.25-1.7-11.07-2.18-12.62-5.86S450,177,456,184.07a.54.54,0,0,0,.85,0c.87-1.25,3.18-3.86,6.62-2.5,3.22,1.27,3.68,3.56,3.69,4.73a.53.53,0,0,0,.65.52c1.59-.38,5.4-.82,7.37,3,1.62,3.17.75,5-.08,6a.53.53,0,0,0,.27.87c1.06.28,2.45,1.1,2.43,3.56,0,3.41-3.84,3.28-4.93,3.18a.52.52,0,0,0-.46.19c-.88,1.07-4.86,5.61-9.35,6.35a.54.54,0,0,1-.6-.69l1.69-5.77a.54.54,0,0,0-.32-.66Z" transform="translate(0 0)"/><path class="cls-19" d="M462.06,203.28s4.75-3.6,5.24-.78-4.23,4.32-6.65,3.37Z" transform="translate(0 0)"/><path class="cls-5" d="M408.55,274.33,398,239.16a3.59,3.59,0,0,0-3.19-2.55l-14.24-1a2,2,0,0,0-2,2.69l11.78,33.58a3,3,0,0,0,2.5,2l14,1.56Z" transform="translate(0 0)"/><path class="cls-6" d="M389.1,251.08c.79,1.59,2.15,2.52,3,2.08s1-2.09.18-3.68-2.14-2.52-3-2.08S388.32,249.49,389.1,251.08Z" transform="translate(0 0)"/><path class="cls-5" d="M406.83,275.42h.06l29.88-1.51a1.34,1.34,0,0,0-.14-2.67l-29.87,1.51a1.34,1.34,0,0,0,.07,2.68Z" transform="translate(0 0)"/><path class="cls-18" d="M447.78,198.22l3.16-2.26s1,5.17,2.78,6.78,5.42,1.61,5.42,1.61l1.94,6.59s-6.33,1.42-9,.64-5.61-3.74-5.68-5.68S447.78,198.22,447.78,198.22Z" transform="translate(0 0)"/><polygon class="cls-18" points="456.88 205.19 465.76 200.75 466.62 201.51 466.21 201.43 465.24 201.53 457.12 205.71 456.88 205.19"/><polygon class="cls-18" points="459.45 209.45 463.88 206.04 464.76 205.76 464.43 206.38 459.65 209.7 459.45 209.45"/><polygon class="cls-8" points="582.59 186.6 581.03 185.83 571.12 211.75 538.56 212.39 539.59 213.98 574.01 214.89 583.12 186.96 582.59 186.6"/><path class="cls-8" d="M552.78,316.5s.59,9.57,2.45,9.7c.24,0,9.39,0,9.39,0l11.67-.06s-.07-2.82-3.49-3.41-9.12-3-11.19-7.51C559.44,310.5,552.78,316.5,552.78,316.5Z" transform="translate(0 0)"/><path class="cls-20" d="M546.55,203.3s5.51,3.14,7.05,3.14,7.6-1.17,9.29-.31,4.75,4.33,5.32,5.47c1,2-4.15,1.13-6.6-.6a1.57,1.57,0,0,0-1.22-.26c-1.27.28-3.91.76-5.18.29-1.71-.63-10.72-1.34-10.72-1.34Z" transform="translate(0 0)"/><path class="cls-10" d="M504.62,160.62s5.71,40.61,15.17,44.24c4.67,1.8,25.3,5.87,31.4,6.28,0,0,1.5-1.22,1.13-6.15,0,0-21.61-7.94-24.68-12.26-4.57-6.42,2.83-26.23-2.9-32.27S509.35,151.84,504.62,160.62Z" transform="translate(0 0)"/><path class="cls-6" d="M506.54,246.17a72.46,72.46,0,0,0,5.58,8c6.14,7.75,12.83,14.14,14,20.18a27.2,27.2,0,0,0,1.08,3.87c.49,1.38,1.09,2.84,1.78,4.34a134.15,134.15,0,0,0,10.4,17.77c6.72,10,13,18.29,13,18.29l11.6-.5c-.47-1.16-5.53-14.92-12.29-31.74l-8.49-21.09-1.13-2.79-2.54-6.31-11.41-28.36s-25.4-9.62-28-3.39C498,229.57,499.72,234.61,506.54,246.17Z" transform="translate(0 0)"/><path class="cls-8" d="M525.92,289.15s-8.07,5.19-7.28,6.87c.1.22,4.56,8.21,4.56,8.21L529,314.39a3.8,3.8,0,0,0,1.28-4.71c-1.15-3.27-1.84-9.42,1.09-13.43C534.4,292,525.92,289.15,525.92,289.15Z" transform="translate(0 0)"/><path class="cls-6" d="M529.87,298.26s-5-4.44-5.93-7.7c0,0,20.77-24.9,25.28-30.48.21-.25.16-.53-.12-.84-3.4-3.84-41.2-11.64-46.14-19.32a23.61,23.61,0,0,1-3.19-7.36,17.46,17.46,0,0,1-.24-7.93l37.75-1.09s31.44,19.57,35,32.91S529.87,298.26,529.87,298.26Z" transform="translate(0 0)"/><path class="cls-6" d="M549.1,259.24c-3.4-3.84-41.2-11.64-46.14-19.32a23.61,23.61,0,0,1-3.19-7.36v-4.78l16-2.52s4.55,14,18,19.25C546.46,249.43,548.85,258.15,549.1,259.24Z" transform="translate(0 0)"/><path class="cls-20" d="M527,158.06c-7.63,2-20.3-5.1-20.3-5.1a18.76,18.76,0,0,0,6.74-10.56c.1-.37.18-.75.25-1.13l3.93-.83,5.83,5.22a49.67,49.67,0,0,1-.86,5.9c-.13.66-.28,1.35-.44,2.1A17.94,17.94,0,0,1,527,158.06Z" transform="translate(0 0)"/><path class="cls-10" d="M498.57,189.72c1.09,14.71-.35,37.09.89,41,1.08,3.35,13.28,1.36,18.15.24,1.8-.41,4-1,6.24-1.7,6.29-1.95,13.15-4.73,13.88-6.79a1.27,1.27,0,0,0,.07-.24,2,2,0,0,0,0-.87c-.25-1-1.19-2.19-1.3-4.8-.13-2.91-.11-6.33-.22-10a11.07,11.07,0,0,0-.06-1.28v-.38c-.11-4.11-.32-8.43-.57-12.72-.16-2.69-.34-5.35-.55-7.91a105.45,105.45,0,0,0-2.27-16.15,26,26,0,0,0-8.34-12.87l-2.32-2a13.47,13.47,0,0,1-8.42-1.12c-3-1.43-4-2.45-4.56-2.06C502.26,155.36,497.28,171.73,498.57,189.72Z" transform="translate(0 0)"/><path class="cls-10" d="M523.85,229.22c6.29-1.95,13.15-4.73,13.88-6.79a1.27,1.27,0,0,0,.07-.24c0-.29,0-.58,0-.87-.25-1-1.19-2.19-1.3-4.8-.13-2.91-.11-6.33-.22-10a11.07,11.07,0,0,0-.06-1.28v-.38l-25.44-32.41S493.68,208,523.85,229.22Z" transform="translate(0 0)"/><path class="cls-20" d="M523.4,145.66a49.67,49.67,0,0,1-.86,5.9c-5.7-1.84-8.28-7-9.15-9.16.1-.37.18-.75.25-1.13l3.93-.83Z" transform="translate(0 0)"/><path class="cls-20" d="M524.16,149s-12.42-2.07-11-9.79S513.91,126,521.9,127s9,4.22,9.15,6.91S527.43,149.29,524.16,149Z" transform="translate(0 0)"/><rect class="cls-6" x="577.7" y="185.73" width="1.15" height="30.16" transform="translate(1066.18 570.5) rotate(-162)"/><rect class="cls-6" x="542.53" y="213.1" width="31.65" height="1.89" transform="translate(1112.02 439.97) rotate(-178.78)"/><path class="cls-20" d="M543.15,216.17s10.17,2.68,14,2.4,7-2.1,7.46-3,1.49-2.63-1.11-2.32-6.13.86-6.24.36,2.11-.45,2.11-.45.67-1-.17-1-3.32-.71-4.24-.25-1.76,2.15-2.44,2.08-8.5-3.53-8.5-3.53Z" transform="translate(0 0)"/><path class="cls-10" d="M507.14,162.28s1.2,41,10.2,45.65c4.44,2.3,24.5,8.62,30.52,9.7,0,0,1.62-1,1.8-6,0,0-20.61-10.27-23.18-14.9-3.84-6.88,5.71-25.76.68-32.39S512.81,154.08,507.14,162.28Z" transform="translate(0 0)"/><path class="cls-6" d="M513.39,142.4a5.91,5.91,0,0,1,1.49-4.17s-.56-2.65.49-3.09,1.26,1.79,1.75,1.44a10.73,10.73,0,0,0,3.54-4.46c.92-2.45,9.33.52,10.31,1s4.13-1.18,4.74-2.49a18.55,18.55,0,0,1-2.54-2.45c-.78-1-6.3-8.14-14-6.13s-8.75,5.69-8.31,8.84S510.24,141.34,513.39,142.4Z" transform="translate(0 0)"/><path class="cls-10" d="M106.88,250.5c-.1.19-3.19,2.37-3.19,2.37s-2.15,11.83,1.79,17.66S122.85,266,122.85,266s7.56-1.18,11.35-16c.87-3.41-4.57-.82-10.64-.19C115.74,250.57,106.88,250.5,106.88,250.5Z" transform="translate(0 0)"/><path class="cls-6" d="M94.15,284a26,26,0,0,1,7.84-3.65c1.05-.28,6.74,1.37,10.25,1.29,4.82-.11,9.73-2.31,13.71-1.32a28.62,28.62,0,0,1,9,3.6c5.59,4,8.87,11.38,10.87,18.72a25.7,25.7,0,0,1-8.55,5.61l-.88,35.66-21.09,10.8L91.27,342.64l.86-34.85s-7.64-3.56-8.2-4.86S87.41,288.66,94.15,284Z" transform="translate(0 0)"/><path class="cls-17" d="M84.28,302.77S74,331.17,97.4,342.85c4.85-.65,3-8.7,3-8.7s-10.15-2.25-7.1-25.94C90.48,305.9,84.28,302.77,84.28,302.77Z" transform="translate(0 0)"/><path class="cls-17" d="M145.37,302.77s7,29.65-13.12,40.08c-4.85-.65-3-8.7-3-8.7s8.18-4,7.1-25.94C139.17,305.9,145.37,302.77,145.37,302.77Z" transform="translate(0 0)"/><rect class="cls-10" x="90.99" y="313.61" width="46.25" height="31.23" rx="10.14"/><path class="cls-6" d="M116.84,322.07a2.81,2.81,0,0,1-2.3,3.4,3,3,0,0,1-3.44-2.55c-.25-1.66.51-3.31,2.17-3.55A3.25,3.25,0,0,1,116.84,322.07Z" transform="translate(0 0)"/><path class="cls-8" d="M157.53,354.1c-5.3-1.22-17.53-.56-17.53-.56l-.5,1.35-.82,6.69s11.65,2.1,17.39,2.1a5.44,5.44,0,0,0,1.61-.24,6,6,0,0,0,.51-.5C160.63,360.28,159.92,356.37,157.53,354.1Z" transform="translate(0 0)"/><path class="cls-17" d="M136.49,353.16l2.07.09a4,4,0,0,1,2.91,1.5,4.94,4.94,0,0,1,1.06,3.36,3.85,3.85,0,0,1-1.12,2.56,3.14,3.14,0,0,1-2.42.92l-3.17-.23Z" transform="translate(0 0)"/><path class="cls-8" d="M66.83,353.46c5.32-1.06,17.54,0,17.54,0l.46,1.36.66,6.72s-11.7,1.75-17.44,1.56a5.12,5.12,0,0,1-1.61-.29c-.17-.16-.33-.33-.49-.51A6.3,6.3,0,0,1,66.83,353.46Z" transform="translate(0 0)"/><path class="cls-17" d="M87.89,353.16l-2.07,0a4,4,0,0,0-2.95,1.41,4.87,4.87,0,0,0-1.15,3.33,3.88,3.88,0,0,0,1.06,2.58,3.1,3.1,0,0,0,2.4,1l3.17-.13Z" transform="translate(0 0)"/><path class="cls-6" d="M159,333.1c-2.4-5.52-8.28-6.42-13.27-3.83-.09.11-31.73,16.33-59.64,23.44a30.25,30.25,0,0,1,1.3,8,17.32,17.32,0,0,1,0,1.77c21.4-1.1,44.63-8.24,64.58-14.51A11,11,0,0,0,159,333.1Z" transform="translate(0 0)"/><path class="cls-6" d="M136.64,361.09a18.23,18.23,0,0,1,1.8-8.62c0-.12.08-.24.12-.36-1.6-.49-3.65-1.16-6.36-2.08a305,305,0,0,1-49.36-21.51c-5.61-3.07-12-1-13.77,5.62-1.61,5.92,2,10.65,7.25,12.75,18,7.21,44.31,13.8,60.35,14.87C136.66,361.54,136.64,361.31,136.64,361.09Z" transform="translate(0 0)"/><path class="cls-17" d="M102,280.37a12.23,12.23,0,0,0,12.48,9.05c10.54-.2,11.48-9.08,11.48-9.08l-6.89-1.47-.57-7.67-10.36.77-.19,7.28Z" transform="translate(0 0)"/><path class="cls-17" d="M109.59,249.47s-11.87,23,2.21,28.56c9.93,3.93,16.15-15.27,14.3-20.47-2.88-8-4.77-7.08-4.77-7.08Z" transform="translate(0 0)"/><path class="cls-5" d="M126.09,257.56c0-.09-.06-.17-.08-.25,0,.42.07.87.07,1.32,0-.32,0-.65,0-1A.38.38,0,0,0,126.09,257.56Z" transform="translate(0 0)"/><path class="cls-5" d="M126,257.31l-.06-.47C126.56,257.86,125.38,255.49,126,257.31Z" transform="translate(0 0)"/><path class="cls-10" d="M131.59,243.29c6.36-1.44,1.94,18.23-7.52,15s-13.88-5.2-15.35-2.6-3.94,13.23-4.75,7.72c-.77-5.16-1.51-14.6,3.47-16.66,2.82-1.17,5.3,1.36,7.25.73,3-1,5.88-1,7.67,0C125.72,249.44,127.55,244.21,131.59,243.29Z" transform="translate(0 0)"/><path class="cls-17" d="M107.66,259.51s-2.06-3.1-3,.07-.34,7.56,1.54,5.52S107.66,259.51,107.66,259.51Z" transform="translate(0 0)"/><path class="cls-5" d="M104.76,265.79l3.54-3.86,5.43,5.12s6-2.7,6.66-2.7a9.6,9.6,0,0,1,1.47.14l.77,4.31,2.11-.28s-2.38,5.22-3.23,6-1.26,2.25-2.59,2.53-2.94,2-6,1.47c-5-.91-7.29-6-7.64-7.64A42.11,42.11,0,0,1,104.76,265.79Z" transform="translate(0 0)"/><polygon class="cls-5" points="107.34 258.45 109.18 264.46 111.33 267.17 110.7 267.23 108.65 264.37 106.98 258.41 107.34 258.45"/><g class="cls-21"><path class="cls-22" d="M225.43,150.78h.85v-5.2a2.4,2.4,0,0,1,2.18-1.4,2.35,2.35,0,0,1,.67.1v-.82a2.09,2.09,0,0,0-.61-.08,2.69,2.69,0,0,0-2.24,1.18v-1h-.85Zm-6-7.26v.76h1.37v6.5h.86v-6.5h2.73v-.76h-2.73v-1a1.58,1.58,0,0,1,1.59-1.79,1.87,1.87,0,0,1,1.14.36l.37-.72a3,3,0,0,0-1.54-.41,2.36,2.36,0,0,0-2.42,2.57v1Zm-2.22,7.41a.69.69,0,0,0,.72-.7.72.72,0,0,0-1.44,0,.69.69,0,0,0,.72.7m-8-7.41,2.95,7.26h1.13l3-7.26h-.92l-2.6,6.44-2.6-6.44ZM207,147.7a2.25,2.25,0,0,1-2.26,2.56c-1.37,0-2.28-.92-2.28-2.56v-4.18h-.85v4.16c0,2.16,1.25,3.38,3.13,3.38s3.09-1.22,3.09-3.38v-4.16H207Zm-11.12,2.56a3.11,3.11,0,1,1,3-3.11,3,3,0,0,1-3,3.11m0-7a3.92,3.92,0,1,0,3.9,3.92,3.85,3.85,0,0,0-3.9-3.92M185,152a1.87,1.87,0,0,1,1.07-1.59h2.36c1.54,0,2,.63,2,1.42,0,1.1-1.12,1.77-2.79,1.77S185,153,185,152m2.39-4.39a1.86,1.86,0,1,1,0-3.71,1.78,1.78,0,0,1,1.9,1.85,1.8,1.8,0,0,1-1.9,1.86m-3.24,4.47c0,1.39,1.43,2.26,3.47,2.26s3.63-1.08,3.63-2.55c0-1.26-.82-2.16-2.79-2.16h-2.22c-.53,0-.69-.26-.69-.59a1.14,1.14,0,0,1,.66-.92,3.34,3.34,0,0,0,1.17.21,2.58,2.58,0,0,0,2.26-4.1h1.81v-.75h-2.72a3.08,3.08,0,0,0-1.35-.3,2.61,2.61,0,0,0-2.75,2.57,2.48,2.48,0,0,0,1,2,1.67,1.67,0,0,0-.91,1.39,1.22,1.22,0,0,0,.53,1,2.31,2.31,0,0,0-1.12,1.89m-2.07-1.19a.7.7,0,0,0,.72-.7.71.71,0,0,0-.72-.71.7.7,0,0,0-.72.71.69.69,0,0,0,.72.7" transform="translate(0 0)"/><path class="cls-22" d="M298.76,133.32c0,1.77.87,2.79,2.68,2.79a3.37,3.37,0,0,0,1.4-.23v-1.6a2.88,2.88,0,0,1-1.08.16c-.72,0-1.15-.32-1.15-1.12v-3h2.21v-1.64h-2.21v-1.82h-1.85v1.82h-1.35v1.64h1.35ZM289.58,136h1.82v-4.74a2,2,0,0,1,1.69-1.08,1.4,1.4,0,0,1,1.44,1.57V136h1.84v-4.32c0-2.15-1.25-3.23-2.82-3.23a3,3,0,0,0-2.15.86v-.57h-1.82ZM283,133.92c0-.45.32-.76,1.08-.89l1.73-.29v1a2,2,0,0,1-1.8,1c-.62,0-1-.32-1-.81m.64,2.26a2.89,2.89,0,0,0,2.17-.92V136h1.83v-4.7c0-1.6-1.08-2.85-3.18-2.85a3.64,3.64,0,0,0-3,1.44l1.34,1a2,2,0,0,1,1.64-.86,1.26,1.26,0,0,1,1.41,1.25v.19l-2.21.37c-1.56.26-2.41,1.08-2.41,2.18a2.18,2.18,0,0,0,2.45,2.17m-5.92-.21h1.83v-7.26h-1.83Zm.92-8.53a1.2,1.2,0,1,0-1.19-1.19,1.2,1.2,0,0,0,1.19,1.19m-8.82,4.9a2,2,0,0,1,2-2.19,2.35,2.35,0,0,1,2,1v2.36a2.37,2.37,0,0,1-2,1,2,2,0,0,1-2-2.19m-1.92,0a3.68,3.68,0,0,0,3.69,3.91,3,3,0,0,0,2.24-.86V136h1.85v-10.8h-1.85v4.11a3,3,0,0,0-2.24-.86,3.68,3.68,0,0,0-3.69,3.92m-3.21.49a1.56,1.56,0,1,1-3.1,0v-4.12h-1.84v4a3.39,3.39,0,1,0,6.78,0v-4h-1.84Zm-10.33.49c0,1.77.87,2.79,2.68,2.79a3.37,3.37,0,0,0,1.4-.23v-1.6a2.85,2.85,0,0,1-1.08.16c-.72,0-1.15-.32-1.15-1.12v-3h2.22v-1.64H256.2v-1.82h-1.85v1.82H253v1.64h1.35Zm-5.47-3.4a1.51,1.51,0,0,1,1.59,1.47h-3.34a1.68,1.68,0,0,1,1.75-1.47m3.52,4.86-1.31-1a2.33,2.33,0,0,1-1.88.86,2,2,0,0,1-2.14-1.9h5.08a4.57,4.57,0,0,0,.12-1,3.14,3.14,0,0,0-3.34-3.25,3.64,3.64,0,0,0-3.73,3.92,3.79,3.79,0,0,0,4,3.91,3.85,3.85,0,0,0,3.17-1.47m-9.28,1.36a1.27,1.27,0,0,0,1.27-1.25,1.29,1.29,0,0,0-1.27-1.26,1.27,1.27,0,0,0-1.26,1.26,1.25,1.25,0,0,0,1.26,1.25m-4.35,1.48,3.66-8.91H240.5l-2,4.88-2-4.88h-2l3.06,7.24-.41,1a1.4,1.4,0,0,1-1.47,1,2.43,2.43,0,0,1-.89-.18v1.62a3.33,3.33,0,0,0,1.3.23,2.76,2.76,0,0,0,2.7-1.95m-10.25-2.71a3.57,3.57,0,0,0,2.91,1.34,2.42,2.42,0,0,0,2.62-2.36c0-2.5-3.47-2.07-3.47-3.31,0-.37.27-.69.85-.69a1.9,1.9,0,0,1,1.41.83l1.21-1.06a3.33,3.33,0,0,0-2.63-1.24,2.37,2.37,0,0,0-2.6,2.25c0,2.55,3.47,2.07,3.47,3.34,0,.43-.3.77-.89.77a2.16,2.16,0,0,1-1.67-1Zm-4.59-4.76a2.2,2.2,0,0,1,0,4.38,2.33,2.33,0,0,1-2-1.06V131.2a2.32,2.32,0,0,1,2-1m-3.83,9.36h1.83v-4.13a3,3,0,0,0,2.26.87,3.92,3.92,0,0,0,0-7.83,3,3,0,0,0-2.26.88v-.59H220.1Zm-5-9.59a1.51,1.51,0,0,1,1.59,1.47h-3.34a1.68,1.68,0,0,1,1.75-1.47m3.52,4.86-1.31-1a2.33,2.33,0,0,1-1.88.86,2,2,0,0,1-2.14-1.9h5.08a4.57,4.57,0,0,0,.12-1,3.14,3.14,0,0,0-3.34-3.25,3.64,3.64,0,0,0-3.73,3.92,3.79,3.79,0,0,0,4,3.91,3.85,3.85,0,0,0,3.17-1.47m-12.1-1.46c0,1.77.86,2.79,2.68,2.79a3.4,3.4,0,0,0,1.4-.23v-1.6a2.88,2.88,0,0,1-1.08.16c-.72,0-1.16-.32-1.16-1.12v-3h2.22v-1.64h-2.22v-1.82h-1.84v1.82h-1.35v1.64h1.35ZM197.3,136h1.83v-4.74a2,2,0,0,1,1.69-1.08,1.4,1.4,0,0,1,1.44,1.57V136h1.84v-4.32c0-2.15-1.25-3.23-2.82-3.23a3,3,0,0,0-2.15.86v-.57H197.3Zm-6.58-2.05c0-.45.32-.76,1.08-.89l1.73-.29v1a2,2,0,0,1-1.8,1c-.62,0-1-.32-1-.81m.64,2.26a2.89,2.89,0,0,0,2.17-.92V136h1.83v-4.7c0-1.6-1.08-2.85-3.18-2.85a3.64,3.64,0,0,0-3,1.44l1.34,1a2,2,0,0,1,1.64-.86,1.26,1.26,0,0,1,1.41,1.25v.19l-2.22.37c-1.55.26-2.4,1.08-2.4,2.18a2.18,2.18,0,0,0,2.45,2.17m-10.64-1.61a4.53,4.53,0,0,0,3.73,1.68,3.08,3.08,0,0,0,3.35-3c0-3.46-4.58-2.94-4.58-4.77a1.09,1.09,0,0,1,1.2-1.07,2.69,2.69,0,0,1,2,1.27l1.5-1.35a4.45,4.45,0,0,0-3.53-1.7,3,3,0,0,0-3.25,2.92c0,3.41,4.58,2.91,4.58,4.77,0,.72-.49,1.15-1.3,1.15a2.89,2.89,0,0,1-2.23-1.24Z" transform="translate(0 0)"/><path class="cls-23" d="M225.43,150.19h.85V145a2.4,2.4,0,0,1,2.18-1.4,2.35,2.35,0,0,1,.67.1v-.82a2.1,2.1,0,0,0-.61-.09,2.69,2.69,0,0,0-2.24,1.18v-1h-.85Zm-6-7.25v.76h1.37v6.49h.86V143.7h2.73v-.76h-2.73v-1a1.58,1.58,0,0,1,1.59-1.79,1.87,1.87,0,0,1,1.14.36l.37-.72a3,3,0,0,0-1.54-.42,2.37,2.37,0,0,0-2.42,2.58v1Zm-2.22,7.41a.71.71,0,1,0-.72-.7.69.69,0,0,0,.72.7m-8-7.41,2.95,7.25h1.13l3-7.25h-.92l-2.6,6.43-2.6-6.43ZM207,147.11a2.26,2.26,0,0,1-2.26,2.57c-1.37,0-2.28-.93-2.28-2.57v-4.17h-.85v4.16c0,2.16,1.25,3.38,3.13,3.38s3.09-1.22,3.09-3.38v-4.16H207Zm-11.12,2.57a3.12,3.12,0,1,1,3-3.12,3,3,0,0,1-3,3.12m0-7a3.92,3.92,0,1,0,3.9,3.91,3.85,3.85,0,0,0-3.9-3.91M185,151.46a1.88,1.88,0,0,1,1.07-1.6h2.36c1.54,0,2,.64,2,1.43,0,1.09-1.12,1.77-2.79,1.77s-2.61-.62-2.61-1.6m2.39-4.39a1.86,1.86,0,1,1,0-3.72,1.86,1.86,0,1,1,0,3.72m-3.24,4.46c0,1.4,1.43,2.26,3.47,2.26s3.63-1.08,3.63-2.55c0-1.25-.82-2.16-2.79-2.16h-2.22c-.53,0-.69-.25-.69-.59a1.17,1.17,0,0,1,.66-.92,3.34,3.34,0,0,0,1.17.22,2.61,2.61,0,0,0,2.76-2.58,2.66,2.66,0,0,0-.5-1.53h1.81v-.74h-2.72a3.08,3.08,0,0,0-1.35-.31,2.61,2.61,0,0,0-2.75,2.58,2.48,2.48,0,0,0,1,2,1.64,1.64,0,0,0-.91,1.38,1.24,1.24,0,0,0,.53,1,2.28,2.28,0,0,0-1.12,1.88m-2.07-1.18a.71.71,0,1,0,0-1.41.71.71,0,1,0,0,1.41" transform="translate(0 0)"/><path class="cls-23" d="M298.76,132.73c0,1.77.87,2.8,2.68,2.8a3.55,3.55,0,0,0,1.4-.23v-1.6a2.88,2.88,0,0,1-1.08.16,1,1,0,0,1-1.15-1.13v-3h2.21v-1.64h-2.21v-1.82h-1.85v1.82h-1.35v1.64h1.35Zm-9.18,2.65h1.82v-4.73a1.93,1.93,0,0,1,1.69-1.08,1.39,1.39,0,0,1,1.44,1.56v4.25h1.84v-4.32c0-2.14-1.25-3.22-2.82-3.22a3,3,0,0,0-2.15.86v-.57h-1.82Zm-6.58-2c0-.45.31-.77,1.08-.9l1.72-.28v1a2,2,0,0,1-1.8,1c-.62,0-1-.31-1-.8m.63,2.26a2.89,2.89,0,0,0,2.17-.92v.7h1.83v-4.69c0-1.6-1.08-2.85-3.18-2.85a3.61,3.61,0,0,0-3,1.44l1.34,1a2,2,0,0,1,1.64-.86,1.26,1.26,0,0,1,1.41,1.25v.19l-2.21.37c-1.56.26-2.41,1.08-2.41,2.17a2.19,2.19,0,0,0,2.45,2.18m-5.92-.22h1.83v-7.25h-1.83Zm.92-8.52a1.2,1.2,0,1,0-1.19-1.2,1.2,1.2,0,0,0,1.19,1.2m-8.82,4.89a2,2,0,0,1,2-2.18,2.36,2.36,0,0,1,2,1v2.36a2.35,2.35,0,0,1-2,1,2,2,0,0,1-2-2.19m-1.92,0a3.68,3.68,0,0,0,3.69,3.92,3,3,0,0,0,2.24-.86v.57h1.85v-10.8h-1.85v4.12a3,3,0,0,0-2.24-.86,3.68,3.68,0,0,0-3.69,3.91m-3.21.49a1.56,1.56,0,1,1-3.1,0v-4.11h-1.84v4a3.39,3.39,0,1,0,6.78,0v-4h-1.84Zm-10.33.49c0,1.77.87,2.8,2.68,2.8a3.55,3.55,0,0,0,1.4-.23v-1.6a2.88,2.88,0,0,1-1.08.16,1,1,0,0,1-1.15-1.13v-3h2.22v-1.64H256.2v-1.82h-1.85v1.82H253v1.64h1.35Zm-5.47-3.4a1.52,1.52,0,0,1,1.59,1.47h-3.34a1.68,1.68,0,0,1,1.75-1.47m3.52,4.87-1.31-1a2.34,2.34,0,0,1-1.88.87,2,2,0,0,1-2.14-1.9h5.08a4.72,4.72,0,0,0,.12-1,3.14,3.14,0,0,0-3.34-3.25,3.64,3.64,0,0,0-3.73,3.91,3.79,3.79,0,0,0,4,3.92,3.85,3.85,0,0,0,3.17-1.47" transform="translate(0 0)"/><path class="cls-24" d="M243.12,135.56a1.26,1.26,0,1,0,0-2.51,1.26,1.26,0,1,0,0,2.51" transform="translate(0 0)"/><path class="cls-23" d="M238.77,137l3.66-8.91H240.5l-2,4.88-2-4.88h-2l3.06,7.24-.41,1a1.38,1.38,0,0,1-1.47,1,2.43,2.43,0,0,1-.89-.17v1.61a3.15,3.15,0,0,0,1.3.23,2.77,2.77,0,0,0,2.7-1.94m-10.25-2.71a3.6,3.6,0,0,0,2.91,1.34,2.42,2.42,0,0,0,2.62-2.36c0-2.51-3.47-2.07-3.47-3.31,0-.38.27-.69.85-.69a1.9,1.9,0,0,1,1.41.83l1.21-1.06a3.33,3.33,0,0,0-2.63-1.24,2.36,2.36,0,0,0-2.6,2.24c0,2.55,3.47,2.08,3.47,3.34a.78.78,0,0,1-.89.78,2.16,2.16,0,0,1-1.67-1Zm-4.59-4.76a2.19,2.19,0,0,1,0,4.37,2.34,2.34,0,0,1-2-1.05v-2.27a2.32,2.32,0,0,1,2-1.05m-3.83,9.35h1.83v-4.13a3,3,0,0,0,2.26.88,3.92,3.92,0,0,0,0-7.83,3,3,0,0,0-2.26.88v-.59H220.1Zm-5-9.59a1.52,1.52,0,0,1,1.59,1.47h-3.34a1.68,1.68,0,0,1,1.75-1.47m3.52,4.87-1.31-1a2.34,2.34,0,0,1-1.88.87,2,2,0,0,1-2.14-1.9h5.08a4.72,4.72,0,0,0,.12-1,3.14,3.14,0,0,0-3.34-3.25,3.64,3.64,0,0,0-3.73,3.91,3.79,3.79,0,0,0,4,3.92,3.85,3.85,0,0,0,3.17-1.47m-12.1-1.47c0,1.77.86,2.8,2.68,2.8a3.58,3.58,0,0,0,1.4-.23v-1.6a2.88,2.88,0,0,1-1.08.16,1,1,0,0,1-1.16-1.13v-3h2.22v-1.64h-2.22v-1.82h-1.84v1.82h-1.35v1.64h1.35Zm-9.19,2.65h1.83v-4.73a1.93,1.93,0,0,1,1.69-1.08,1.39,1.39,0,0,1,1.44,1.56v4.25h1.84v-4.32c0-2.14-1.25-3.22-2.82-3.22a3,3,0,0,0-2.15.86v-.57H197.3Zm-6.58-2c0-.45.32-.77,1.08-.9l1.73-.28v1a2,2,0,0,1-1.8,1c-.62,0-1-.31-1-.8m.64,2.26a2.89,2.89,0,0,0,2.17-.92v.7h1.83v-4.69c0-1.6-1.08-2.85-3.18-2.85a3.61,3.61,0,0,0-3,1.44l1.34,1a2,2,0,0,1,1.64-.86,1.26,1.26,0,0,1,1.41,1.25v.19l-2.22.37c-1.55.26-2.4,1.08-2.4,2.17a2.19,2.19,0,0,0,2.45,2.18M180.72,134a4.53,4.53,0,0,0,3.73,1.68,3.09,3.09,0,0,0,3.35-3c0-3.45-4.58-2.94-4.58-4.76a1.09,1.09,0,0,1,1.2-1.07,2.66,2.66,0,0,1,2,1.27l1.5-1.36a4.48,4.48,0,0,0-3.53-1.7,3,3,0,0,0-3.25,2.93c0,3.41,4.58,2.91,4.58,4.76a1.14,1.14,0,0,1-1.3,1.16,2.89,2.89,0,0,1-2.23-1.24Z" transform="translate(0 0)"/></g></svg>