<svg width="252" height="237" viewBox="0 0 252 237" fill="none" xmlns="http://www.w3.org/2000/svg">
<path d="M127.011 97.36C127.011 97.36 145.164 108.193 142.233 112.772M35.9191 146.769C10.2151 164.206 28.8954 200.878 28.8954 200.878" stroke="#FBABAC" stroke-width="1.88976" stroke-linecap="round" stroke-linejoin="round"/>
<path fill-rule="evenodd" clip-rule="evenodd" d="M89.5288 60.2964C89.5288 60.2964 93.7025 58.4865 96.3769 55.0692C99.0648 51.6519 101.239 47.8294 102.388 48.4642C103.536 49.099 101.901 51.2332 101.118 52.8675C100.334 54.5019 100.794 54.2587 103.414 52.3407C106.021 50.4092 107.736 49.2206 108.709 49.2206C109.695 49.2206 109.303 50.6524 109.303 50.6524C111.113 49.7474 112.113 50.2471 111.221 52.4083C111.221 52.4083 112.059 52.3678 112.531 52.9486C113.382 54.0021 111.626 55.677 111.626 55.677C111.626 55.677 112.856 56.636 112.356 57.9192C111.87 59.2158 96.0662 67.8063 96.0662 67.8063L89.5288 60.2964Z" fill="white" stroke="black" stroke-width="1.88976" stroke-linecap="round" stroke-linejoin="round"/>
<path d="M101.037 60.7825C101.239 58.6349 100.888 56.1901 100.902 53.9614" stroke="black" stroke-width="1.88976" stroke-linecap="round" stroke-linejoin="round"/>
<path d="M102.928 55.7986L109.384 50.5848" stroke="black" stroke-width="1.88976" stroke-linecap="round" stroke-linejoin="round"/>
<path d="M104.751 57.4331L111.221 52.4084" stroke="black" stroke-width="1.88976" stroke-linecap="round" stroke-linejoin="round"/>
<path d="M106.048 59.0944L111.626 55.6771" stroke="black" stroke-width="1.88976" stroke-linecap="round" stroke-linejoin="round"/>
<path fill-rule="evenodd" clip-rule="evenodd" d="M13.3354 213.305C13.3354 213.305 13.9568 221.598 17.2795 227.365C20.6023 233.119 30.5029 238.05 31.7726 231.364C33.0423 224.678 25.9646 213.548 25.9646 213.548L13.3354 213.305Z" fill="white" stroke="black" stroke-width="1.88976" stroke-linecap="round" stroke-linejoin="round"/>
<path fill-rule="evenodd" clip-rule="evenodd" d="M39.3767 207.456L38.7959 217.208C38.7959 217.208 45.4279 221.017 54.9504 221.112C64.4593 221.206 66.0667 220.045 65.0942 217.505C64.1217 214.966 51.8707 210.239 50.6551 209.212C49.426 208.185 39.3767 207.456 39.3767 207.456Z" fill="white" stroke="black" stroke-width="1.88976" stroke-linecap="round" stroke-linejoin="round"/>
<path fill-rule="evenodd" clip-rule="evenodd" d="M14.0106 93.875C14.0106 93.875 12.8355 131.641 12.6464 149.983C12.4438 168.326 12.741 214.48 12.741 214.48C12.741 214.48 16.8336 216.83 20.8857 216.479C24.9378 216.141 27.18 214.047 27.18 214.047L35.9191 146.769L37.0807 185.791L38.5935 208.185C38.5935 208.185 41.2814 209.847 46.4546 209.995C51.6278 210.144 52.7489 209.361 52.7489 209.361C52.7489 209.361 57.4359 122.132 57.5844 110.421C57.7195 98.7106 56.9496 92.4568 56.9496 92.4568L14.0106 93.875Z" fill="black" stroke="black" stroke-width="0.755906" stroke-linecap="round" stroke-linejoin="round"/>
<path fill-rule="evenodd" clip-rule="evenodd" d="M24.5056 36.9968C21.8718 38.1854 17.7791 40.2925 13.6054 43.4261C6.58176 48.6939 -0.685047 68.1171 0.962816 79.5305C2.62419 90.944 12.768 90.6604 12.768 90.6604C12.768 90.6604 12.2412 96.3198 14.0377 97.3329C15.8476 98.3594 31.6509 100.561 42.6862 98.8997C53.7079 97.2383 58.0032 95.0502 58.2463 93.2942C58.4894 91.5383 57.6655 81.3405 57.6655 81.3405C57.6655 81.3405 62.5416 88.4587 74.2522 83.8798C85.9628 79.2874 98.1597 68.5493 98.1597 68.5493L92.1491 58.2164L67.5122 67.6308C67.5122 67.6308 60.1508 45.0875 53.2217 40.1574C49.7774 37.7126 45.9684 36.1863 41.7137 35.484C40.9032 34.4439 40.2414 33.0797 36.4459 31.9721C32.2587 30.77 29.3817 31.0401 29.3817 31.0401C29.3817 31.0401 24.8028 35.3759 24.4516 36.4024C24.4246 36.5105 24.4381 36.7131 24.5056 36.9968Z" fill="#FBABAC"/>
<path fill-rule="evenodd" clip-rule="evenodd" d="M38.4179 49.3828L33.7309 77.7746L40.2414 78.1934L38.4449 88.3507L37.8911 90.6874L31.5698 90.917L31.5293 91.1196L38.8501 97.4139L45.5361 89.4583L40.8087 49.0181C40.8087 49.0181 41.2679 45.9655 41.3219 44.4527C41.3354 44.007 41.3354 43.6963 41.3489 43.4802C39.9172 43.2776 38.5665 43.2371 38.5665 43.2371C38.5665 43.2371 36.8241 43.5207 35.2708 44.1285C35.2032 44.1555 35.1492 44.1826 35.0952 44.2096C35.5274 45.047 36.3513 46.5868 37.0537 47.6269C38.0532 49.1126 38.4179 49.3828 38.4179 49.3828Z" fill="black"/>
<path d="M20.4131 55.9471L16.1719 76.6805L40.2415 78.1933L37.8913 90.6873" stroke="black" stroke-width="1.88976" stroke-linecap="round" stroke-linejoin="round"/>
<path fill-rule="evenodd" clip-rule="evenodd" d="M50.6552 79.8953C50.6552 79.8953 57.5168 79.5036 59.2727 78.9903C61.0287 78.4771 60.3263 80.3545 60.3263 80.3545C60.3263 80.3545 61.2988 80.5842 61.2988 81.3136C61.2988 82.0429 60.691 82.4076 60.691 82.4076C60.691 82.4076 61.0827 83.4477 60.6505 83.8664C60.2182 84.2851 59.6915 84.4877 59.6915 84.4877C59.6915 84.4877 59.759 85.4062 58.1516 86.4057C56.5443 87.4052 52.3031 88.2832 50.1555 88.5804C48.7642 88.7695 47.1974 88.8235 46.2789 88.8235C46.0493 88.9315 45.7792 88.9856 45.482 88.9721C42.686 88.837 38.4448 88.3507 38.4448 88.3507L40.0522 79.274C40.0522 79.274 41.3083 79.2605 42.3619 79.1794C43.4019 79.0984 44.2934 78.8147 44.2934 78.8147C44.2934 78.8147 47.4 77.4775 50.4121 76.7482C53.4377 76.0188 54.1536 77.0453 53.1946 77.8017C52.2491 78.5581 50.6552 79.8953 50.6552 79.8953Z" fill="white" stroke="black" stroke-width="1.88976" stroke-linecap="round" stroke-linejoin="round"/>
<path d="M50.4932 82.4346C50.4932 82.4346 53.4917 82.1915 56.0851 81.7997C58.6649 81.408 60.3263 80.3545 60.3263 80.3545" stroke="black" stroke-width="1.88976" stroke-linecap="round" stroke-linejoin="round"/>
<path d="M50.7363 84.366C50.7363 84.366 53.9375 84.204 56.5984 83.6772C59.2728 83.1504 60.5019 82.421 60.5019 82.421" stroke="black" stroke-width="1.88976" stroke-linecap="round" stroke-linejoin="round"/>
<path d="M51.0742 86.3787C51.0742 86.3787 54.1133 86.149 56.1664 85.6223C58.2195 85.082 59.6917 84.4877 59.6917 84.4877" stroke="black" stroke-width="1.88976" stroke-linecap="round" stroke-linejoin="round"/>
<path d="M13.0518 76.1807L16.1854 76.6129" stroke="black" stroke-width="1.88976" stroke-linecap="round" stroke-linejoin="round"/>
<path fill-rule="evenodd" clip-rule="evenodd" d="M29.2871 7.98361C36.6079 4.83647 45.3335 3.04003 45.9818 13.3594C46.3195 18.7758 47.6432 30.7295 44.5636 32.3369C41.4975 33.9442 39.4984 33.3634 39.4984 33.3634C39.4984 33.3634 39.8631 37.6316 39.593 39.6577C39.3228 41.6838 38.5664 43.2371 38.5664 43.2371C38.5664 43.2371 31.975 39.266 30.4622 37.8072C28.9629 36.335 28.6117 33.3364 28.6117 33.3364L28.0984 24.4082C28.0984 24.4082 24.7217 22.5848 24.411 20.1535C24.0868 17.7087 25.5726 16.8037 25.5726 16.8037C25.5726 16.8037 25.5726 16.6552 25.5726 16.3985C25.5591 14.9938 25.8157 10.3609 29.2871 7.98361Z" fill="white"/>
<path fill-rule="evenodd" clip-rule="evenodd" d="M44.7525 8.63173C41.5648 9.22604 37.2155 8.32106 34.6357 8.61822C31.8802 8.94239 30.462 11.7654 30.1919 13.035C29.9217 14.3047 31.1644 16.1282 30.489 16.844C30.2459 17.0872 30.1919 17.5329 30.2054 18.0056V18.0191V18.0326C30.2189 18.3163 30.4485 21.504 33.3255 24.1378C36.3511 26.8933 37.5532 24.9888 41.1056 24.2864C43.3478 23.8407 45.3603 23.8272 46.5489 23.8812C46.5759 27.9063 46.1572 31.4992 44.5634 32.3366C41.4973 33.944 39.4982 33.3632 39.4982 33.3632C39.4982 33.3632 33.4471 31.3101 31.5966 27.5281C29.7461 23.7461 29.2869 20.4504 29.2869 20.4504C29.2869 20.4504 28.3684 17.9381 28.3549 17.8706C28.3414 17.7895 27.8551 17.0196 27.2068 16.7765C26.5585 16.5334 25.5724 16.8035 25.5724 16.8035C25.5724 16.8035 24.0867 17.7085 24.4108 20.1533C24.7215 22.5845 28.0983 24.408 28.0983 24.408L28.3009 27.8118C25.9642 26.9203 22.3443 23.0303 20.7504 17.3708C19.1701 11.7248 23.2627 6.59216 23.776 5.68718C23.776 5.68718 23.776 2.71563 27.4634 1.47298C31.1509 0.230326 31.6101 0.986722 36.6618 1.35141C41.7134 1.7161 47.2918 1.78364 47.8591 4.64714C48.4129 7.49713 45.6845 8.34808 44.7525 8.63173Z" fill="black" stroke="black" stroke-width="0.755906" stroke-linecap="round" stroke-linejoin="round"/>
<path d="M36.3786 19.4915C36.8784 19.4915 37.2836 19.0138 37.2836 18.4245C37.2836 17.8352 36.8784 17.3574 36.3786 17.3574C35.8788 17.3574 35.4736 17.8352 35.4736 18.4245C35.4736 19.0138 35.8788 19.4915 36.3786 19.4915Z" fill="black"/>
<path d="M43.5505 18.6677C44.0503 18.6677 44.4555 18.1899 44.4555 17.6006C44.4555 17.0113 44.0503 16.5336 43.5505 16.5336C43.0507 16.5336 42.6455 17.0113 42.6455 17.6006C42.6455 18.1899 43.0507 18.6677 43.5505 18.6677Z" fill="black"/>
<path d="M40.9707 18.3706C41.1193 18.6678 42.8617 22.058 42.8887 22.1391C42.9292 22.2066 41.2408 22.6388 41.2408 22.6388" stroke="black" stroke-width="1.88976" stroke-linecap="round" stroke-linejoin="round"/>
<path d="M34.0415 15.8582C34.0415 15.8582 34.7844 15.4125 35.6353 15.2234C36.4863 15.0207 37.1751 15.1153 37.1751 15.1153" stroke="black" stroke-width="1.88976" stroke-linecap="round" stroke-linejoin="round"/>
<path d="M41.6597 14.6697C41.6597 14.6697 42.2675 14.305 43.1454 14.1969C44.0369 14.0889 44.4691 14.2239 44.4691 14.2239" stroke="black" stroke-width="1.88976" stroke-linecap="round" stroke-linejoin="round"/>
<path fill-rule="evenodd" clip-rule="evenodd" d="M43.2805 26.9611C43.2805 26.9611 39.5255 26.7044 39.2689 26.5693C39.0122 26.4343 38.9582 28.2712 40.7276 28.4738C42.4971 28.6765 43.2805 26.9611 43.2805 26.9611Z" fill="white"/>
<path d="M26.0591 18.1544C26.0591 18.1544 27.2477 18.5191 27.7069 19.8968C28.1527 21.2746 27.8555 22.8009 27.8555 22.8009" stroke="black" stroke-width="1.88976" stroke-linecap="round" stroke-linejoin="round"/>
<path d="M26.2075 20.8691L27.7068 19.8966" stroke="black" stroke-width="1.88976" stroke-linecap="round" stroke-linejoin="round"/>
<path d="M55.7881 54.1913L57.2604 77.3154" stroke="black" stroke-width="1.88976" stroke-linecap="round" stroke-linejoin="round"/>
<path d="M24.6001 38.1583L29.5302 47.2756L33.7444 44.6957" stroke="black" stroke-width="1.88976" stroke-linecap="round" stroke-linejoin="round"/>
<path d="M42.5107 43.372L45.5768 44.304L42.2676 36.2538" stroke="black" stroke-width="1.88976" stroke-linecap="round" stroke-linejoin="round"/>
<path d="M63.3115 69.5083L67.5122 67.6309" stroke="black" stroke-width="1.88976" stroke-linecap="round" stroke-linejoin="round"/>
<path d="M14.9424 91.0251L37.8909 90.6874" stroke="black" stroke-width="1.88976" stroke-linecap="round" stroke-linejoin="round"/>
<path d="M28.6117 33.3363L28.0984 24.4082C28.0984 24.4082 24.7217 22.5847 24.411 20.1534C24.0868 17.7087 25.5726 16.8037 25.5726 16.8037M44.5636 8.30774C45.3335 9.50987 45.8467 11.1577 45.9818 13.3594C46.3195 18.7757 47.6432 30.7295 44.5636 32.3368C41.4975 33.9442 39.4984 33.3634 39.4984 33.3634C39.4984 33.3634 39.8631 37.6316 39.593 39.6577" stroke="black" stroke-width="1.88976" stroke-linecap="round" stroke-linejoin="round"/>
<path d="M42.6185 111.921L38.823 121.389L35.9189 146.769" stroke="white" stroke-width="1.88976" stroke-linecap="round" stroke-linejoin="round"/>
<path d="M16.9551 103.438C16.9551 103.438 18.2112 104.41 19.3728 104.897C20.548 105.383 21.1017 105.559 21.1017 105.559" stroke="white" stroke-width="1.88976" stroke-linecap="round" stroke-linejoin="round"/>
<path d="M17.7656 107.071L19.4945 107.868" stroke="white" stroke-width="1.88976" stroke-linecap="round" stroke-linejoin="round"/>
<path d="M56.0854 100.899C56.0854 100.899 55.9504 101.966 55.5722 102.871C55.2075 103.776 54.9238 104.14 54.9238 104.14" stroke="white" stroke-width="1.88976" stroke-linecap="round" stroke-linejoin="round"/>
<path d="M56.3552 105.95L55.5718 107.733" stroke="white" stroke-width="1.88976" stroke-linecap="round" stroke-linejoin="round"/>
<path fill-rule="evenodd" clip-rule="evenodd" d="M209.012 48.6397C192.047 47.0729 188.968 50.3416 187.212 53.7183C185.456 57.0816 184.281 67.0768 182.228 69.319C180.188 71.5747 175.164 76.3022 175.164 76.3022L179.553 79.4763C179.553 79.4763 178.527 82.9342 178.135 83.7176C177.743 84.501 181.552 85.6626 183.254 86.2974C184.97 86.9322 185.699 87.2294 185.699 87.2294C185.699 87.2294 181.985 88.9853 179.702 88.9853C177.406 88.9853 179.067 92.1865 179.067 92.1865C179.067 92.1865 176.717 98.913 178.189 100.628C179.648 102.33 188.671 102.871 190.521 105.653C192.385 108.436 191.305 122.091 191.305 122.091L216.09 119.457C216.09 119.457 212.97 94.6718 215.698 89.8903C219.305 83.5825 227.341 83.0827 227.814 67.9818C228.071 59.4859 224.235 50.0444 209.012 48.6397Z" fill="white"/>
<path d="M188.316 71.4635C188.342 72.3391 189.038 72.9923 189.87 72.9226C190.703 72.8528 191.357 72.0865 191.33 71.2109C191.304 70.3353 190.608 69.682 189.775 69.7518C188.943 69.8215 188.289 70.5879 188.316 71.4635Z" fill="black"/>
<path d="M188.955 66.0907C191.17 66.2393 192.791 66.8606 194.655 68.0087" stroke="black" stroke-width="1.88976" stroke-linecap="round" stroke-linejoin="round"/>
<path fill-rule="evenodd" clip-rule="evenodd" d="M182.593 48.3697C182.593 48.3697 178.716 48.3427 180.175 51.4358C181.647 54.5289 189.468 54.5154 192.183 54.7045C194.884 54.9071 200.665 56.8792 200.665 56.8792C200.665 56.8792 197.815 57.8247 200.908 59.6076C204.015 61.3905 205.109 62.4846 205.109 65.1185C205.109 67.7524 200.868 71.3452 201.205 73.3713C201.543 75.3974 201.57 78.2744 201.543 79.7331C201.516 81.1919 202.299 81.1919 204.42 78.6661C206.554 76.1267 210.944 74.6545 212.984 78.0718C215.037 81.489 211.228 86.9999 208.985 88.7559C206.743 90.5118 204.447 90.1201 204.447 90.1201C204.447 90.1201 204.744 101.398 208.405 103.789C212.065 106.18 213.375 102.803 213.375 102.803C213.375 102.803 215.334 104.465 217.671 102.857C220.007 101.25 221.48 92.862 226.058 87.2971C230.651 81.7322 236.702 64.173 231.826 54.7991C226.936 45.4387 208.499 41.5351 205.865 40.5491C203.231 39.5766 198.004 37.1858 192.304 35.7676C186.591 34.3629 186.793 36.7536 186.928 38.6041C187.077 40.4546 187.86 41.7242 187.86 41.7242C187.86 41.7242 183.038 40.0628 181.228 43.0479C179.419 46.0195 182.593 48.3697 182.593 48.3697Z" fill="black" stroke="black" stroke-width="0.755906" stroke-linecap="round" stroke-linejoin="round"/>
<path fill-rule="evenodd" clip-rule="evenodd" d="M95.9985 97.5895L106.142 168.042L153.957 157.304L146.15 87.8239L95.9985 97.5895Z" fill="white" stroke="black" stroke-width="1.88976" stroke-linecap="round" stroke-linejoin="round"/>
<path d="M110.6 119.187L138.654 112.609" stroke="black" stroke-width="1.88976" stroke-linecap="round" stroke-linejoin="round"/>
<path d="M111.734 124.914L139.775 118.323" stroke="black" stroke-width="1.88976" stroke-linecap="round" stroke-linejoin="round"/>
<path d="M112.774 130.803L140.829 124.212" stroke="black" stroke-width="1.88976" stroke-linecap="round" stroke-linejoin="round"/>
<path d="M114.8 141.136L142.854 134.545" stroke="black" stroke-width="1.88976" stroke-linecap="round" stroke-linejoin="round"/>
<path d="M115.233 146.971L143.287 140.38" stroke="black" stroke-width="1.88976" stroke-linecap="round" stroke-linejoin="round"/>
<path d="M135.142 151.172L144.786 148.903" stroke="#FCC63A" stroke-width="1.88976" stroke-linecap="round" stroke-linejoin="round"/>
<path fill-rule="evenodd" clip-rule="evenodd" d="M149.325 133.856C149.325 133.856 142.909 132.924 140.41 134.031C137.925 135.126 134.494 134.707 133.656 135.828C132.833 136.949 132.86 139.002 136.25 139.326C139.64 139.637 142.855 138.529 144.543 139.894C146.245 141.271 149.325 133.856 149.325 133.856Z" fill="white"/>
<path fill-rule="evenodd" clip-rule="evenodd" d="M107.02 142.811C107.02 142.811 105.508 134.328 106.926 129.79C108.331 125.252 109.897 117.391 108.047 115.148C106.197 112.906 100.226 126.954 100.226 126.954L97.6736 109.259C97.6736 109.259 93.9456 112.366 92.8246 114.446C91.7035 116.513 92.0952 118.241 92.0952 118.241C92.0952 118.241 90.1907 119.808 89.8935 121.051C89.6099 122.294 90.0961 123.469 90.0961 123.469C90.0961 123.469 88.6509 124.86 88.3132 126.44C87.9755 128.034 88.5563 129.034 88.5563 129.034C88.5563 129.034 87.3542 133.342 88.6239 137.786C89.8935 142.23 95.6475 152.171 95.6475 152.171L107.02 142.811Z" fill="white" stroke="black" stroke-width="1.88976" stroke-linecap="round" stroke-linejoin="round"/>
<path d="M205.055 87.4322C205.055 87.4322 205.055 83.9744 206.716 81.2729C208.377 78.558 210.768 78.4905 210.768 78.4905" stroke="black" stroke-width="1.88976" stroke-linecap="round" stroke-linejoin="round"/>
<path d="M209.08 84.339L206.297 82.0293" stroke="black" stroke-width="1.88976" stroke-linecap="round" stroke-linejoin="round"/>
<path d="M92.649 120.673L92.0952 118.242" stroke="black" stroke-width="1.88976" stroke-linecap="round" stroke-linejoin="round"/>
<path d="M90.704 125.36L90.0962 123.469" stroke="black" stroke-width="1.88976" stroke-linecap="round" stroke-linejoin="round"/>
<path d="M89.4746 131.708L88.5562 129.034" stroke="black" stroke-width="1.88976" stroke-linecap="round" stroke-linejoin="round"/>
<path d="M216.09 119.457C216.09 119.457 215.874 117.688 215.59 115.027C214.847 107.666 213.699 93.4021 215.698 89.8903C219.305 83.5825 227.341 83.0827 227.814 67.9818C228.071 59.4858 224.235 50.0444 209.012 48.6397C196.694 47.5051 191.696 48.9233 189.211 51.0574C188.279 51.8678 187.698 52.7863 187.212 53.7183C185.456 57.0816 184.281 67.0768 182.228 69.319C180.188 71.5747 175.164 76.3021 175.164 76.3021L179.553 79.4763C179.553 79.4763 178.527 82.9341 178.135 83.7175C177.743 84.5009 181.552 85.6625 183.254 86.2974C184.97 86.9322 185.699 87.2294 185.699 87.2294C185.699 87.2294 181.985 88.9853 179.702 88.9853C177.406 88.9853 179.067 92.1865 179.067 92.1865C179.067 92.1865 176.717 98.913 178.189 100.628C179.648 102.33 188.671 102.871 190.521 105.653C192.385 108.435 191.305 122.091 191.305 122.091" stroke="black" stroke-width="1.88976" stroke-linecap="round" stroke-linejoin="round"/>
<path d="M104.251 107.382L115.989 104.627" stroke="#FCC63A" stroke-width="1.88976" stroke-linecap="round" stroke-linejoin="round"/>
<path d="M132.089 101.317L139.991 99.4669" stroke="#FCC63A" stroke-width="1.88976" stroke-linecap="round" stroke-linejoin="round"/>
<path fill-rule="evenodd" clip-rule="evenodd" d="M137.371 173.945C137.371 173.945 153.755 141.541 164.007 132.37C174.245 123.199 185.172 119.106 209.674 116.472C234.162 113.838 243.914 120.376 249.574 138.124C255.233 155.886 244.941 186.669 244.941 186.669L244.455 236.928C244.455 236.928 155.862 234.97 155.862 236.928C155.862 238.873 159.954 199.946 159.954 199.946C159.954 199.946 153.606 217.316 131.468 209.995C109.316 202.674 98.5783 168.434 96.6333 162.18C94.6748 155.94 93.3105 149.592 93.3105 149.592C93.3105 149.592 98.038 143.986 101.509 142.379C104.967 140.772 107.412 140.623 107.412 140.623L137.371 173.945Z" fill="#B1B1F9"/>
<path d="M176.987 168.812L161.562 197.609" stroke="black" stroke-width="1.88976" stroke-linecap="round" stroke-linejoin="round"/>
<path d="M244.117 152.617L244.793 181.887" stroke="black" stroke-width="1.88976" stroke-linecap="round" stroke-linejoin="round"/>
<path d="M132.859 183.238L137.128 174.404L137.074 174.526" stroke="black" stroke-width="1.88976" stroke-linecap="round" stroke-linejoin="round"/>
<path d="M94.6479 155.184C94.6479 155.184 98.8622 148.471 102.982 146.134C107.101 143.797 109.87 143.351 109.87 143.351" stroke="#4D656D" stroke-width="1.88976" stroke-linecap="round" stroke-linejoin="round"/>
<path d="M94.9048 147.822L96.4716 152.577" stroke="#4D656D" stroke-width="1.88976" stroke-linecap="round" stroke-linejoin="round"/>
<path d="M96.917 145.81L98.6054 149.74" stroke="#4D656D" stroke-width="1.88976" stroke-linecap="round" stroke-linejoin="round"/>
<path d="M99.416 143.676L101.212 147.376" stroke="#4D656D" stroke-width="1.88976" stroke-linecap="round" stroke-linejoin="round"/>
<path d="M102.226 142.054L103.927 145.62" stroke="#4D656D" stroke-width="1.88976" stroke-linecap="round" stroke-linejoin="round"/>
<path d="M105.035 141.069L106.98 144.229" stroke="#4D656D" stroke-width="1.88976" stroke-linecap="round" stroke-linejoin="round"/>
<path d="M185.442 120.714C192.871 121.281 216.293 121.551 220.939 115.932" stroke="#4D656D" stroke-width="1.88976" stroke-linecap="round" stroke-linejoin="round"/>
<path d="M188.076 49.2881C192.777 49.3826 197.693 49.6798 202.029 51.6788" stroke="white" stroke-width="1.88976" stroke-linecap="round" stroke-linejoin="round"/>
<path d="M196.667 46.1815C201.043 46.4111 204.906 47.7754 208.594 50.1391" stroke="white" stroke-width="1.88976" stroke-linecap="round" stroke-linejoin="round"/>
<path d="M195.681 40.8057C198.179 42.5616 199.868 43.0478 202.704 43.8718" stroke="white" stroke-width="1.88976" stroke-linecap="round" stroke-linejoin="round"/>
<path d="M216.711 67.1038C216.711 67.1038 217.643 69.2514 217.441 72.1284C217.252 75.0054 216.711 75.9239 216.711 75.9239" stroke="white" stroke-width="1.88976" stroke-linecap="round" stroke-linejoin="round"/>
<path d="M221.587 73.8303C221.533 76.5588 220.304 80.827 219.143 83.2988" stroke="white" stroke-width="1.88976" stroke-linecap="round" stroke-linejoin="round"/>
<path d="M224.424 80.3408C225.883 77.3152 226.45 75.3567 226.666 71.6422" stroke="white" stroke-width="1.88976" stroke-linecap="round" stroke-linejoin="round"/>
<path fill-rule="evenodd" clip-rule="evenodd" d="M86.6113 18.5266C91.825 11.4084 86.4627 3.6013 75.3869 3.30414C58.3004 2.85841 52.4924 11.3814 54.6535 17.7972L51.7495 23.065L57.7737 22.079C59.3 23.2541 61.2855 24.105 63.6763 24.4562C71.0106 24.7669 81.8703 24.983 86.6113 18.5266Z" fill="white" stroke="black" stroke-width="1.88976" stroke-linecap="round" stroke-linejoin="round"/>
<path d="M65.8945 13.7786L68.2538 17.8118L76.8137 10.4037" stroke="black" stroke-width="1.88976" stroke-linecap="round" stroke-linejoin="round"/>
<path d="M26.748 5.59288C26.748 5.59288 27.9232 3.56682 30.3139 2.90497C32.7047 2.24313 33.6096 2.59431 33.6096 2.59431" stroke="white" stroke-width="0.5" stroke-linecap="round" stroke-linejoin="round"/>
<path d="M31.0835 5.52529C31.0835 5.52529 32.8664 4.49875 35.5003 4.84993C38.1342 5.18761 40.7411 5.3632 40.7411 5.3632" stroke="white" stroke-width="0.5" stroke-linecap="round" stroke-linejoin="round"/>
<path d="M25.7349 10.1041C25.2486 10.5904 24.9109 12.0897 24.7759 13.0352" stroke="white" stroke-width="0.5" stroke-linecap="round" stroke-linejoin="round"/>
<path d="M22.7903 11.3738C22.2231 12.765 22.142 13.7105 22.3581 15.1963" stroke="white" stroke-width="0.5" stroke-linecap="round" stroke-linejoin="round"/>
<path d="M201.327 95.9146C197.477 101.804 190.71 103.073 182.579 102.317" stroke="black" stroke-width="1.88976" stroke-linecap="round" stroke-linejoin="round"/>
</svg>
