<svg width="81" height="79" viewBox="0 0 81 79" fill="none" xmlns="http://www.w3.org/2000/svg">
<path fill-rule="evenodd" clip-rule="evenodd" d="M58.5055 2.98892C57.9542 2.99005 57.5046 2.54236 57.5035 1.99096C57.5024 1.43952 57.9501 0.99005 58.5015 0.988923C59.0529 0.987797 59.5024 1.43543 59.5035 1.98688C59.5046 2.53828 59.0569 2.98779 58.5055 2.98892Z" fill="#ECECFE"/>
<path fill-rule="evenodd" clip-rule="evenodd" d="M22.6525 75.0624C22.1011 75.0635 21.6516 74.6159 21.6505 74.0645C21.6494 73.513 22.097 73.0635 22.6484 73.0624C23.1998 73.0613 23.6493 73.5089 23.6505 74.0604C23.6516 74.6118 23.2039 75.0613 22.6525 75.0624Z" fill="#ECECFE"/>
<path fill-rule="evenodd" clip-rule="evenodd" d="M12.5217 11.0829C11.9703 11.084 11.5207 10.6364 11.5196 10.085C11.5185 9.53351 11.9662 9.08404 12.5176 9.08292C13.069 9.08179 13.5185 9.52943 13.5196 10.0809C13.5207 10.6323 13.0731 11.0818 12.5217 11.0829Z" fill="#ECECFE"/>
<path d="M41.5215 11.0236C42.0737 11.0225 42.5224 11.4693 42.5235 12.0216C42.5246 12.5739 42.0778 13.0225 41.5255 13.0236C34.8981 13.0372 29.5365 18.4207 29.5501 25.0481C29.5636 31.6755 34.9472 37.0371 41.5746 37.0236C48.202 37.01 53.5636 31.6265 53.55 24.9991C53.5459 22.9758 53.0415 21.0282 52.0955 19.2917C51.8313 18.8068 52.0102 18.1994 52.4952 17.9352C52.9802 17.671 53.5875 17.85 53.8518 18.3349C54.956 20.362 55.5452 22.6368 55.55 24.995C55.5658 32.727 49.3106 39.0078 41.5787 39.0236C33.8467 39.0394 27.5659 32.7842 27.5501 25.0522C27.5343 17.3202 33.7895 11.0394 41.5215 11.0236Z" fill="#FA9293"/>
<path fill-rule="evenodd" clip-rule="evenodd" d="M34.4682 25.7289L34.5533 25.6615L45.1372 18.1129C45.8609 17.5967 46.8479 18.2107 46.7048 19.088L44.6122 31.9184C44.4696 32.7929 43.3442 33.0636 42.8195 32.3497L39.8671 28.3328L34.9589 27.4602C34.1229 27.3115 33.8542 26.2684 34.4682 25.7289ZM43.0213 29.2467L44.3446 21.1347L37.6531 25.9075L39.9437 26.315L40.6425 25.1916C40.9342 24.7227 41.5509 24.579 42.0198 24.8707C42.4553 25.1416 42.6103 25.6926 42.3967 26.1454L42.3408 26.248L41.6423 27.3709L43.0213 29.2467Z" fill="#FA9293"/>
<path d="M67.63 63.9704C68.1822 63.9693 68.6309 64.4161 68.632 64.9684C68.633 65.4812 68.2479 65.9047 67.7507 65.9634L67.634 65.9704L59.6341 65.9868C59.0818 65.9879 58.6331 65.5411 58.632 64.9888C58.631 64.476 59.0161 64.0525 59.5134 63.9937L59.63 63.9868L67.63 63.9704Z" fill="#000091"/>
<path d="M32.6565 44.1521C33.0644 43.7797 33.6969 43.8086 34.0692 44.2165C34.4129 44.593 34.4148 45.1609 34.0922 45.5389L34.0048 45.6292L10.3063 65.8275C9.89841 66.1998 9.2659 66.171 8.89356 65.7631C8.54986 65.3866 8.54798 64.8187 8.87055 64.4407L8.95794 64.3503L32.6565 44.1521Z" fill="#000091"/>
<path d="M71.5482 23.9623C72.061 23.9613 72.4845 24.3465 72.5433 24.8437L72.5502 24.9603L72.6238 60.9602C72.6249 61.5125 72.1781 61.9611 71.6259 61.9622C71.113 61.9633 70.6896 61.5781 70.6308 61.0809L70.6238 60.9643L70.5523 25.9644L59.5523 25.9868C59.0395 25.9879 58.616 25.6027 58.5572 25.1055L58.5503 24.9889C58.5492 24.4761 58.9344 24.0526 59.4316 23.9938L59.5482 23.9868L71.5482 23.9623Z" fill="#000091"/>
<path d="M23.5483 24.0604C24.1006 24.0593 24.5492 24.5061 24.5503 25.0584C24.5514 25.5712 24.1662 25.9947 23.669 26.0534L23.5524 26.0604L10.5524 26.087L10.6301 64.0869L47.63 64.0113C48.1428 64.0102 48.5663 64.3954 48.6251 64.8926L48.632 65.0092C48.6331 65.5221 48.2479 65.9455 47.7507 66.0043L47.6341 66.0113L9.63416 66.0889C9.12133 66.09 8.69787 65.7048 8.63909 65.2076L8.63212 65.091L8.55038 25.0911C8.54934 24.5782 8.93451 24.1548 9.43173 24.096L9.54834 24.089L23.5483 24.0604Z" fill="#000091"/>
<path d="M70.632 64.9643C70.6309 64.412 71.0777 63.9634 71.63 63.9622C72.1822 63.9611 72.6309 64.4079 72.632 64.9602C72.6331 65.5125 72.1863 65.9611 71.634 65.9622C71.0818 65.9634 70.6331 65.5166 70.632 64.9643Z" fill="#000091"/>
<path d="M70.8938 24.208C71.3104 23.8454 71.9421 23.8893 72.3046 24.3059C72.6393 24.6905 72.6277 25.2582 72.2963 25.6285L72.2068 25.7167L42.26 51.778C41.9271 52.0676 41.4489 52.102 41.0812 51.8765L40.9745 51.801L8.92141 25.8665C8.49207 25.5191 8.42563 24.8894 8.77302 24.46C9.09369 24.0637 9.65488 23.9766 10.077 24.2388L10.1794 24.3116L41.5798 49.7177L70.8938 24.208Z" fill="#000091"/>
<path d="M50.254 44.2585C49.8405 43.8924 49.2085 43.9309 48.8424 44.3444C48.5045 44.7261 48.5113 45.294 48.8396 45.667L48.9283 45.756L66.961 61.7192C67.3745 62.0853 68.0065 62.0468 68.3726 61.6333C68.7105 61.2515 68.7037 60.6837 68.3754 60.3106L68.2867 60.2217L50.254 44.2585Z" fill="#000091"/>
</svg>
