<svg width="292" height="124" viewBox="0 0 292 124" fill="none" xmlns="http://www.w3.org/2000/svg">
<ellipse cx="138.5" cy="62" rx="138.5" ry="62" fill="#B1B1F9"/>
<path d="M292 120.321C244.152 125.303 224.73 101.641 221 89.1877L254.957 60C243.766 75.956 235.509 110.359 292 120.321Z" fill="#B1B1F9"/>
<path d="M41.172 45.072C41.916 45.072 42.54 44.784 43.044 44.208C43.572 43.608 43.836 42.924 43.836 42.156V40.68C43.836 40.176 43.74 39.756 43.548 39.42C43.356 39.06 43.092 38.772 42.756 38.556C42.444 38.34 42.072 38.184 41.64 38.088C41.208 37.992 40.764 37.944 40.308 37.944C39.492 37.944 38.772 38.196 38.148 38.7C37.524 39.18 37.212 39.84 37.212 40.68V45.036L41.172 45.072ZM34.872 40.86C34.872 40.14 35.004 39.468 35.268 38.844C35.532 38.196 35.892 37.644 36.348 37.188C36.804 36.708 37.332 36.336 37.932 36.072C38.556 35.784 39.216 35.64 39.912 35.64H41.1C41.796 35.64 42.444 35.772 43.044 36.036C43.668 36.3 44.208 36.672 44.664 37.152C45.12 37.608 45.48 38.16 45.744 38.808C46.008 39.432 46.14 40.116 46.14 40.86V42.012C46.14 43.044 45.96 43.908 45.6 44.604C45.24 45.3 44.736 45.864 44.088 46.296C43.464 46.728 42.732 47.04 41.892 47.232C41.052 47.424 40.164 47.52 39.228 47.52C38.556 47.52 37.884 47.484 37.212 47.412V49.212C37.38 50.052 37.788 50.736 38.436 51.264C39.108 51.792 39.864 52.056 40.704 52.056C40.752 52.056 41.028 52.008 41.532 51.912C42.06 51.792 42.624 51.66 43.224 51.516C43.92 51.372 44.688 51.192 45.528 50.976L46.104 53.352C45.192 53.544 44.352 53.712 43.584 53.856C42.936 53.976 42.324 54.084 41.748 54.18C41.172 54.276 40.824 54.324 40.704 54.324C39.912 54.324 39.156 54.18 38.436 53.892C37.74 53.604 37.128 53.208 36.6 52.704C36.072 52.2 35.652 51.6 35.34 50.904C35.028 50.208 34.872 49.44 34.872 48.6V40.86ZM41.604 33.336H39.192L42.9 27.684H45.672L41.604 33.336ZM50.1073 28.98H52.4113V49.32C52.4113 50.184 52.6273 50.784 53.0593 51.12C53.4913 51.432 54.0073 51.588 54.6073 51.588H55.3273V53.964H54.4273C53.2033 53.964 52.1713 53.592 51.3313 52.848C50.5153 52.08 50.1073 50.844 50.1073 49.14V28.98ZM57.7312 28.98H60.1072V32.22H57.7312V28.98ZM57.7312 36H60.1072V54H57.7312V36ZM72.9043 39.024C71.9923 38.544 71.2363 38.244 70.6363 38.124C70.0363 38.004 69.5323 37.944 69.1243 37.944C68.4043 37.944 67.7803 38.22 67.2523 38.772C66.7483 39.3 66.4963 39.936 66.4963 40.68V49.248C66.4963 50.016 66.7483 50.676 67.2523 51.228C67.7803 51.78 68.4163 52.056 69.1603 52.056C69.3523 52.056 69.5443 52.056 69.7363 52.056C69.9283 52.032 70.1563 51.984 70.4203 51.912C70.7083 51.84 71.0443 51.732 71.4283 51.588C71.8363 51.444 72.3283 51.228 72.9043 50.94V39.024ZM75.1723 57.852C75.1723 58.764 75.0163 59.544 74.7043 60.192C74.4163 60.864 74.0083 61.404 73.4803 61.812C72.9523 62.244 72.3403 62.556 71.6443 62.748C70.9723 62.964 70.2403 63.072 69.4483 63.072C69.0643 63.072 68.5723 63.012 67.9723 62.892C67.3723 62.772 66.7963 62.64 66.2443 62.496C65.5723 62.328 64.8763 62.124 64.1563 61.884L64.8043 59.76C65.5003 59.976 66.1603 60.168 66.7843 60.336C67.3123 60.48 67.8283 60.612 68.3323 60.732C68.8363 60.852 69.2083 60.912 69.4483 60.912C70.3843 60.912 71.2003 60.66 71.8963 60.156C72.5923 59.652 72.9403 58.896 72.9403 57.888V53.568C72.1723 53.952 71.5123 54.168 70.9603 54.216C70.4083 54.288 69.9283 54.324 69.5203 54.324H69.1603C68.4643 54.324 67.8163 54.192 67.2163 53.928C66.6403 53.64 66.1243 53.268 65.6683 52.812C65.2123 52.332 64.8523 51.78 64.5883 51.156C64.3483 50.532 64.2283 49.86 64.2283 49.14V40.824C64.2283 40.104 64.3483 39.432 64.5883 38.808C64.8523 38.184 65.2123 37.644 65.6683 37.188C66.1243 36.708 66.6403 36.336 67.2163 36.072C67.8163 35.784 68.4643 35.64 69.1603 35.64C69.6883 35.64 70.3003 35.724 70.9963 35.892C71.7163 36.06 72.4843 36.312 73.3003 36.648L74.4163 35.532L76.0363 37.152L75.1723 37.98V57.852ZM79.5983 28.98H81.9743V32.22H79.5983V28.98ZM79.5983 36H81.9743V54H79.5983V36ZM88.6875 50.904C88.7595 51.072 88.9635 51.228 89.2995 51.372C89.6355 51.516 89.9955 51.636 90.3795 51.732C90.7875 51.828 91.1835 51.9 91.5675 51.948C91.9515 51.996 92.2515 52.02 92.4675 52.02C93.1875 52.02 93.7995 51.756 94.3035 51.228C94.8315 50.676 95.0955 50.016 95.0955 49.248V40.716C95.0955 39.948 94.8315 39.3 94.3035 38.772C93.7995 38.22 93.1755 37.944 92.4315 37.944C92.2395 37.944 91.9875 37.968 91.6755 38.016C91.3635 38.064 91.0275 38.136 90.6675 38.232C90.3315 38.304 89.9835 38.412 89.6235 38.556C89.2635 38.7 88.9515 38.856 88.6875 39.024V50.904ZM88.6515 36.504C89.5635 36.024 90.3195 35.76 90.9195 35.712C91.5435 35.664 92.0475 35.64 92.4315 35.64C93.1035 35.64 93.7395 35.784 94.3395 36.072C94.9395 36.336 95.4555 36.708 95.8875 37.188C96.3435 37.644 96.6915 38.184 96.9315 38.808C97.1955 39.432 97.3275 40.104 97.3275 40.824V49.104C97.3275 49.824 97.1955 50.508 96.9315 51.156C96.6915 51.78 96.3435 52.332 95.8875 52.812C95.4555 53.268 94.9395 53.628 94.3395 53.892C93.7395 54.156 93.1035 54.288 92.4315 54.288C91.9275 54.288 91.2915 54.216 90.5235 54.072C89.7555 53.952 88.9755 53.688 88.1835 53.28C88.0155 53.4 87.8355 53.556 87.6435 53.748C87.4755 53.94 87.3315 54.096 87.2115 54.216L85.6275 52.632L86.3835 51.84V28.98H88.6515V36.504ZM101.646 28.98H103.95V49.32C103.95 50.184 104.166 50.784 104.598 51.12C105.03 51.432 105.546 51.588 106.146 51.588H106.866V53.964H105.966C104.742 53.964 103.71 53.592 102.87 52.848C102.054 52.08 101.646 50.844 101.646 49.14V28.98ZM115.246 45.072C115.99 45.072 116.614 44.784 117.118 44.208C117.646 43.608 117.91 42.924 117.91 42.156V40.68C117.91 40.176 117.814 39.756 117.622 39.42C117.43 39.06 117.166 38.772 116.83 38.556C116.518 38.34 116.146 38.184 115.714 38.088C115.282 37.992 114.838 37.944 114.382 37.944C113.566 37.944 112.846 38.196 112.222 38.7C111.598 39.18 111.286 39.84 111.286 40.68V45.036L115.246 45.072ZM108.946 40.86C108.946 40.14 109.078 39.468 109.342 38.844C109.606 38.196 109.966 37.644 110.422 37.188C110.878 36.708 111.406 36.336 112.006 36.072C112.63 35.784 113.29 35.64 113.986 35.64H115.174C115.87 35.64 116.518 35.772 117.118 36.036C117.742 36.3 118.282 36.672 118.738 37.152C119.194 37.608 119.554 38.16 119.818 38.808C120.082 39.432 120.214 40.116 120.214 40.86V42.012C120.214 43.044 120.034 43.908 119.674 44.604C119.314 45.3 118.81 45.864 118.162 46.296C117.538 46.728 116.806 47.04 115.966 47.232C115.126 47.424 114.238 47.52 113.302 47.52C112.63 47.52 111.958 47.484 111.286 47.412V49.212C111.454 50.052 111.862 50.736 112.51 51.264C113.182 51.792 113.938 52.056 114.778 52.056C114.826 52.056 115.102 52.008 115.606 51.912C116.134 51.792 116.698 51.66 117.298 51.516C117.994 51.372 118.762 51.192 119.602 50.976L120.178 53.352C119.266 53.544 118.426 53.712 117.658 53.856C117.01 53.976 116.398 54.084 115.822 54.18C115.246 54.276 114.898 54.324 114.778 54.324C113.986 54.324 113.23 54.18 112.51 53.892C111.814 53.604 111.202 53.208 110.674 52.704C110.146 52.2 109.726 51.6 109.414 50.904C109.102 50.208 108.946 49.44 108.946 48.6V40.86ZM139.341 45.252C139.341 45.228 139.233 45.168 139.017 45.072C138.825 44.952 138.561 44.832 138.225 44.712C137.889 44.592 137.493 44.484 137.037 44.388C136.581 44.292 136.101 44.244 135.597 44.244C134.853 44.244 134.217 44.52 133.689 45.072C133.185 45.624 132.933 46.272 132.933 47.016V49.248C132.933 50.016 133.185 50.676 133.689 51.228C134.217 51.756 134.841 52.02 135.561 52.02C135.825 52.02 136.173 51.96 136.605 51.84C137.037 51.72 137.457 51.588 137.865 51.444C138.321 51.276 138.813 51.072 139.341 50.832V45.252ZM141.609 51.948L142.401 52.668L140.781 54.288L139.809 53.316C139.065 53.676 138.285 53.94 137.469 54.108C136.653 54.276 136.029 54.36 135.597 54.36C134.901 54.36 134.253 54.228 133.653 53.964C133.053 53.676 132.537 53.292 132.105 52.812C131.673 52.332 131.325 51.78 131.061 51.156C130.821 50.508 130.701 49.824 130.701 49.104V47.124C130.701 46.428 130.821 45.768 131.061 45.144C131.325 44.52 131.673 43.98 132.105 43.524C132.537 43.044 133.053 42.672 133.653 42.408C134.253 42.12 134.901 41.976 135.597 41.976C135.741 41.976 135.957 41.988 136.245 42.012C136.557 42.012 136.893 42.048 137.253 42.12C137.613 42.168 137.973 42.252 138.333 42.372C138.717 42.468 139.065 42.6 139.377 42.768V42.012C139.377 41.508 139.281 41.004 139.089 40.5C138.921 39.996 138.681 39.552 138.369 39.168C138.057 38.784 137.685 38.472 137.253 38.232C136.845 37.992 136.413 37.872 135.957 37.872C135.789 37.872 135.453 37.932 134.949 38.052C134.469 38.172 133.953 38.292 133.401 38.412C132.777 38.58 132.081 38.76 131.313 38.952L130.701 36.792C131.493 36.576 132.237 36.384 132.933 36.216C133.533 36.072 134.121 35.94 134.697 35.82C135.273 35.7 135.693 35.64 135.957 35.64C136.725 35.64 137.445 35.82 138.117 36.18C138.813 36.54 139.413 37.02 139.917 37.62C140.421 38.22 140.817 38.904 141.105 39.672C141.417 40.416 141.573 41.196 141.573 42.012L141.609 51.948ZM135.525 33.372L131.457 27.72H134.229L137.937 33.372H135.525ZM47.176 77.344C47.176 78.24 47.016 79.0933 46.696 79.904C46.376 80.7147 45.9387 81.4187 45.384 82.016C44.8293 82.6133 44.1787 83.0933 43.432 83.456C42.6853 83.7973 41.8747 83.968 41 83.968C40.168 83.968 39.3467 83.8613 38.536 83.648C37.7253 83.4133 37 83.1573 36.36 82.88C35.6133 82.56 34.9093 82.1973 34.248 81.792L35.016 79.68C35.7627 80.064 36.488 80.3947 37.192 80.672C37.8107 80.928 38.4613 81.1627 39.144 81.376C39.8267 81.568 40.4347 81.664 40.968 81.664C41.5227 81.664 42.0453 81.5573 42.536 81.344C43.0267 81.1093 43.4427 80.8 43.784 80.416C44.1467 80.032 44.424 79.584 44.616 79.072C44.8293 78.56 44.936 78.0053 44.936 77.408C44.936 76.8107 44.7973 76.3093 44.52 75.904C44.2427 75.4987 43.88 75.168 43.432 74.912C43.0053 74.6347 42.5253 74.4213 41.992 74.272C41.48 74.1227 40.9787 74.0053 40.488 73.92C39.6773 73.792 38.92 73.568 38.216 73.248C37.512 72.9067 36.8933 72.48 36.36 71.968C35.848 71.456 35.432 70.8587 35.112 70.176C34.8133 69.472 34.664 68.6827 34.664 67.808C34.664 66.912 34.824 66.0693 35.144 65.28C35.464 64.4907 35.9013 63.808 36.456 63.232C37.0107 62.6347 37.6507 62.1653 38.376 61.824C39.1227 61.4613 39.912 61.28 40.744 61.28C41.256 61.28 41.7893 61.344 42.344 61.472C42.8987 61.5787 43.4213 61.7067 43.912 61.856C44.4667 62.0267 45.0213 62.2187 45.576 62.432L44.872 64.608C44.3813 64.416 43.8907 64.2453 43.4 64.096C42.9733 63.968 42.5147 63.8507 42.024 63.744C41.5547 63.616 41.1067 63.552 40.68 63.552C40.1467 63.552 39.6453 63.6693 39.176 63.904C38.7067 64.1387 38.3013 64.448 37.96 64.832C37.6187 65.216 37.352 65.664 37.16 66.176C36.968 66.6667 36.872 67.1787 36.872 67.712C36.872 68.3307 37 68.8747 37.256 69.344C37.512 69.792 37.832 70.176 38.216 70.496C38.6213 70.816 39.0587 71.072 39.528 71.264C39.9973 71.456 40.4453 71.5947 40.872 71.68C41.7467 71.8293 42.568 72.0427 43.336 72.32C44.104 72.5973 44.7653 72.96 45.32 73.408C45.896 73.856 46.344 74.4 46.664 75.04C47.0053 75.68 47.176 76.448 47.176 77.344ZM57.0255 76.224C57.0255 76.2027 56.9295 76.1493 56.7375 76.064C56.5668 75.9573 56.3322 75.8507 56.0335 75.744C55.7348 75.6373 55.3828 75.5413 54.9775 75.456C54.5722 75.3707 54.1455 75.328 53.6975 75.328C53.0362 75.328 52.4708 75.5733 52.0015 76.064C51.5535 76.5547 51.3295 77.1307 51.3295 77.792V79.776C51.3295 80.4587 51.5535 81.0453 52.0015 81.536C52.4708 82.0053 53.0255 82.24 53.6655 82.24C53.9002 82.24 54.2095 82.1867 54.5935 82.08C54.9775 81.9733 55.3508 81.856 55.7135 81.728C56.1188 81.5787 56.5562 81.3973 57.0255 81.184V76.224ZM59.0415 82.176L59.7455 82.816L58.3055 84.256L57.4415 83.392C56.7802 83.712 56.0868 83.9467 55.3615 84.096C54.6362 84.2453 54.0815 84.32 53.6975 84.32C53.0788 84.32 52.5028 84.2027 51.9695 83.968C51.4362 83.712 50.9775 83.3707 50.5935 82.944C50.2095 82.5173 49.9002 82.0267 49.6655 81.472C49.4522 80.896 49.3455 80.288 49.3455 79.648V77.888C49.3455 77.2693 49.4522 76.6827 49.6655 76.128C49.9002 75.5733 50.2095 75.0933 50.5935 74.688C50.9775 74.2613 51.4362 73.9307 51.9695 73.696C52.5028 73.44 53.0788 73.312 53.6975 73.312C53.8255 73.312 54.0175 73.3227 54.2735 73.344C54.5508 73.344 54.8495 73.376 55.1695 73.44C55.4895 73.4827 55.8095 73.5573 56.1295 73.664C56.4708 73.7493 56.7802 73.8667 57.0575 74.016V73.344C57.0575 72.896 56.9722 72.448 56.8015 72C56.6522 71.552 56.4388 71.1573 56.1615 70.816C55.8842 70.4747 55.5535 70.1973 55.1695 69.984C54.8068 69.7707 54.4228 69.664 54.0175 69.664C53.8682 69.664 53.5695 69.7173 53.1215 69.824C52.6948 69.9307 52.2362 70.0373 51.7455 70.144C51.1908 70.2933 50.5722 70.4533 49.8895 70.624L49.3455 68.704C50.0495 68.512 50.7108 68.3413 51.3295 68.192C51.8628 68.064 52.3855 67.9467 52.8975 67.84C53.4095 67.7333 53.7828 67.68 54.0175 67.68C54.7002 67.68 55.3402 67.84 55.9375 68.16C56.5562 68.48 57.0895 68.9067 57.5375 69.44C57.9855 69.9733 58.3375 70.5813 58.5935 71.264C58.8708 71.9253 59.0095 72.6187 59.0095 73.344L59.0415 82.176ZM72.2998 70.4C72.5558 70.9547 72.7051 71.4987 72.7478 72.032C72.7904 72.5653 72.8118 73.12 72.8118 73.696V84H70.7318V72.736C70.7318 71.7547 70.4651 71.008 69.9318 70.496C69.4198 69.9627 68.8438 69.696 68.2038 69.696C67.8411 69.696 67.3718 69.7493 66.7958 69.856C66.2411 69.9413 65.5904 70.2293 64.8438 70.72V84H62.8278V69.824L62.0598 69.088L63.4678 67.648L64.4598 68.608C65.5691 68.0107 66.6358 67.712 67.6598 67.712C68.6198 67.712 69.5264 67.9147 70.3798 68.32C71.2331 68.7253 71.8731 69.4187 72.2998 70.4ZM77.857 69.952H75.201V67.968H77.857V61.76H79.937V67.968H82.785V69.952H79.937V79.904C79.937 80.672 80.129 81.2053 80.513 81.504C80.897 81.7813 81.3557 81.92 81.889 81.92H82.785V84.032H81.729C80.641 84.032 79.7237 83.7013 78.977 83.04C78.2303 82.3573 77.857 81.2587 77.857 79.744V69.952ZM90.7328 76.064C91.3941 76.064 91.9488 75.808 92.3968 75.296C92.8661 74.7627 93.1008 74.1547 93.1008 73.472V72.16C93.1008 71.712 93.0154 71.3387 92.8448 71.04C92.6741 70.72 92.4394 70.464 92.1408 70.272C91.8634 70.08 91.5328 69.9413 91.1488 69.856C90.7648 69.7707 90.3701 69.728 89.9648 69.728C89.2394 69.728 88.5994 69.952 88.0448 70.4C87.4901 70.8267 87.2128 71.4133 87.2128 72.16V76.032L90.7328 76.064ZM85.1328 72.32C85.1328 71.68 85.2501 71.0827 85.4848 70.528C85.7194 69.952 86.0394 69.4613 86.4448 69.056C86.8501 68.6293 87.3194 68.2987 87.8528 68.064C88.4074 67.808 88.9941 67.68 89.6128 67.68H90.6688C91.2874 67.68 91.8634 67.7973 92.3968 68.032C92.9514 68.2667 93.4314 68.5973 93.8368 69.024C94.2421 69.4293 94.5621 69.92 94.7968 70.496C95.0314 71.0507 95.1488 71.6587 95.1488 72.32V73.344C95.1488 74.2613 94.9888 75.0293 94.6688 75.648C94.3488 76.2667 93.9008 76.768 93.3248 77.152C92.7701 77.536 92.1194 77.8133 91.3728 77.984C90.6261 78.1547 89.8368 78.24 89.0048 78.24C88.4074 78.24 87.8101 78.208 87.2128 78.144V79.744C87.3621 80.4907 87.7248 81.0987 88.3008 81.568C88.8981 82.0373 89.5701 82.272 90.3168 82.272C90.3594 82.272 90.6048 82.2293 91.0528 82.144C91.5221 82.0373 92.0234 81.92 92.5568 81.792C93.1754 81.664 93.8581 81.504 94.6048 81.312L95.1168 83.424C94.3061 83.5947 93.5594 83.744 92.8767 83.872C92.3008 83.9787 91.7568 84.0747 91.2448 84.16C90.7328 84.2453 90.4234 84.288 90.3168 84.288C89.6128 84.288 88.9408 84.16 88.3008 83.904C87.6821 83.648 87.1381 83.296 86.6688 82.848C86.1994 82.4 85.8261 81.8667 85.5488 81.248C85.2714 80.6293 85.1328 79.9467 85.1328 79.2V72.32ZM91.1168 65.632H88.9728L92.2688 60.608H94.7328L91.1168 65.632ZM110.871 63.552C110.529 63.552 110.167 63.5947 109.783 63.68C109.399 63.744 109.047 63.8293 108.727 63.936C108.343 64.0427 107.969 64.16 107.607 64.288V72.768H110.871C112.321 72.768 113.484 72.3733 114.359 71.584C115.233 70.7733 115.671 69.5787 115.671 68C115.671 66.4427 115.223 65.312 114.327 64.608C113.431 63.904 112.279 63.552 110.871 63.552ZM111.127 61.28C112.023 61.28 112.876 61.44 113.687 61.76C114.497 62.08 115.212 62.5387 115.831 63.136C116.449 63.712 116.94 64.416 117.303 65.248C117.687 66.0587 117.879 66.976 117.879 68C117.879 69.024 117.708 69.9733 117.367 70.848C117.025 71.7013 116.545 72.448 115.927 73.088C115.329 73.7067 114.615 74.1867 113.783 74.528C112.951 74.8693 112.055 75.04 111.095 75.04H107.575V84H105.463V62.592C106.039 62.3573 106.647 62.144 107.286 61.952C107.841 61.7813 108.449 61.632 109.111 61.504C109.772 61.3547 110.444 61.28 111.127 61.28ZM129.66 79.488C129.66 81.088 129.254 82.2933 128.444 83.104C127.654 83.9147 126.62 84.32 125.34 84.32C124.956 84.32 124.561 84.2773 124.156 84.192C123.75 84.128 123.334 84.0107 122.908 83.84L120.156 82.752L120.924 80.992L123.708 82.112C123.985 82.2187 124.262 82.2933 124.54 82.336C124.838 82.3787 125.116 82.4 125.372 82.4C126.033 82.4 126.588 82.144 127.036 81.632C127.505 81.0987 127.74 80.3413 127.74 79.36C127.74 78.9547 127.654 78.6133 127.484 78.336C127.334 78.0373 127.132 77.8027 126.876 77.632C126.641 77.4613 126.374 77.3333 126.076 77.248C125.798 77.1627 125.532 77.12 125.276 77.12C124.508 77.12 123.804 77.0453 123.164 76.896C122.545 76.7467 122.012 76.5013 121.564 76.16C121.116 75.7973 120.774 75.328 120.54 74.752C120.305 74.1547 120.188 73.408 120.188 72.512C120.188 71.7227 120.305 71.0293 120.54 70.432C120.774 69.8133 121.084 69.3013 121.468 68.896C121.873 68.4907 122.342 68.192 122.876 68C123.43 67.7867 124.028 67.68 124.668 67.68C125.052 67.68 125.436 67.7333 125.82 67.84C126.204 67.9253 126.609 68.0427 127.036 68.192L128.284 68.64L127.484 70.4C126.929 70.208 126.492 70.0587 126.172 69.952C125.873 69.8453 125.628 69.7707 125.436 69.728C125.265 69.6853 125.137 69.664 125.052 69.664C124.966 69.6427 124.881 69.632 124.796 69.632H124.636C123.974 69.632 123.388 69.8987 122.876 70.432C122.364 70.9653 122.108 71.712 122.108 72.672C122.108 73.0773 122.193 73.44 122.364 73.76C122.556 74.0587 122.78 74.3147 123.036 74.528C123.292 74.7413 123.569 74.9013 123.868 75.008C124.188 75.1147 124.476 75.168 124.732 75.168C125.414 75.168 126.054 75.232 126.652 75.36C127.249 75.4667 127.772 75.68 128.22 76C128.668 76.32 129.02 76.7573 129.276 77.312C129.532 77.8667 129.66 78.592 129.66 79.488ZM134.118 91.776L135.398 84H135.238L131.014 68H133.062C133.617 70.2827 134.097 72.224 134.502 73.824C134.929 75.4027 135.281 76.704 135.558 77.728C135.878 78.9013 136.156 79.872 136.39 80.64H136.422C136.444 80.512 136.518 80.1707 136.646 79.616C136.796 79.0613 136.998 78.272 137.254 77.248C137.532 76.224 137.873 74.9547 138.278 73.44C138.705 71.904 139.217 70.0907 139.814 68H141.894L137.606 84H137.414C137.222 85.28 137.009 86.5707 136.774 87.872C136.54 89.1947 136.337 90.496 136.166 91.776H134.118ZM160.743 61.6V63.84H153.671V71.616H159.207V73.856H153.671V81.696H160.807V83.968H151.463V61.6H160.743ZM156.551 59.424H154.407L157.703 54.4H160.167L156.551 59.424ZM165.045 69.952H162.389V67.968H165.045V61.76H167.125V67.968H169.973V69.952H167.125V79.904C167.125 80.672 167.317 81.2053 167.701 81.504C168.085 81.7813 168.543 81.92 169.077 81.92H169.973V84.032H168.917C167.829 84.032 166.911 83.7013 166.165 83.04C165.418 82.3573 165.045 81.2587 165.045 79.744V69.952ZM173.024 81.568C172.747 81.0133 172.587 80.4693 172.544 79.936C172.502 79.4027 172.48 78.848 172.48 78.272V68H174.528V79.232C174.528 80.2133 174.795 80.9707 175.328 81.504C175.862 82.016 176.448 82.272 177.088 82.272C177.707 82.272 178.326 82.1653 178.944 81.952C179.584 81.7173 180.086 81.4827 180.448 81.248V68H182.464V82.144L183.264 82.88L181.824 84.32L180.864 83.36C180.267 83.6587 179.627 83.8827 178.944 84.032C178.262 84.1813 177.654 84.256 177.12 84.256C176.331 84.256 175.552 84.0533 174.784 83.648C174.038 83.2427 173.451 82.5493 173.024 81.568ZM193.75 70.752C193.11 70.368 192.47 70.1013 191.83 69.952C191.212 69.8027 190.742 69.728 190.422 69.728C189.761 69.728 189.196 69.9733 188.726 70.464C188.278 70.9547 188.054 71.5413 188.054 72.224V79.808C188.054 80.4907 188.278 81.0773 188.726 81.568C189.196 82.0373 189.75 82.272 190.39 82.272C190.582 82.272 190.838 82.2507 191.158 82.208C191.5 82.144 191.841 82.0693 192.182 81.984C192.545 81.8987 192.865 81.8027 193.142 81.696C193.441 81.568 193.644 81.4293 193.75 81.28V70.752ZM193.782 61.792H195.766V82.208L196.566 82.976L195.126 84.384L194.166 83.424C193.526 83.744 192.844 83.968 192.118 84.096C191.414 84.224 190.849 84.288 190.422 84.288C189.804 84.288 189.228 84.1707 188.694 83.936C188.182 83.7013 187.724 83.3813 187.318 82.976C186.934 82.5493 186.625 82.0587 186.39 81.504C186.177 80.928 186.07 80.32 186.07 79.68V72.32C186.07 71.68 186.177 71.0827 186.39 70.528C186.625 69.9733 186.934 69.4933 187.318 69.088C187.724 68.6613 188.182 68.3307 188.694 68.096C189.228 67.84 189.804 67.712 190.422 67.712C190.742 67.712 191.19 67.7547 191.766 67.84C192.364 67.904 193.036 68.1173 193.782 68.48V61.792ZM199.671 61.76H201.783V64.64H199.671V61.76ZM199.671 68H201.783V84H199.671V68ZM212.838 76.224C212.838 76.2027 212.742 76.1493 212.55 76.064C212.379 75.9573 212.145 75.8507 211.846 75.744C211.547 75.6373 211.195 75.5413 210.79 75.456C210.385 75.3707 209.958 75.328 209.51 75.328C208.849 75.328 208.283 75.5733 207.814 76.064C207.366 76.5547 207.142 77.1307 207.142 77.792V79.776C207.142 80.4587 207.366 81.0453 207.814 81.536C208.283 82.0053 208.838 82.24 209.478 82.24C209.713 82.24 210.022 82.1867 210.406 82.08C210.79 81.9733 211.163 81.856 211.526 81.728C211.931 81.5787 212.369 81.3973 212.838 81.184V76.224ZM214.854 82.176L215.558 82.816L214.118 84.256L213.254 83.392C212.593 83.712 211.899 83.9467 211.174 84.096C210.449 84.2453 209.894 84.32 209.51 84.32C208.891 84.32 208.315 84.2027 207.782 83.968C207.249 83.712 206.79 83.3707 206.406 82.944C206.022 82.5173 205.713 82.0267 205.478 81.472C205.265 80.896 205.158 80.288 205.158 79.648V77.888C205.158 77.2693 205.265 76.6827 205.478 76.128C205.713 75.5733 206.022 75.0933 206.406 74.688C206.79 74.2613 207.249 73.9307 207.782 73.696C208.315 73.44 208.891 73.312 209.51 73.312C209.638 73.312 209.83 73.3227 210.086 73.344C210.363 73.344 210.662 73.376 210.982 73.44C211.302 73.4827 211.622 73.5573 211.942 73.664C212.283 73.7493 212.593 73.8667 212.87 74.016V73.344C212.87 72.896 212.785 72.448 212.614 72C212.465 71.552 212.251 71.1573 211.974 70.816C211.697 70.4747 211.366 70.1973 210.982 69.984C210.619 69.7707 210.235 69.664 209.83 69.664C209.681 69.664 209.382 69.7173 208.934 69.824C208.507 69.9307 208.049 70.0373 207.558 70.144C207.003 70.2933 206.385 70.4533 205.702 70.624L205.158 68.704C205.862 68.512 206.523 68.3413 207.142 68.192C207.675 68.064 208.198 67.9467 208.71 67.84C209.222 67.7333 209.595 67.68 209.83 67.68C210.513 67.68 211.153 67.84 211.75 68.16C212.369 68.48 212.902 68.9067 213.35 69.44C213.798 69.9733 214.15 70.5813 214.406 71.264C214.683 71.9253 214.822 72.6187 214.822 73.344L214.854 82.176ZM228.112 70.4C228.368 70.9547 228.518 71.4987 228.56 72.032C228.603 72.5653 228.624 73.12 228.624 73.696V84H226.544V72.736C226.544 71.7547 226.278 71.008 225.744 70.496C225.232 69.9627 224.656 69.696 224.016 69.696C223.654 69.696 223.184 69.7493 222.608 69.856C222.054 69.9413 221.403 70.2293 220.656 70.72V84H218.64V69.824L217.872 69.088L219.28 67.648L220.272 68.608C221.382 68.0107 222.448 67.712 223.472 67.712C224.432 67.712 225.339 67.9147 226.192 68.32C227.046 68.7253 227.686 69.4187 228.112 70.4ZM233.67 69.952H231.014V67.968H233.67V61.76H235.75V67.968H238.598V69.952H235.75V79.904C235.75 80.672 235.942 81.2053 236.326 81.504C236.71 81.7813 237.168 81.92 237.702 81.92H238.598V84.032H237.542C236.454 84.032 235.536 83.7013 234.79 83.04C234.043 82.3573 233.67 81.2587 233.67 79.744V69.952ZM251.957 83.552V81.184H250.229V83.552H251.957ZM258.293 67.008C258.293 67.712 258.186 68.3093 257.973 68.8C257.781 69.2907 257.567 69.7173 257.333 70.08L252.885 76.768C252.693 77.0667 252.522 77.376 252.373 77.696C252.245 77.9947 252.181 78.3573 252.181 78.784V79.648H249.941V78.816C249.941 78.0693 250.037 77.44 250.229 76.928C250.421 76.416 250.634 75.9787 250.869 75.616C251.551 74.5707 252.255 73.5147 252.981 72.448C253.706 71.3813 254.41 70.3253 255.093 69.28C255.327 68.9387 255.551 68.5653 255.765 68.16C255.978 67.7547 256.085 67.3813 256.085 67.04C256.085 66.528 255.957 66.0693 255.701 65.664C255.445 65.2587 255.125 64.9173 254.741 64.64C254.357 64.3413 253.941 64.1173 253.493 63.968C253.066 63.8187 252.682 63.744 252.341 63.744C252.106 63.744 251.861 63.776 251.605 63.84C251.349 63.904 251.103 63.9787 250.869 64.064L247.605 65.28L246.868 63.168L249.685 62.016C250.047 61.8667 250.485 61.7387 250.997 61.632C251.509 61.5253 251.946 61.472 252.309 61.472C253.098 61.472 253.845 61.6107 254.549 61.888C255.274 62.144 255.914 62.5173 256.469 63.008C257.023 63.4987 257.461 64.0853 257.781 64.768C258.122 65.4293 258.293 66.176 258.293 67.008Z" fill="white"/>
</svg>
