<svg width="280" height="243" viewBox="0 0 280 243" fill="none" xmlns="http://www.w3.org/2000/svg">
<path d="M50.6133 241.498V219.173" stroke="#FBABAC" stroke-width="1.88976" stroke-linecap="round" stroke-linejoin="round"/>
<path d="M1.00586 240.67V160.841" stroke="#FBABAC" stroke-width="1.88976" stroke-linecap="round" stroke-linejoin="round"/>
<path fill-rule="evenodd" clip-rule="evenodd" d="M275.603 201.297C275.603 201.297 280.399 224.704 277.367 241.298H138.886C140.556 237.971 145.686 230.342 160.169 222.526C179.475 212.105 213.637 209.019 213.637 209.019L275.603 201.297Z" fill="black" stroke="black" stroke-width="0.755906" stroke-linecap="round" stroke-linejoin="round"/>
<path fill-rule="evenodd" clip-rule="evenodd" d="M123.815 47.1838C128.986 40.1428 123.668 32.4205 112.713 32.1266C95.8118 31.6857 90.0802 40.1295 92.2045 46.4623L89.332 51.6729L95.3041 50.6976C96.8005 51.8599 98.7779 52.715 101.143 53.0624C108.397 53.3697 119.139 53.5701 123.815 47.1838Z" fill="white" stroke="black" stroke-width="1.88976" stroke-linecap="round" stroke-linejoin="round"/>
<path fill-rule="evenodd" clip-rule="evenodd" d="M102.078 42.6145C102.813 42.6145 103.414 43.2291 103.414 43.9773C103.414 44.7254 102.813 45.34 102.078 45.34C101.343 45.34 100.755 44.7254 100.755 43.9773C100.755 43.2291 101.343 42.6145 102.078 42.6145ZM116.16 40.5303C116.895 40.5303 117.496 41.1315 117.496 41.8797C117.496 42.6279 116.895 43.2424 116.16 43.2424C115.425 43.2424 114.837 42.6279 114.837 41.8797C114.837 41.1315 115.425 40.5303 116.16 40.5303ZM108.985 41.6926C109.72 41.6926 110.321 42.3072 110.321 43.0554C110.321 43.8036 109.72 44.4182 108.985 44.4182C108.251 44.4182 107.649 43.8036 107.649 43.0554C107.649 42.3072 108.251 41.6926 108.985 41.6926Z" fill="black"/>
<path fill-rule="evenodd" clip-rule="evenodd" d="M154.638 23.6027C150.67 43.5231 171.419 56.4961 185.741 46.4223C187.478 47.2373 191.312 49.0142 191.606 48.9741C191.9 48.9341 191.513 43.8972 191.326 41.7194C201.132 32.0197 202.642 21.1176 197.311 13.088C183.844 -7.21985 158.86 2.39966 154.638 23.6027Z" fill="white" stroke="black" stroke-width="1.88976" stroke-linecap="round" stroke-linejoin="round"/>
<path d="M178.152 14.6377C178.152 14.6377 178.86 10.8567 175.48 11.6048C172.113 12.353 171.151 35.4933 174.478 37.1634C177.818 38.8334 177.724 31.8726 177.724 31.8726" stroke="#FCC63A" stroke-width="1.5" stroke-linecap="round" stroke-linejoin="round"/>
<path d="M171.031 16.3479C171.031 16.3479 167.156 13.8095 166.528 16.054C165.914 18.3119 174.612 27.544 179.809 31.7124C185.019 35.8675 185.474 33.7967 184.685 31.8728C183.897 29.9622 182.895 28.8399 182.895 28.8399" stroke="#FCC63A" stroke-width="1.5" stroke-linecap="round" stroke-linejoin="round"/>
<path d="M184.271 18.5122C184.271 18.5122 187.798 17.0559 186.636 14.4773C185.474 11.8988 178.486 16.5215 172.648 21.3446C166.823 26.1677 163.87 31.0042 163.83 33.7564C163.79 36.4953 169.989 31.3382 169.989 31.3382" stroke="#FCC63A" stroke-width="1.5" stroke-linecap="round" stroke-linejoin="round"/>
<path d="M165.032 25.8472C165.032 25.8472 159.194 24.0436 164.07 22.3869C168.96 20.7302 181.479 20.5966 187.01 21.9727C192.555 23.3488 189.014 25.4598 187.478 25.6735C185.928 25.8873 183.309 26.3015 183.309 26.3015" stroke="#FCC63A" stroke-width="1.5" stroke-linecap="round" stroke-linejoin="round"/>
<path d="M178.312 27.17L178.727 19.4744" stroke="#FCC63A" stroke-width="1.5" stroke-linecap="round" stroke-linejoin="round"/>
<path fill-rule="evenodd" clip-rule="evenodd" d="M0.992676 160.788L50.9874 221.978L265.062 179.519L202.708 121.414L0.992676 160.788Z" fill="#FBABAC" stroke="#FBABAC" stroke-width="1.88976" stroke-linecap="round" stroke-linejoin="round"/>
<path fill-rule="evenodd" clip-rule="evenodd" d="M51.0674 62.7087C51.0674 62.7087 46.3778 62.6152 43.7859 64.165C41.2074 65.7014 38.9628 69.4824 38.9628 69.4824C38.9628 69.4824 29.4502 72.9294 23.1307 78.9416C19.1359 83.3239 16.9582 90.445 16.9582 90.445C13.097 102.803 5.60179 125.369 9.06215 137.233C14.5399 155.978 51.8289 158.77 67.5942 156.245L68.5161 147.08L79.2445 144.889C79.2445 144.889 77.4943 124.153 78.6566 122.323C79.8056 120.493 81.8364 118.074 81.8364 118.074C81.8364 118.074 83.9607 123.285 88.3029 127.346C92.645 131.395 95.6378 131.969 95.6378 131.969L104.416 121.748C104.416 121.748 96.8936 107.079 90.1333 88.1603C83.3862 69.242 66.5788 68.3735 66.5788 68.3735C66.5788 68.3735 62.9715 61.9071 51.0674 62.7087Z" fill="black"/>
<path fill-rule="evenodd" clip-rule="evenodd" d="M92.0308 117.607L132.606 107.413L117.429 157.741L78.3765 167.414L86.6332 136.659L92.0308 117.607Z" fill="#FCC63A"/>
<path d="M39.3369 70.4043C39.3369 70.4043 40.3523 74.5995 43.2382 78.0331C46.1374 81.4534 49.0366 83.5242 49.0366 83.5242C50.8803 81.3599 54.4476 77.6857 57.7342 77.4319" stroke="white" stroke-width="1.88976" stroke-linecap="round" stroke-linejoin="round"/>
<path d="M67.3005 69.7629C68.8637 72.769 70.9479 77.1646 71.2285 80.1974C71.2285 80.1974 66.0446 76.9108 63.7065 76.4565C62.6377 76.2561 61.8227 76.4031 61.2349 76.6436" stroke="white" stroke-width="1.88976" stroke-linecap="round" stroke-linejoin="round"/>
<path d="M35.075 96.7511L28.9692 128.883C43.7993 134.12 54.4877 136.325 67.6878 139.892" stroke="white" stroke-width="1.88976" stroke-linecap="round" stroke-linejoin="round"/>
<path d="M22.5161 131.114C22.5161 131.114 24.1327 130.059 25.6291 129.537C27.1255 129.016 28.9826 128.829 28.9826 128.829" stroke="white" stroke-width="1.88976" stroke-linecap="round" stroke-linejoin="round"/>
<path d="M77.4277 88.4542C77.4277 88.4542 78.4298 96.7911 82.0104 103.939C85.5776 111.087 82.7318 116.244 82.7318 116.244" stroke="white" stroke-width="1.88976" stroke-linecap="round" stroke-linejoin="round"/>
<path d="M63.1854 94.9206C63.1854 94.9206 61.1145 89.6566 60.5801 86.0359C60.0457 82.4153 59.8052 78.701 59.8052 78.701" stroke="white" stroke-width="1.88976" stroke-linecap="round" stroke-linejoin="round"/>
<path d="M63.8008 86.7949C64.3953 86.8902 64.9638 86.4273 65.0707 85.7609C65.1776 85.0945 64.7823 84.4769 64.1878 84.3816C63.5933 84.2863 63.0247 84.7492 62.9178 85.4156C62.811 86.082 63.2063 86.6995 63.8008 86.7949Z" fill="white"/>
<path fill-rule="evenodd" clip-rule="evenodd" d="M104.816 118.021L117.616 114.814L119.486 108.615L115.852 109.537C115.705 108.695 115.131 107.693 113.18 108.188C111.323 108.655 110.388 110.005 109.947 111.047L106.553 111.902L104.816 118.021Z" fill="black" stroke="black" stroke-width="0.755906" stroke-linecap="round" stroke-linejoin="round"/>
<path fill-rule="evenodd" clip-rule="evenodd" d="M259.37 48.8541C259.37 48.8541 254.454 37.471 238.915 37.3775C223.377 37.2706 220.331 46.6897 218.928 55.1335C217.525 63.5773 210.19 71.7806 210.19 71.7806L215.601 73.8515C215.601 73.8515 214.826 77.6191 215.12 77.5657C215.414 77.5256 221.734 80.9058 221.774 81.1463C221.827 81.3868 215.655 84.139 215.989 84.954C216.323 85.7823 217.191 85.6354 217.245 86.4504C217.285 87.2787 214.492 93.8387 220.718 93.7452C226.944 93.6383 228.387 92.7698 229.109 96.631C229.844 100.492 229.403 106.478 229.403 106.478L249.671 102.817C249.671 102.817 248.228 86.9848 248.228 84.0856C248.228 81.1863 265.596 67.4919 259.37 48.8541Z" fill="white" stroke="black" stroke-width="1.88976" stroke-linecap="round" stroke-linejoin="round"/>
<path d="M222.402 66.1156C223.132 66.1156 223.724 65.4217 223.724 64.5658C223.724 63.7099 223.132 63.016 222.402 63.016C221.671 63.016 221.079 63.7099 221.079 64.5658C221.079 65.4217 221.671 66.1156 222.402 66.1156Z" fill="black" stroke="black" stroke-width="0.755906" stroke-linecap="round" stroke-linejoin="round"/>
<path d="M222.241 58.5535C222.241 58.5535 223.952 59.2749 225.087 59.983C226.223 60.6778 226.824 61.3057 226.824 61.3057" stroke="black" stroke-width="1.88976" stroke-linecap="round" stroke-linejoin="round"/>
<path fill-rule="evenodd" clip-rule="evenodd" d="M252.423 36.5088C252.423 36.5088 244.126 33.2221 234.76 32.7411C225.394 32.2602 215.641 28.3055 213.904 30.8573C212.168 33.4092 215.16 35.8274 215.16 35.8274C215.16 35.8274 208.213 36.1213 209.522 39.595C210.818 43.0688 214.532 43.6967 214.532 43.6967C214.532 43.6967 210.778 47.117 212.996 48.2793C215.214 49.4417 226.209 49.9627 229.977 51.9C233.745 53.8239 232.876 58.794 232.876 62.0807C232.876 65.3673 235.482 64.2985 236.109 67.6252C236.737 70.9653 235.575 71.3394 236.924 71.8338C238.274 72.3147 237.365 63.6305 244.019 65.0199C250.686 66.4228 245.903 75.5212 244.313 77.1913C242.723 78.848 241.828 79.3824 241.828 79.3824C241.828 79.3824 240.719 91.0327 243.084 93.785C245.448 96.5372 246.384 93.9854 247.666 94.2659C248.949 94.5465 251.193 94.8939 252.062 93.3975C252.93 91.9011 258.181 76.4164 262.042 69.5625C265.903 62.7086 269.871 40.1161 252.423 36.5088Z" fill="black" stroke="black" stroke-width="0.755906" stroke-linecap="round" stroke-linejoin="round"/>
<path d="M240.826 76.3762C240.826 76.3762 239.196 74.1583 240.398 70.8717C241.601 67.5984 244.687 67.7854 244.687 67.7854" stroke="black" stroke-width="1.88976" stroke-linecap="round" stroke-linejoin="round"/>
<path d="M243.779 72.4216L240.572 70.4576" stroke="black" stroke-width="1.88976" stroke-linecap="round" stroke-linejoin="round"/>
<path fill-rule="evenodd" clip-rule="evenodd" d="M171.939 121.748C171.939 121.748 170.63 118.382 171.124 113.986C171.605 109.59 171.552 100.064 170.897 96.7511C170.256 93.451 169.454 90.1243 168.706 89.5899C167.958 89.0555 166.769 90.7656 166.675 92.5025C166.582 94.2527 166.341 97.6729 166.341 97.6729C166.341 97.6729 157.697 84.4461 155.813 83.0032C153.943 81.5603 152.781 82.5623 152.781 82.5623C148.425 80.438 150.443 88.0935 151.231 89.8838C151.231 89.8838 149.28 90.819 149.668 94.2527C150.055 97.6729 149.427 104.326 150.817 110.512C152.219 116.685 157.39 122.096 157.39 122.096L158.98 131.795L171.939 121.748Z" fill="white" stroke="black" stroke-width="1.88976" stroke-linecap="round" stroke-linejoin="round"/>
<path d="M160.717 98.9288C158.005 93.785 155.359 87.5724 152.781 82.5623" stroke="black" stroke-width="1.88976" stroke-linecap="round" stroke-linejoin="round"/>
<path d="M155.693 101.748C154.184 98.3276 153.008 94.0122 151.231 89.8838" stroke="black" stroke-width="1.88976" stroke-linecap="round" stroke-linejoin="round"/>
<path d="M152.126 105.075L149.761 95.6554" stroke="black" stroke-width="1.88976" stroke-linecap="round" stroke-linejoin="round"/>
<path fill-rule="evenodd" clip-rule="evenodd" d="M233.143 104.286C233.143 104.286 251.087 98.7819 260.359 101.387C269.617 103.992 274.641 116.832 276.952 133.425C279.277 150.032 279.371 200.896 278.502 206.106C277.634 211.317 249.644 221.845 229.67 220.295C209.683 218.745 205.434 212.666 205.915 208.524C206.409 204.369 206.503 187.869 206.503 187.869C206.503 187.869 197.137 206.293 179.475 199.346C161.812 192.398 156.014 126.291 156.014 126.291C156.014 126.291 158.138 121.748 164.898 120.105C171.659 118.475 173.102 120.012 173.102 120.012L186.328 156.592C186.328 156.592 197.044 124.554 208.52 115.282C220.01 106.023 233.143 104.286 233.143 104.286Z" fill="#B1B1F9"/>
<path d="M178.406 176.767L185.848 158.329" stroke="black" stroke-width="1.88976" stroke-linecap="round" stroke-linejoin="round"/>
<path d="M222.094 151.769L208.133 185.21" stroke="black" stroke-width="1.88976" stroke-linecap="round" stroke-linejoin="round"/>
<path d="M156.481 130.82C162.106 126.478 168.76 123.205 174.571 124.086" stroke="#4D656D" stroke-width="1.88976" stroke-linecap="round" stroke-linejoin="round"/>
<path d="M157.417 124.34L158.231 129.364" stroke="#4D656D" stroke-width="1.88976" stroke-linecap="round" stroke-linejoin="round"/>
<path d="M159.808 122.296L160.93 127.774" stroke="#4D656D" stroke-width="1.88976" stroke-linecap="round" stroke-linejoin="round"/>
<path d="M162.748 120.773L164.03 126.117" stroke="#4D656D" stroke-width="1.88976" stroke-linecap="round" stroke-linejoin="round"/>
<path d="M166.194 119.825L167.517 124.755" stroke="#4D656D" stroke-width="1.88976" stroke-linecap="round" stroke-linejoin="round"/>
<path d="M169.655 119.37L171.138 124.02" stroke="#4D656D" stroke-width="1.88976" stroke-linecap="round" stroke-linejoin="round"/>
<path fill-rule="evenodd" clip-rule="evenodd" d="M67.6213 19.2605L71.4557 23.8431C71.4557 23.8431 73.6068 34.2242 72.5513 47.0636C71.4825 59.9029 66.1249 60.5977 64.348 60.9317C62.5577 61.2791 60.7273 61.1054 60.7273 61.1054C60.7273 61.1054 60.6739 66.2625 60.4334 70.3241C60.1929 74.3723 59.565 77.031 59.565 77.031C59.565 77.031 51.6021 73.4103 48.9969 71.0455C46.3916 68.6807 44.8418 65.4475 44.8418 65.4475C44.8418 65.4475 45.6033 53.9976 45.4697 53.677C45.3495 53.343 39.4441 48.8004 39.4441 48.8004C39.4441 48.8004 33.9931 43.5364 34.2737 37.8983C34.5676 32.2468 42.8644 20.4229 42.8644 20.4229L67.6213 19.2605Z" fill="white"/>
<path fill-rule="evenodd" clip-rule="evenodd" d="M44.1468 11.4848C44.454 9.32042 44.0933 6.8621 42.0224 4.69771C36.9321 -0.606378 25.7895 2.29284 23.9725 10.3759C22.4628 17.0695 27.2324 23.7363 33.7791 22.5339C29.7843 30.5101 31.441 43.8037 38.6289 49.7224C42.1961 52.6617 45.4694 53.6771 45.4694 53.6771L43.6925 49.041C43.6925 49.041 36.0637 47.3576 35.6362 40.2632C35.1953 33.1688 41.8621 35.0927 43.6391 38.0854C43.6391 38.0854 44.601 43.4964 45.7099 43.9239C46.8322 44.3648 44.8014 39.4883 46.9658 38.6199C49.1436 37.7514 46.5917 30.6971 51.2144 26.5019C55.8505 22.3068 61.4752 22.4671 64.468 22.7076C67.0332 22.908 71.9632 24.6849 72.2571 22.8545C72.2571 22.8545 73.6733 15.3326 60.4999 10.5496C52.9112 7.79733 47.5269 9.44067 44.1468 11.4848Z" fill="black" stroke="black" stroke-width="0.755906" stroke-linecap="round" stroke-linejoin="round"/>
<path d="M64.1074 36.8562C64.1074 36.8562 65.9779 43.7635 65.016 45.113C64.0674 46.449 62.0767 45.781 62.0767 45.781" stroke="black" stroke-width="1.88976" stroke-linecap="round" stroke-linejoin="round"/>
<path d="M56.6558 40.4595C55.9717 40.5036 55.3667 39.7551 55.3044 38.7878C55.2421 37.8206 55.7462 37.0007 56.4303 36.9567C57.1144 36.9126 57.7194 37.6611 57.7817 38.6284C57.8439 39.5957 57.3399 40.4155 56.6558 40.4595Z" fill="black"/>
<path d="M69.4385 37.9683C68.7544 38.0124 68.1494 37.2639 68.0871 36.2966C68.0248 35.3293 68.5289 34.5095 69.213 34.4655C69.8971 34.4214 70.5021 35.1699 70.5644 36.1372C70.6267 37.1045 70.1226 37.9243 69.4385 37.9683Z" fill="black"/>
<path fill-rule="evenodd" clip-rule="evenodd" d="M57.7734 52.4197L66.9848 51.35C66.9848 51.35 66.3014 54.3214 62.6614 54.6631C59.0066 54.99 57.7734 52.4197 57.7734 52.4197Z" stroke="black" stroke-width="1.5" stroke-linecap="round" stroke-linejoin="round"/>
<path d="M37.9478 38.8738C37.9478 38.8738 40.3927 39.5685 41.7688 41.7596C43.145 43.9507 42.9446 45.9414 42.9446 45.9414" stroke="black" stroke-width="1.88976" stroke-linecap="round" stroke-linejoin="round"/>
<path d="M39.377 43.75L41.3677 41.1848" stroke="black" stroke-width="1.88976" stroke-linecap="round" stroke-linejoin="round"/>
<path d="M53.9399 34.7719C55.0088 33.6764 57.7076 33.2087 59.204 33.2087" stroke="black" stroke-width="1.88976" stroke-linecap="round" stroke-linejoin="round"/>
<path d="M66.2583 32.3269C67.434 31.2714 69.0907 31.0175 70.6138 31.4852" stroke="black" stroke-width="1.88976" stroke-linecap="round" stroke-linejoin="round"/>
<path d="M48.7827 56.1887C48.7827 56.1887 50.5864 58.3531 53.6459 59.6892C56.7188 61.0118 60.7269 61.1054 60.7269 61.1054" stroke="black" stroke-width="1.88976" stroke-linecap="round" stroke-linejoin="round"/>
<path d="M44.8418 65.4475C44.8418 65.4475 45.6033 53.9976 45.4697 53.677C45.3495 53.343 39.4441 48.8004 39.4441 48.8004C39.4441 48.8004 33.9931 43.5364 34.2737 37.8983C34.5676 32.2468 42.8644 20.4229 42.8644 20.4229L67.6213 19.2605L71.4557 23.8431C71.4557 23.8431 73.6068 34.2242 72.5513 47.0636C71.8966 55.013 69.6922 61.9337 60.7273 61.1054C60.7273 61.1054 60.714 62.5617 60.6605 64.539" stroke="black" stroke-width="1.88976" stroke-linecap="round" stroke-linejoin="round"/>
<path fill-rule="evenodd" clip-rule="evenodd" d="M69.0642 140.921L68.5165 147.08L67.7148 155.163C67.7148 155.163 76.9202 156.138 84.1081 155.564C91.3094 154.976 93.9414 150.834 94.1685 150.647C95.9454 149.164 96.5066 148.817 96.9608 146.866C98.4305 145.169 98.9248 143.82 96.8139 143.245C96.8139 143.245 97.0544 141.068 93.6074 141.936C90.1604 142.805 85.0032 142.711 85.0032 142.711L85.9786 139.077C84.2417 138.89 81.8903 138.836 79.7793 139.438C75.7979 140.573 72.4578 140.787 72.4578 140.787C70.4537 141.108 69.0642 140.921 69.0642 140.921Z" fill="white"/>
<path d="M83.3062 152.851C85.2835 153.413 91.2155 151.916 93.9945 150.847" stroke="black" stroke-width="1.88976" stroke-linecap="round" stroke-linejoin="round"/>
<path d="M83.7339 149.378C88.8376 149.525 93.5271 148.389 96.9607 146.866" stroke="black" stroke-width="1.88976" stroke-linecap="round" stroke-linejoin="round"/>
<path d="M84.3481 146.238C89.0243 146.118 94.2081 145.236 96.8134 143.245" stroke="black" stroke-width="1.88976" stroke-linecap="round" stroke-linejoin="round"/>
<path d="M81.0483 141.549C81.9702 142.657 83.9743 142.711 85.003 142.711" stroke="black" stroke-width="1.88976" stroke-linecap="round" stroke-linejoin="round"/>
<path d="M68.583 155.243C71.0413 155.47 78.256 156.031 84.1078 155.564C91.3091 154.976 93.9411 150.834 94.1682 150.647C95.9452 149.164 96.5063 148.817 96.9606 146.866C98.4302 145.169 98.9246 143.82 96.8136 143.245C96.8136 143.245 97.0541 141.068 93.6071 141.936C90.1601 142.804 85.003 142.711 85.003 142.711M85.3771 139.023C83.7204 138.89 81.6495 138.903 79.7791 139.438C75.7976 140.573 72.4575 140.787 72.4575 140.787C71.6425 140.921 70.9211 140.961 70.3599 140.974" stroke="black" stroke-width="1.88976" stroke-linecap="round" stroke-linejoin="round"/>
<path d="M222.669 107.199C222.669 107.199 234.8 108.455 244.112 106.143C253.425 103.832 253.665 100.692 253.665 100.692" stroke="#4D656D" stroke-width="1.88976" stroke-linecap="round" stroke-linejoin="round"/>
<path d="M238.782 38.2723C235.508 37.3905 231.367 36.148 227.719 35.48" stroke="white" stroke-width="1.88976" stroke-linecap="round" stroke-linejoin="round"/>
<path d="M231.26 40.1028C231.26 40.1028 225.274 39.8489 222.228 39.4748C219.195 39.0874 218.714 38.9404 218.714 38.9404" stroke="white" stroke-width="1.88976" stroke-linecap="round" stroke-linejoin="round"/>
<path d="M228 43.1355C224.913 42.7347 223.243 43.0821 219.649 44.4582" stroke="white" stroke-width="1.88976" stroke-linecap="round" stroke-linejoin="round"/>
<path d="M256.658 59.3151C256.658 59.3151 256.751 62.4948 256.123 66.7435C255.495 70.9921 254.627 73.1164 254.627 73.1164" stroke="white" stroke-width="1.88976" stroke-linecap="round" stroke-linejoin="round"/>
<path d="M252.623 54.5723C252.623 54.5723 252.917 58.4869 252.53 61.3326C252.142 64.1784 251.995 65.2873 251.995 65.2873" stroke="white" stroke-width="1.88976" stroke-linecap="round" stroke-linejoin="round"/>
<path d="M245.622 57.3243L245.342 61.0385" stroke="white" stroke-width="1.88976" stroke-linecap="round" stroke-linejoin="round"/>
<path d="M235.522 89.4161C233.357 92.0481 229.964 93.1571 225.809 93.598" stroke="black" stroke-width="1.88976" stroke-linecap="round" stroke-linejoin="round"/>
<path d="M64.5483 17.951C64.5483 17.951 62.8515 15.8668 59.8588 14.6243C56.866 13.3684 54.8887 13.8494 54.8887 13.8494" stroke="white" stroke-linecap="round" stroke-linejoin="round"/>
<path d="M57.1735 18.1784C57.1735 18.1784 55.2496 17.2566 52.9249 16.5885C50.6135 15.9071 50.2261 15.8671 50.2261 15.8671" stroke="white" stroke-linecap="round" stroke-linejoin="round"/>
<path d="M51.3883 20.3027C48.743 19.2472 47.634 19.3407 44.9219 19.3407" stroke="white" stroke-linecap="round" stroke-linejoin="round"/>
<path d="M31.4677 19.0868C31.4677 19.0868 28.9693 18.4589 27.994 15.2791C27.0321 12.0993 27.5665 9.58752 27.5665 9.58752" stroke="white" stroke-linecap="round" stroke-linejoin="round"/>
<path d="M34.0328 13.7294C34.0328 13.7294 31.5211 13.3954 30.853 11.712C30.1717 10.0152 30.2251 8.66577 30.2251 8.66577" stroke="white" stroke-linecap="round" stroke-linejoin="round"/>
<path d="M42.2761 31.3918C40.9935 31.6724 37.2927 29.5748 36.1704 28.7197" stroke="white" stroke-linecap="round" stroke-linejoin="round"/>
</svg>
