<svg width="288" height="260" viewBox="0 0 288 260" fill="none" xmlns="http://www.w3.org/2000/svg">
<path fill-rule="evenodd" clip-rule="evenodd" d="M25.4278 171.074C25.4278 171.074 -2.45367 215.559 1.50203 238.308C5.45773 261.056 37.1033 261.837 66.9695 255.513C96.822 249.189 161.29 219.323 161.29 219.323C166.492 217.201 180.083 204.883 169.804 185.898C159.511 166.913 100.983 164.34 100.983 164.34L25.4278 171.074Z" fill="black" stroke="black" stroke-width="0.755906" stroke-linecap="round" stroke-linejoin="round"/>
<path d="M39.7588 217.913L108.771 210.111" stroke="white" stroke-width="1.88976" stroke-linecap="round" stroke-linejoin="round"/>
<path fill-rule="evenodd" clip-rule="evenodd" d="M122.828 210.467C122.828 210.467 125.306 213.78 125.593 220.007C125.894 226.249 124.895 235.228 124.895 235.228C124.895 235.228 143.647 237.664 158.375 243.003C173.116 248.341 181.808 240.333 175.183 229.561C168.558 218.776 153.516 211.494 146.412 209.386C139.308 207.278 135.831 206.224 135.831 206.224L122.828 210.467Z" fill="white" stroke="black" stroke-width="1.88976" stroke-linecap="round" stroke-linejoin="round"/>
<path fill-rule="evenodd" clip-rule="evenodd" d="M41.0317 199.722L81.4373 221.951L151.23 204.253L169.681 166.859L174.937 155.607L171.501 152.569L165.848 153.773C152.079 156.593 105.596 166.626 105.596 166.626L102.708 167.365C101.558 170.226 100.162 172.772 98.7247 175.276L94.2489 185.241L93.2634 185.501L41.0317 199.722Z" fill="#FBABAC"/>
<path d="M82.7788 219.077L105.924 169.993L172.172 156.128" stroke="white" stroke-width="1.88976" stroke-linecap="round" stroke-linejoin="round"/>
<path fill-rule="evenodd" clip-rule="evenodd" d="M57.0186 192.591C59.058 194.549 63.8897 199.257 66.1481 201.954C69.0499 205.43 69.9807 207.155 71.938 207.264C73.8816 207.374 74.2512 206.895 74.6344 206.648C74.6344 206.648 75.9347 208.004 77.632 207.785C79.3292 207.552 79.7672 206.676 79.7672 206.676C79.7672 206.676 80.8486 206.977 81.8751 206.607C82.9017 206.238 82.9427 205.389 82.9427 205.389C82.9427 205.389 84.9411 204.896 85.5434 202.802C86.1456 200.722 85.3791 197.752 85.3791 197.752C85.3791 197.752 87.2406 195.165 85.7898 191.729C84.4758 188.622 79.0829 180.355 74.0185 176.55L57.0186 192.591Z" fill="white"/>
<path d="M66.5591 195.521C68.4753 197.724 73.7314 204.103 74.6347 206.648" stroke="black" stroke-width="1.88976" stroke-linecap="round" stroke-linejoin="round"/>
<path d="M71.3359 193.221C71.3359 193.221 73.2522 195.055 75.9349 198.915C78.6314 202.775 79.0831 205.115 79.6716 206.826" stroke="black" stroke-width="1.88976" stroke-linecap="round" stroke-linejoin="round"/>
<path d="M75.6885 190.511C79.0282 194.028 82.1764 200.598 82.9429 205.389" stroke="black" stroke-width="1.88976" stroke-linecap="round" stroke-linejoin="round"/>
<path d="M79.1924 187.938C81.4371 190.319 83.9967 194.781 85.3791 197.751" stroke="black" stroke-width="1.88976" stroke-linecap="round" stroke-linejoin="round"/>
<path d="M57.0186 192.591C59.058 194.549 63.8897 199.257 66.1481 201.954C69.0499 205.43 69.9807 207.155 71.938 207.264C73.8816 207.374 74.2512 206.895 74.6344 206.648C74.6344 206.648 75.9347 208.004 77.632 207.785C79.3292 207.552 79.7672 206.676 79.7672 206.676C79.7672 206.676 80.8486 206.977 81.8751 206.607C82.9017 206.238 82.9427 205.389 82.9427 205.389C82.9427 205.389 84.9411 204.896 85.5434 202.802C86.1456 200.722 85.3791 197.752 85.3791 197.752C85.3791 197.752 87.2406 195.165 85.7898 191.729C84.4758 188.622 79.0829 180.355 74.0185 176.55" stroke="black" stroke-width="1.88976" stroke-linecap="round" stroke-linejoin="round"/>
<path fill-rule="evenodd" clip-rule="evenodd" d="M35.5704 74.8511C35.5704 74.8511 47.6017 64.2296 72.513 60.972C97.4243 57.7143 122.199 63.0114 131.684 86.7319C141.17 110.466 139.007 140.346 137.898 159.686L111.591 165.326L109.346 129.013C109.346 129.013 105.5 158.934 105.363 162.889C105.213 166.859 99.8333 169.678 93.6055 172.087C87.3777 174.496 76.1265 174.565 76.1265 174.565L56.7313 192.865C56.7313 192.865 7.89417 175.413 2.66553 153.199C-2.57679 130.97 20.1445 84.186 35.5704 74.8511Z" fill="#B1B1F9"/>
<path d="M43.9606 112.068L33.2021 144.343C33.2021 144.343 53.1586 157.866 60.0982 162.752C67.0241 167.639 76.1263 174.565 76.1263 174.565" stroke="black" stroke-width="1.88976" stroke-linecap="round" stroke-linejoin="round"/>
<path d="M115.232 92.6859L111.221 115.435L107.909 139.538" stroke="black" stroke-width="1.88976" stroke-linecap="round" stroke-linejoin="round"/>
<path d="M58.5928 63.8053C63.2876 82.6667 93.1812 87.5395 91.0322 59.6443" stroke="#4D656D" stroke-width="1.88976" stroke-linecap="round" stroke-linejoin="round"/>
<path fill-rule="evenodd" clip-rule="evenodd" d="M88.2538 13.093C106.718 14.3659 106.581 21.6203 106.075 31.1742C105.568 40.7144 103.091 51.4728 97.9309 58.9188C94.1394 64.4075 88.856 65.0235 86.3375 64.9687C87.0629 68.6507 85.9543 75.4397 76.1129 74.8648C66.2853 74.2899 62.8086 62.724 62.8086 62.724C62.8086 62.724 64.2184 62.4091 65.0671 62.1628C65.4503 58.3987 66.6275 46.6137 66.5727 46.4769C66.5043 46.3126 61.4946 44.7249 61.4946 39.1267C61.4946 33.5285 65.8883 34.2265 65.8883 34.2265C67.6814 21.2781 71.6782 11.9569 88.2538 13.093Z" fill="white"/>
<path fill-rule="evenodd" clip-rule="evenodd" d="M106.143 25.0285C102.817 25.2201 98.8342 25.0696 94.728 24.7411C94.988 25.3981 95.1386 26.2741 94.6595 27.1364C93.7014 28.82 86.666 25.576 86.666 25.576C86.666 25.576 85.9953 28.1903 82.4639 27.7113C79.7264 27.3417 77.687 25.9182 76.9205 25.3023L76.7699 25.3296C76.7699 25.3296 73.2385 37.1694 73.0195 38.6065C72.7868 40.03 70.1178 35.1299 65.8883 34.2265C65.8883 34.2265 61.4946 33.5285 61.4946 39.1267C61.4946 44.7249 66.5043 46.3126 66.5727 46.4769C66.5864 46.5453 66.3537 49.146 66.0389 52.2941C66.0389 52.2941 63.3698 50.9253 60.3722 44.6838C57.3884 38.4423 55.1573 22.8111 62.1653 15.0503C69.1596 7.28946 83.3536 6.39977 87.1177 5.31845C90.8681 4.23714 107.827 -0.279748 110.345 2.36195C112.864 4.98995 108.21 8.53503 108.21 8.53503C108.21 8.53503 113.521 8.49396 114.548 10.725C115.56 12.9561 110.222 14.8587 110.154 15.5567C110.085 16.2685 113.754 18.1437 114.096 21.4561C114.452 24.7548 106.157 25.0285 106.143 25.0285Z" fill="black" stroke="black" stroke-width="1.88976" stroke-linecap="round" stroke-linejoin="round"/>
<path d="M64.1772 36.786C64.1772 36.786 66.1483 37.8947 67.4896 39.7151C68.8173 41.5356 69.3374 43.9857 69.3374 43.9857" stroke="black" stroke-width="1.88976" stroke-linecap="round" stroke-linejoin="round"/>
<path d="M65.0942 42.2885L67.4896 39.7152" stroke="black" stroke-width="1.88976" stroke-linecap="round" stroke-linejoin="round"/>
<path d="M71.5137 52.7595C74.2101 59.6854 78.8913 64.7224 86.3373 64.9688" stroke="black" stroke-width="1.88976" stroke-linecap="round" stroke-linejoin="round"/>
<path d="M50.1338 190.251C50.1338 190.251 56.6354 182.462 62.4389 177.508C68.2424 172.553 71.1031 170.787 71.1031 170.787" stroke="#4D656D" stroke-width="1.88976" stroke-linecap="round" stroke-linejoin="round"/>
<path d="M73.6762 176.878L68.6118 172.539" stroke="#4D656D" stroke-width="1.88976" stroke-linecap="round" stroke-linejoin="round"/>
<path d="M59.0445 190.689L52.9946 186.979" stroke="#4D656D" stroke-width="1.88976" stroke-linecap="round" stroke-linejoin="round"/>
<path d="M61.741 188.129L55.9238 183.79" stroke="#4D656D" stroke-width="1.88976" stroke-linecap="round" stroke-linejoin="round"/>
<path d="M64.834 185.228L58.8115 180.861" stroke="#4D656D" stroke-width="1.88976" stroke-linecap="round" stroke-linejoin="round"/>
<path d="M67.8179 182.408L62.2334 177.686" stroke="#4D656D" stroke-width="1.88976" stroke-linecap="round" stroke-linejoin="round"/>
<path d="M70.8567 179.533L65.5459 174.934" stroke="#4D656D" stroke-width="1.88976" stroke-linecap="round" stroke-linejoin="round"/>
<path d="M65.0671 62.1627C65.4503 58.3986 66.6275 46.6137 66.5727 46.4768C66.5043 46.3125 61.4946 44.7248 61.4946 39.1266C61.4946 33.5284 65.8883 34.2264 65.8883 34.2264M106.048 23.9882C106.321 26.1645 106.212 28.5872 106.075 31.1741C105.568 40.7143 103.091 51.4727 97.9309 58.9188C94.1394 64.4075 88.856 65.0234 86.3375 64.9686" stroke="black" stroke-width="1.88976" stroke-linecap="round" stroke-linejoin="round"/>
<path d="M93.2359 187.267L80.4243 215.367" stroke="black" stroke-width="1.88976" stroke-linecap="round" stroke-linejoin="round"/>
<path d="M17.1196 148.586C24.4288 145.301 28.0833 144.493 33.2025 144.343" stroke="black" stroke-width="1.88976" stroke-linecap="round" stroke-linejoin="round"/>
<path d="M106.143 16.0221C102.667 14.6807 97.5748 13.5447 91.0732 13.7774" stroke="white" stroke-width="1.88976" stroke-linecap="round" stroke-linejoin="round"/>
<path d="M103.707 7.93273C100.011 7.90536 97.6705 7.93273 93.3315 8.72661" stroke="white" stroke-width="1.88976" stroke-linecap="round" stroke-linejoin="round"/>
<path d="M94.8508 20.2242C92.784 19.4029 90.156 18.6638 86.9668 18.2668" stroke="white" stroke-width="1.88976" stroke-linecap="round" stroke-linejoin="round"/>
<path d="M68.7627 32.584C68.8585 30.9415 69.0638 29.0663 69.4471 27.2185C69.625 26.3288 69.844 25.4528 70.1041 24.5905" stroke="white" stroke-width="1.88976" stroke-linecap="round" stroke-linejoin="round"/>
<path d="M65.8062 29.4633C65.9978 27.027 66.4358 24.1252 67.2981 21.4972" stroke="white" stroke-width="1.88976" stroke-linecap="round" stroke-linejoin="round"/>
<path d="M62.5347 31.3796C62.5347 30.0245 62.5894 28.4915 62.7537 26.9448" stroke="white" stroke-width="1.88976" stroke-linecap="round" stroke-linejoin="round"/>
<path d="M93.6193 40.7144C93.7151 44.7932 93.9067 47.5855 94.6048 51.5959C93.3045 52.0066 91.3882 52.2393 90.0742 51.9108" stroke="black" stroke-width="1.88976" stroke-linecap="round" stroke-linejoin="round"/>
<path d="M84.8465 43.8412C85.7348 43.9198 86.5292 43.1434 86.6209 42.1071C86.7127 41.0708 86.067 40.1669 85.1787 40.0883C84.2904 40.0097 83.4959 40.786 83.4042 41.8224C83.3125 42.8587 83.9582 43.7625 84.8465 43.8412Z" fill="black"/>
<path d="M82.9155 36.389C84.2158 36.348 86.707 36.2111 88.7327 36.6217" stroke="black" stroke-width="1.88976" stroke-linecap="round" stroke-linejoin="round"/>
<path d="M97.876 35.4036C98.8067 34.9519 101.024 34.5139 102.694 34.6097" stroke="black" stroke-width="1.88976" stroke-linecap="round" stroke-linejoin="round"/>
<path d="M99.6043 42.4164C100.493 42.495 101.287 41.7186 101.379 40.6823C101.47 39.646 100.825 38.7421 99.9365 38.6635C99.0482 38.5849 98.2538 39.3612 98.162 40.3975C98.0703 41.4339 98.716 42.3377 99.6043 42.4164Z" fill="black"/>
<path fill-rule="evenodd" clip-rule="evenodd" d="M84.7495 56.6604L93.2358 55.6749C93.2358 55.6749 92.6062 58.4124 89.2527 58.7272C85.8856 59.0284 84.7495 56.6604 84.7495 56.6604Z" stroke="black" stroke-width="1.88976" stroke-linecap="round" stroke-linejoin="round"/>
<path fill-rule="evenodd" clip-rule="evenodd" d="M209.378 116.648L205.081 155.466C205.081 155.466 207.955 159.709 214.771 160.256C221.601 160.804 224.12 158.422 224.12 158.422L235.987 123.026C235.987 123.026 219.617 125.052 209.378 116.648Z" fill="white" stroke="black" stroke-width="1.88976" stroke-linecap="round" stroke-linejoin="round"/>
<path fill-rule="evenodd" clip-rule="evenodd" d="M206.367 128.57L204.779 142.997C204.779 142.997 208.448 146.706 216.797 148.239C225.16 149.772 229.253 148.143 229.253 148.143L233.715 134.25C233.715 134.25 218.043 135.729 206.367 128.57Z" fill="#FCC63A"/>
<path fill-rule="evenodd" clip-rule="evenodd" d="M218.973 111.187L215.332 110.502L210.994 113.445C210.994 113.445 209.502 114.814 211.582 117.688C213.663 120.549 228.24 123.136 228.24 123.136L235.316 122.588L237.301 119.221L233.989 114.253L218.973 111.187Z" fill="white" stroke="black" stroke-width="1.88976" stroke-linecap="round" stroke-linejoin="round"/>
<path fill-rule="evenodd" clip-rule="evenodd" d="M210.993 113.445C210.993 113.445 207.243 112.925 207.681 116.58C208.133 120.234 217.221 123.765 226.419 124.71C235.617 125.654 238.601 123.916 238.807 121.986C238.998 120.07 237.301 119.221 237.301 119.221C234.385 123.779 209.981 119.81 210.993 113.445Z" fill="white" stroke="black" stroke-width="1.88976" stroke-linecap="round" stroke-linejoin="round"/>
<path fill-rule="evenodd" clip-rule="evenodd" d="M225.037 110.502C230.183 111.542 234.194 113.212 233.988 114.253C233.783 115.279 230.826 116.415 224.133 114.91C217.454 113.404 215.127 111.529 215.332 110.502C215.538 109.462 219.876 109.476 225.037 110.502Z" fill="white" stroke="black" stroke-width="1.88976" stroke-linecap="round" stroke-linejoin="round"/>
<path fill-rule="evenodd" clip-rule="evenodd" d="M164.675 72.2326C171.458 74.0427 187.018 77.1315 195.794 70.2398C207.233 61.2226 202.091 46.5427 184.556 41.2785C143.722 29.0065 134.879 60.2429 156.619 69.6586L158.11 78.7423L164.675 72.2326Z" fill="#B1B1F9"/>
<path d="M180.802 62.47C177.37 64.6306 172.435 62.9622 169.779 58.7434C167.122 54.5246 167.75 49.3531 171.182 47.1925C174.613 45.0319 179.548 46.7004 182.204 50.9192C184.861 55.1379 184.233 60.3094 180.802 62.47Z" stroke="white" stroke-width="2.93205" stroke-linecap="round" stroke-linejoin="round"/>
<path d="M164.354 65.2943L170.691 59.98" stroke="white" stroke-width="1.88976" stroke-linecap="round" stroke-linejoin="round"/>
<path fill-rule="evenodd" clip-rule="evenodd" d="M240.459 164.34L183.013 182.244L228.989 205.868L287.024 190.552L240.459 164.34Z" fill="white" stroke="black" stroke-width="1.88976" stroke-linecap="round" stroke-linejoin="round"/>
<path fill-rule="evenodd" clip-rule="evenodd" d="M228.004 215.668L182.616 192.03L183.013 182.244L228.989 205.868L228.004 215.668Z" fill="white" stroke="black" stroke-width="1.88976" stroke-linecap="round" stroke-linejoin="round"/>
<path fill-rule="evenodd" clip-rule="evenodd" d="M287.024 190.552L285.546 199.736L228.003 215.668L228.989 205.868L287.024 190.552Z" fill="white" stroke="black" stroke-width="1.88976" stroke-linecap="round" stroke-linejoin="round"/>
<path d="M223.651 177.001L247.577 191.537" stroke="#FBABAC" stroke-width="1.88976" stroke-linecap="round" stroke-linejoin="round"/>
<path d="M222.802 182.244L236.805 190.552" stroke="#FBABAC" stroke-width="1.88976" stroke-linecap="round" stroke-linejoin="round"/>
<path d="M213.659 185.063L229.386 193.864" stroke="black" stroke-width="1.88976" stroke-linecap="round" stroke-linejoin="round"/>
<path d="M212.824 189.361L219.449 193.358" stroke="black" stroke-width="1.88976" stroke-linecap="round" stroke-linejoin="round"/>
<path fill-rule="evenodd" clip-rule="evenodd" d="M239.912 169.432L233.479 171.458L266.014 189.909L272.885 187.992L239.912 169.432Z" fill="#FBABAC"/>
<path d="M187.16 187.034L213.659 201.119" stroke="#4D656D" stroke-width="1.88976" stroke-linecap="round" stroke-linejoin="round"/>
<path d="M190.117 191.086L204.064 198.545" stroke="#4D656D" stroke-width="1.88976" stroke-linecap="round" stroke-linejoin="round"/>
<path d="M236.544 207.497L259.539 201.666" stroke="#4D656D" stroke-width="1.88976" stroke-linecap="round" stroke-linejoin="round"/>
<path d="M251.327 206.21L265.562 202.46" stroke="#4D656D" stroke-width="1.88976" stroke-linecap="round" stroke-linejoin="round"/>
<path fill-rule="evenodd" clip-rule="evenodd" d="M235.614 152.966L178.167 170.869L224.143 194.508L282.179 179.178L235.614 152.966Z" fill="white" stroke="black" stroke-width="1.88976" stroke-linecap="round" stroke-linejoin="round"/>
<path fill-rule="evenodd" clip-rule="evenodd" d="M223.158 204.294L177.77 180.656L178.167 170.869L224.143 194.508L223.158 204.294Z" fill="white" stroke="black" stroke-width="1.88976" stroke-linecap="round" stroke-linejoin="round"/>
<path fill-rule="evenodd" clip-rule="evenodd" d="M282.178 179.177L280.7 188.376L223.158 204.294L224.143 194.508L282.178 179.177Z" fill="white" stroke="black" stroke-width="1.88976" stroke-linecap="round" stroke-linejoin="round"/>
<path d="M218.805 165.627L242.731 180.163" stroke="#FBABAC" stroke-width="1.88976" stroke-linecap="round" stroke-linejoin="round"/>
<path d="M217.957 170.869L231.959 179.177" stroke="#FBABAC" stroke-width="1.88976" stroke-linecap="round" stroke-linejoin="round"/>
<path d="M208.813 173.689L224.54 182.49" stroke="black" stroke-width="1.88976" stroke-linecap="round" stroke-linejoin="round"/>
<path d="M207.979 177.987L214.603 181.997" stroke="black" stroke-width="1.88976" stroke-linecap="round" stroke-linejoin="round"/>
<path fill-rule="evenodd" clip-rule="evenodd" d="M235.066 158.058L228.646 160.097L261.168 178.534L268.039 176.632L235.066 158.058Z" fill="#FBABAC"/>
<path d="M182.314 175.66L208.814 189.744" stroke="#4D656D" stroke-width="1.88976" stroke-linecap="round" stroke-linejoin="round"/>
<path d="M185.271 179.711L199.219 187.171" stroke="#4D656D" stroke-width="1.88976" stroke-linecap="round" stroke-linejoin="round"/>
<path d="M231.699 196.123L254.694 190.292" stroke="#4D656D" stroke-width="1.88976" stroke-linecap="round" stroke-linejoin="round"/>
<path d="M246.481 194.836L260.716 191.086" stroke="#4D656D" stroke-width="1.88976" stroke-linecap="round" stroke-linejoin="round"/>
<path fill-rule="evenodd" clip-rule="evenodd" d="M233.287 142.591L175.84 160.494L221.817 184.133L279.866 168.803L233.287 142.591Z" fill="white" stroke="black" stroke-width="1.88976" stroke-linecap="round" stroke-linejoin="round"/>
<path fill-rule="evenodd" clip-rule="evenodd" d="M220.831 193.919L175.443 170.281L175.84 160.494L221.817 184.133L220.831 193.919Z" fill="white" stroke="black" stroke-width="1.88976" stroke-linecap="round" stroke-linejoin="round"/>
<path fill-rule="evenodd" clip-rule="evenodd" d="M279.865 168.803L278.373 178.001L220.831 193.919L221.817 184.133L279.865 168.803Z" fill="white" stroke="black" stroke-width="1.88976" stroke-linecap="round" stroke-linejoin="round"/>
<path d="M216.479 155.252L240.404 169.788" stroke="#FCC63A" stroke-width="1.88976" stroke-linecap="round" stroke-linejoin="round"/>
<path d="M215.644 160.494L229.632 168.803" stroke="#FCC63A" stroke-width="1.88976" stroke-linecap="round" stroke-linejoin="round"/>
<path d="M206.487 163.314L222.214 172.115" stroke="black" stroke-width="1.88976" stroke-linecap="round" stroke-linejoin="round"/>
<path d="M205.652 167.612L212.277 171.622" stroke="black" stroke-width="1.88976" stroke-linecap="round" stroke-linejoin="round"/>
<path fill-rule="evenodd" clip-rule="evenodd" d="M232.739 147.683L226.32 149.722L258.855 168.159L265.726 166.257L232.739 147.683Z" fill="#FCC63A"/>
<path d="M179.988 165.285L206.487 179.369" stroke="#4D656D" stroke-width="1.88976" stroke-linecap="round" stroke-linejoin="round"/>
<path d="M182.958 169.336L196.892 176.796" stroke="#4D656D" stroke-width="1.88976" stroke-linecap="round" stroke-linejoin="round"/>
<path d="M229.372 185.748L252.367 179.917" stroke="#4D656D" stroke-width="1.88976" stroke-linecap="round" stroke-linejoin="round"/>
<path d="M244.155 184.461L258.404 180.711" stroke="#4D656D" stroke-width="1.88976" stroke-linecap="round" stroke-linejoin="round"/>
<path d="M45.7812 212.082C51.1194 212.753 54.6918 213.547 61.5082 215.449" stroke="white" stroke-width="1.88976" stroke-linecap="round" stroke-linejoin="round"/>
</svg>
