<svg width="60" height="60" viewBox="0 0 60 60" fill="none" xmlns="http://www.w3.org/2000/svg">
<path fill-rule="evenodd" clip-rule="evenodd" d="M56.25 46.5C55.8364 46.5 55.5 46.1636 55.5 45.75C55.5 45.3364 55.8364 45 56.25 45C56.6636 45 57 45.3364 57 45.75C57 46.1636 56.6636 46.5 56.25 46.5Z" fill="#CACAFB"/>
<path fill-rule="evenodd" clip-rule="evenodd" d="M41.25 3C40.8364 3 40.5 2.66355 40.5 2.25C40.5 1.83641 40.8364 1.5 41.25 1.5C41.6636 1.5 42 1.83641 42 2.25C42 2.66355 41.6636 3 41.25 3Z" fill="#CACAFB"/>
<path fill-rule="evenodd" clip-rule="evenodd" d="M2.25 40.5C1.83645 40.5 1.5 40.1636 1.5 39.75C1.5 39.3364 1.83645 39 2.25 39C2.66355 39 3 39.3364 3 39.75C3 40.1636 2.66355 40.5 2.25 40.5Z" fill="#CACAFB"/>
<path fill-rule="evenodd" clip-rule="evenodd" d="M36.75 40.5C38.1642 40.5 39 41.3358 39 42.75C39 42.8113 38.9925 42.8724 38.9776 42.9319C38.5986 44.4479 36.9134 45.4332 33.9062 45.9765L33.4204 46.0586C33.2548 46.0848 33.0855 46.1097 32.9126 46.1335L32.3828 46.2011C32.2927 46.2118 32.2016 46.2222 32.1097 46.2323L31.5468 46.2893L30.962 46.3393L30.3551 46.3824L29.7262 46.4187C29.6195 46.4241 29.5119 46.4293 29.4034 46.4343L28.7413 46.4604L28.0572 46.4799L27.3509 46.4928L26.25 46.5C25.8358 46.5 25.5 46.1642 25.5 45.75C25.5 45.3358 25.8358 45 26.25 45L26.9625 44.9968C27.0793 44.9957 27.1952 44.9943 27.3101 44.9927L27.9881 44.9799L28.6429 44.9608L29.2748 44.9354L29.8835 44.904L30.4691 44.8666L31.0316 44.8233L31.571 44.7742C31.6589 44.7656 31.7459 44.7566 31.832 44.7475L32.3366 44.6899C32.5831 44.6596 32.8209 44.6273 33.05 44.593L33.4966 44.5216L33.92 44.4448L34.3202 44.3628C36.1334 43.9681 37.1868 43.4053 37.4728 42.7174L37.4977 42.6488L37.4928 42.5603C37.458 42.1567 37.2914 42.0184 36.8491 42.0018L36.75 42C35.9709 42 35.1504 42.4102 34.2803 43.2803C33.8284 43.7323 33.0696 43.4458 33.0045 42.8352L33 42.75C33 42.1642 32.8358 42 32.25 42C31.4709 42 30.6504 42.4102 29.7803 43.2803C29.4874 43.5732 29.0126 43.5732 28.7197 43.2803C28.4268 42.9874 28.4268 42.5126 28.7197 42.2197C29.8496 41.0898 31.0291 40.5 32.25 40.5C33.1086 40.5 33.754 40.8081 34.1286 41.3667L34.158 41.4142L34.3047 41.3124C35.0376 40.8173 35.7892 40.544 36.5576 40.5049L36.75 40.5Z" fill="#E1000F"/>
<path d="M30.75 13.5C31.1642 13.5 31.5 13.8358 31.5 14.25C31.5 14.6346 31.2105 14.9516 30.8375 14.995L30.75 15H18.75C18.3358 15 18 14.6642 18 14.25C18 13.8654 18.2895 13.5484 18.6625 13.505L18.75 13.5H30.75Z" fill="#000091"/>
<path d="M39 18.75C39 18.3358 38.6642 18 38.25 18H18.75L18.6625 18.005C18.2895 18.0484 18 18.3654 18 18.75C18 19.1642 18.3358 19.5 18.75 19.5H38.25L38.3375 19.495C38.7105 19.4516 39 19.1346 39 18.75Z" fill="#000091"/>
<path d="M33.75 22.5C34.1642 22.5 34.5 22.8358 34.5 23.25C34.5 23.6346 34.2105 23.9516 33.8375 23.995L33.75 24H18.75C18.3358 24 18 23.6642 18 23.25C18 22.8654 18.2895 22.5484 18.6625 22.505L18.75 22.5H33.75Z" fill="#000091"/>
<path d="M39 27.75C39 27.3358 38.6642 27 38.25 27H18.75L18.6625 27.005C18.2895 27.0484 18 27.3654 18 27.75C18 28.1642 18.3358 28.5 18.75 28.5H38.25L38.3375 28.495C38.7105 28.4516 39 28.1346 39 27.75Z" fill="#000091"/>
<path d="M34.5 32.25C34.5 31.8358 34.1642 31.5 33.75 31.5H18.75L18.6625 31.505C18.2895 31.5484 18 31.8654 18 32.25C18 32.6642 18.3358 33 18.75 33H33.75L33.8375 32.995C34.2105 32.9516 34.5 32.6346 34.5 32.25Z" fill="#000091"/>
<path fill-rule="evenodd" clip-rule="evenodd" d="M14.25 9H42.75C43.1642 9 43.5 9.33579 43.5 9.75V50.25C43.5 50.6642 43.1642 51 42.75 51H14.25C13.8358 51 13.5 50.6642 13.5 50.25V9.75C13.5 9.33579 13.8358 9 14.25 9ZM42 49.5V10.5H15V49.5H42Z" fill="#000091"/>
<path d="M45.75 15C46.1346 15 46.4516 15.2895 46.495 15.6625L46.5 15.75V53.25C46.5 53.6346 46.2105 53.9516 45.8375 53.995L45.75 54H20.25C19.8358 54 19.5 53.6642 19.5 53.25C19.5 52.8654 19.7895 52.5484 20.1625 52.505L20.25 52.5H45V15.75C45 15.3654 45.2895 15.0484 45.6625 15.005L45.75 15Z" fill="#000091"/>
</svg>
